<?xml version="1.0" encoding="UTF-8" standalone="no"?>
<svg
   xmlns:dc="http://purl.org/dc/elements/1.1/"
   xmlns:cc="http://creativecommons.org/ns#"
   xmlns:rdf="http://www.w3.org/1999/02/22-rdf-syntax-ns#"
   xmlns:svg="http://www.w3.org/2000/svg"
   xmlns="http://www.w3.org/2000/svg"
   xmlns:xlink="http://www.w3.org/1999/xlink"
   xmlns:sodipodi="http://sodipodi.sourceforge.net/DTD/sodipodi-0.dtd"
   xmlns:inkscape="http://www.inkscape.org/namespaces/inkscape"
   version="1.1"
   xml:space="preserve"
   x="0px"
   y="0px"
   width="365.33899"
   height="130"
   viewBox="0 0 365.33899 130"
   id="svg2"
   inkscape:version="0.91 r13725"
   sodipodi:docname="overlap-removal.svg"><metadata
     id="metadata67"><rdf:RDF><cc:Work
         rdf:about=""><dc:format>image/svg+xml</dc:format><dc:type
           rdf:resource="http://purl.org/dc/dcmitype/StillImage" /><dc:title></dc:title></cc:Work></rdf:RDF></metadata><defs
     id="defs65"><linearGradient
       id="gradient-0-3"
       gradientUnits="objectBoundingBox"
       gradientTransform="matrix(0,1,-1,0,0,0)"><stop
         offset="0"
         stop-color="#ebf6fa"
         opacity-stop="1.0"
         id="stop80" /><stop
         offset="1"
         stop-color="#c4e3f3"
         opacity-stop="1.0"
         id="stop82" /></linearGradient><linearGradient
       inkscape:collect="always"
       xlink:href="#gradient-0-3"
       id="linearGradient5097"
       gradientUnits="userSpaceOnUse"
       x1="0.5"
       y1="0.5"
       x2="49.5"
       y2="0.5"
       gradientTransform="matrix(0,1,-1,0,220.33899,5)" /><linearGradient
       inkscape:collect="always"
       xlink:href="#gradient-0-3"
       id="linearGradient5101"
       gradientUnits="userSpaceOnUse"
       x1="0.5"
       y1="0.5"
       x2="49.5"
       y2="0.5"
       gradientTransform="matrix(0,1,-1,0,290.33899,75)" /><linearGradient
       inkscape:collect="always"
       xlink:href="#gradient-0-3"
       id="linearGradient5109"
       gradientUnits="userSpaceOnUse"
       x1="0.5"
       y1="0.5"
       x2="49.5"
       y2="0.5"
       gradientTransform="matrix(0,1,-1,0,360.33899,75)" /><defs
       id="defs77"><linearGradient
         gradientTransform="matrix(0,1,-1,0,0,0)"
         gradientUnits="objectBoundingBox"
         id="linearGradient4903"><stop
           id="stop4905"
           opacity-stop="1.0"
           stop-color="#ebf6fa"
           offset="0" /><stop
           id="stop4907"
           opacity-stop="1.0"
           stop-color="#c4e3f3"
           offset="1" /></linearGradient></defs><linearGradient
       inkscape:collect="always"
       xlink:href="#gradient-0"
       id="linearGradient4238"
       gradientUnits="userSpaceOnUse"
       x1="0.5"
       y1="0.5"
       x2="49.5"
       y2="0.5"
       gradientTransform="matrix(0,1,-1,0,55,25)" /><linearGradient
       inkscape:collect="always"
       xlink:href="#gradient-0"
       id="linearGradient4242"
       gradientUnits="userSpaceOnUse"
       x1="0.5"
       y1="0.5"
       x2="49.5"
       y2="0.5"
       gradientTransform="matrix(0,1,-1,0,85,55)" /><linearGradient
       inkscape:collect="always"
       xlink:href="#gradient-0"
       id="linearGradient4250"
       gradientUnits="userSpaceOnUse"
       x1="0.5"
       y1="0.5"
       x2="49.5"
       y2="0.5"
       gradientTransform="matrix(0,1,-1,0,115,55)" /><defs
       id="defs10"><linearGradient
         gradientTransform="matrix(0,1,-1,0,0,0)"
         gradientUnits="objectBoundingBox"
         id="gradient-0"><stop
           id="stop13"
           opacity-stop="1.0"
           stop-color="#ebf6fa"
           offset="0" /><stop
           id="stop15"
           opacity-stop="1.0"
           stop-color="#c4e3f3"
           offset="1" /></linearGradient></defs></defs><sodipodi:namedview
     pagecolor="#ffffff"
     bordercolor="#666666"
     borderopacity="1"
     objecttolerance="10"
     gridtolerance="10"
     guidetolerance="10"
     inkscape:pageopacity="0"
     inkscape:pageshadow="2"
     inkscape:window-width="1920"
     inkscape:window-height="1149"
     id="namedview63"
     showgrid="false"
     inkscape:zoom="2.95"
     inkscape:cx="167.70402"
     inkscape:cy="27.000244"
     inkscape:window-x="0"
     inkscape:window-y="0"
     inkscape:window-maximized="1"
     inkscape:current-layer="svg2"
     fit-margin-top="5"
     fit-margin-right="5"
     fit-margin-bottom="5"
     fit-margin-left="5" /><desc
     id="desc6">Creator: FreeHEP Graphics2D Driver Producer: de.cau.cs.kieler.klighd.piccolo.freehep.SemanticSVGGraphics2D Revision Source:  Date: Wednesday, December 13, 2017 12:59:42 PM CET</desc><path
     inkscape:connector-curvature="0"
     style="fill:url(#linearGradient4238);fill-opacity:1;fill-rule:nonzero;stroke:none;stroke-width:1;stroke-linecap:square;stroke-linejoin:miter;stroke-miterlimit:10;stroke-dasharray:none;stroke-dashoffset:0"
     id="path21"
     d="m 49.5,25.5 -39,0 c -2.761424,0 -5,2.238576 -5,5 l 0,39 c 0,2.761424 2.238576,5 5,5 l 39,0 c 2.761424,0 5,-2.238576 5,-5 l 0,-39 c 0,-2.761424 -2.238576,-5 -5,-5 z" /><path
     style="fill:none;stroke:#000000;stroke-width:1;stroke-linecap:butt;stroke-linejoin:miter;stroke-miterlimit:10;stroke-dasharray:none;stroke-dashoffset:0;stroke-opacity:1"
     inkscape:connector-curvature="0"
     id="path25"
     d="m 5.5,30.5 0,39 c 0,2.761424 2.2385763,5 5,5 l 39,0 c 2.761424,0 5,-2.238576 5,-5 l 0,-39 c 0,-2.761424 -2.238576,-5 -5,-5 l -39,0 c -2.7614237,0 -5,2.238576 -5,5 z" /><path
     inkscape:connector-curvature="0"
     style="fill:url(#linearGradient4242);fill-opacity:1;fill-rule:nonzero;stroke:none;stroke-width:1;stroke-linecap:square;stroke-linejoin:miter;stroke-miterlimit:10;stroke-dasharray:none;stroke-dashoffset:0"
     id="path33"
     d="m 79.5,55.5 -39,0 c -2.761424,0 -5,2.238576 -5,5 l 0,39 c 0,2.76142 2.238576,5 5,5 l 39,0 c 2.761424,0 5,-2.23858 5,-5 l 0,-39 c 0,-2.761424 -2.238576,-5 -5,-5 z" /><path
     style="fill:none;stroke:#000000;stroke-width:1;stroke-linecap:butt;stroke-linejoin:miter;stroke-miterlimit:10;stroke-dasharray:none;stroke-dashoffset:0;stroke-opacity:1"
     inkscape:connector-curvature="0"
     id="path39"
     d="m 35.5,60.5 0,39 c 0,2.76142 2.238576,5 5,5 l 39,0 c 2.761424,0 5,-2.23858 5,-5 l 0,-39 c 0,-2.761424 -2.238576,-5 -5,-5 l -39,0 c -2.761424,0 -5,2.238576 -5,5 z" /><path
     d="m 109.5,55.5 -39,0 c -2.761424,0 -5,2.238576 -5,5 l 0,39 c 0,2.76142 2.238576,5 5,5 l 39,0 c 2.76142,0 5,-2.23858 5,-5 l 0,-39 c 0,-2.761424 -2.23858,-5 -5,-5 z"
     id="path47"
     style="fill:url(#linearGradient4250);fill-opacity:1;fill-rule:nonzero;stroke:none;stroke-width:1;stroke-linecap:square;stroke-linejoin:miter;stroke-miterlimit:10;stroke-dasharray:none;stroke-dashoffset:0"
     inkscape:connector-curvature="0" /><path
     style="fill:none;stroke:#000000;stroke-width:1;stroke-linecap:butt;stroke-linejoin:miter;stroke-miterlimit:10;stroke-dasharray:none;stroke-dashoffset:0;stroke-opacity:1"
     d="m 65.5,60.5 0,39 c 0,2.76142 2.238576,5 5,5 l 39,0 c 2.76142,0 5,-2.23858 5,-5 l 0,-39 c 0,-2.761424 -2.23858,-5 -5,-5 l -39,0 c -2.761424,0 -5,2.238576 -5,5 z"
     id="path53"
     inkscape:connector-curvature="0" /><path
     style="fill:none;stroke:#000000;stroke-width:1;stroke-linecap:butt;stroke-linejoin:miter;stroke-miterlimit:10;stroke-dasharray:none;stroke-dashoffset:0;stroke-opacity:1"
     inkscape:connector-curvature="0"
     id="path57"
     d="m 6.4644661,26.464466 29.9999999,30" /><path
     style="fill:none;stroke:#000000;stroke-width:1;stroke-linecap:butt;stroke-linejoin:miter;stroke-miterlimit:10;stroke-dasharray:none;stroke-dashoffset:0;stroke-opacity:1"
     inkscape:connector-curvature="0"
     id="path61"
     d="m 36.464466,56.464466 29.133179,1.165035" /><path
     id="path88"
     d="m 214.83899,5.5 -39,0 c -2.76142,0 -5,2.23858 -5,5 l 0,39 c 0,2.76142 2.23858,5 5,5 l 39,0 c 2.76142,0 5,-2.23858 5,-5 l 0,-39 c 0,-2.76142 -2.23858,-5 -5,-5 z"
     inkscape:connector-curvature="0"
     style="fill:url(#linearGradient5097);fill-opacity:1;fill-rule:nonzero;stroke:none;stroke-width:1;stroke-linecap:square;stroke-linejoin:miter;stroke-miterlimit:10;stroke-dasharray:none;stroke-dashoffset:0" /><path
     style="fill:none;stroke:#000000;stroke-width:1;stroke-linecap:butt;stroke-linejoin:miter;stroke-miterlimit:10;stroke-dasharray:none;stroke-dashoffset:0;stroke-opacity:1"
     id="path92"
     d="m 170.83899,10.5 0,39 c 0,2.761424 2.23858,5 5,5 l 39,0 c 2.76142,0 5,-2.238576 5,-5 l 0,-39 c 0,-2.761424 -2.23858,-5 -5,-5 l -39,0 c -2.76142,0 -5,2.238576 -5,5 z"
     inkscape:connector-curvature="0" /><path
     id="path100"
     d="m 284.83899,75.5 -39,0 c -2.76142,0 -5,2.23858 -5,5 l 0,39 c 0,2.76142 2.23858,5 5,5 l 39,0 c 2.76142,0 5,-2.23858 5,-5 l 0,-39 c 0,-2.76142 -2.23858,-5 -5,-5 z"
     inkscape:connector-curvature="0"
     style="fill:url(#linearGradient5101);fill-opacity:1;fill-rule:nonzero;stroke:none;stroke-width:1;stroke-linecap:square;stroke-linejoin:miter;stroke-miterlimit:10;stroke-dasharray:none;stroke-dashoffset:0" /><path
     style="fill:none;stroke:#000000;stroke-width:1;stroke-linecap:butt;stroke-linejoin:miter;stroke-miterlimit:10;stroke-dasharray:none;stroke-dashoffset:0;stroke-opacity:1"
     id="path106"
     d="m 240.83899,80.5 0,39 c 0,2.76142 2.23858,5 5,5 l 39,0 c 2.76142,0 5,-2.23858 5,-5 l 0,-39 c 0,-2.761424 -2.23858,-5 -5,-5 l -39,0 c -2.76142,0 -5,2.238576 -5,5 z"
     inkscape:connector-curvature="0" /><path
     style="fill:url(#linearGradient5109);fill-opacity:1;fill-rule:nonzero;stroke:none;stroke-width:1;stroke-linecap:square;stroke-linejoin:miter;stroke-miterlimit:10;stroke-dasharray:none;stroke-dashoffset:0"
     inkscape:connector-curvature="0"
     d="m 354.83899,75.5 -39,0 c -2.76142,0 -5,2.23858 -5,5 l 0,39 c 0,2.76142 2.23858,5 5,5 l 39,0 c 2.76142,0 5,-2.23858 5,-5 l 0,-39 c 0,-2.76142 -2.23858,-5 -5,-5 z"
     id="path114" /><path
     style="fill:none;stroke:#000000;stroke-width:1;stroke-linecap:butt;stroke-linejoin:miter;stroke-miterlimit:10;stroke-dasharray:none;stroke-dashoffset:0;stroke-opacity:1"
     inkscape:connector-curvature="0"
     d="m 310.83899,80.5 0,39 c 0,2.76142 2.23858,5 5,5 l 39,0 c 2.76142,0 5,-2.23858 5,-5 l 0,-39 c 0,-2.761424 -2.23858,-5 -5,-5 l -39,0 c -2.76142,0 -5,2.238576 -5,5 z"
     id="path120" /><path
     style="fill:none;stroke:#000000;stroke-width:1;stroke-linecap:butt;stroke-linejoin:miter;stroke-miterlimit:10;stroke-dasharray:none;stroke-dashoffset:0;stroke-opacity:1"
     inkscape:connector-curvature="0"
     d="m 218.87452,53.535534 22.92893,22.928928"
     id="path126" /><path
     style="fill:none;stroke:#000000;stroke-width:1;stroke-linecap:butt;stroke-linejoin:miter;stroke-miterlimit:10;stroke-dasharray:none;stroke-dashoffset:0;stroke-opacity:1"
     inkscape:connector-curvature="0"
     d="m 290.33899,100 20,0"
     id="path132" /></svg>