<?xml version="1.0" standalone="no"?>

<svg 
     version="1.1"
     baseProfile="full"
     xmlns="http://www.w3.org/2000/svg"
     xmlns:xlink="http://www.w3.org/1999/xlink"
     xmlns:ev="http://www.w3.org/2001/xml-events"
     xmlns:klighd="http://de.cau.cs.kieler/klighd"
     xml:space="preserve"
     x="0px"
     y="0px"
     width="210px"
     height="78px"
     viewBox="0 0 210 78"
     >
<title></title>
<desc>Creator: FreeHEP Graphics2D Driver Producer: de.cau.cs.kieler.klighd.piccolo.freehep.SemanticSVGGraphics2D Revision Source:  Date: Wednesday, May 17, 2017 10:00:42 PM CEST</desc>
<g stroke-linejoin="miter" stroke-dashoffset="0" stroke-dasharray="none" stroke-width="1" stroke-miterlimit="10" stroke-linecap="square">
<g fill-opacity="1" fill-rule="nonzero" stroke="none" fill="#ffffff">
  <path d="M 0 0 L 209.9999942779541 0 L 209.9999942779541 77.6440372467041 L 0 77.6440372467041 L 0 0 z"/>
</g>
<defs>
  <linearGradient id="gradient-0" gradientUnits="objectBoundingBox" gradientTransform="rotate(90.0)" >
    <stop offset="0" stop-color="#ebf6fa" opacity-stop="1.0" />
    <stop offset="1" stop-color="#c4e3f3" opacity-stop="1.0" />
  </linearGradient>
</defs>
<g stroke="url(#gradient-0)">
<g transform="matrix(1, 0, 0, 1, 0, 30.000001907348633)">
<g fill-opacity="1" fill-rule="nonzero" stroke="none" fill="url(#gradient-0)">
  <path d="M 0.5 5 L 0.5 5 C 0.5 7.4852813742385695 2.51471862576143 9.5 5 9.5 L 5 9.5 C 7.4852813742385695 9.5 9.5 7.4852813742385695 9.5 5 L 9.5 5 C 9.5 2.51471862576143 7.4852813742385695 0.5 5 0.5 L 5 0.5 C 2.51471862576143 0.5 0.5 2.51471862576143 0.5 5 z"/>
</g>
</g>
<g transform="matrix(1, 0, 0, 1, 0, 30.000001907348633)">
<g stroke-linecap="butt" fill="none" stroke-opacity="1" stroke="#000000">
  <path d="M 0.5 5 L 0.5 5 C 0.5 7.4852813742385695 2.51471862576143 9.5 5 9.5 L 5 9.5 C 7.4852813742385695 9.5 9.5 7.4852813742385695 9.5 5 L 9.5 5 C 9.5 2.51471862576143 7.4852813742385695 0.5 5 0.5 L 5 0.5 C 2.51471862576143 0.5 0.5 2.51471862576143 0.5 5 z"/>
</g>
</g>
<g stroke="url(#gradient-0)">
<g transform="matrix(1, 0, 0, 1, 40.00000190734863, 30.000001907348633)">
<g fill-opacity="1" fill-rule="nonzero" stroke="none" fill="url(#gradient-0)">
  <path d="M 0.5 5 L 0.5 5 C 0.5 7.4852813742385695 2.51471862576143 9.5 5 9.5 L 5 9.5 C 7.4852813742385695 9.5 9.5 7.4852813742385695 9.5 5 L 9.5 5 C 9.5 2.51471862576143 7.4852813742385695 0.5 5 0.5 L 5 0.5 C 2.51471862576143 0.5 0.5 2.51471862576143 0.5 5 z"/>
</g>
</g>
<g transform="matrix(1, 0, 0, 1, 40.00000190734863, 30.000001907348633)">
<g stroke-linecap="butt" fill="none" stroke-opacity="1" stroke="#000000">
  <path d="M 0.5 5 L 0.5 5 C 0.5 7.4852813742385695 2.51471862576143 9.5 5 9.5 L 5 9.5 C 7.4852813742385695 9.5 9.5 7.4852813742385695 9.5 5 L 9.5 5 C 9.5 2.51471862576143 7.4852813742385695 0.5 5 0.5 L 5 0.5 C 2.51471862576143 0.5 0.5 2.51471862576143 0.5 5 z"/>
</g>
</g>
<g stroke="url(#gradient-0)">
<g transform="matrix(1, 0, 0, 1, 40.00000190734863, 60.00000190734863)">
<g fill-opacity="1" fill-rule="nonzero" stroke="none" fill="url(#gradient-0)">
  <path d="M 0.5 5 L 0.5 5 C 0.5 7.4852813742385695 2.51471862576143 9.5 5 9.5 L 5 9.5 C 7.4852813742385695 9.5 9.5 7.4852813742385695 9.5 5 L 9.5 5 C 9.5 2.51471862576143 7.4852813742385695 0.5 5 0.5 L 5 0.5 C 2.51471862576143 0.5 0.5 2.51471862576143 0.5 5 z"/>
</g>
</g>
<g transform="matrix(1, 0, 0, 1, 40.00000190734863, 60.00000190734863)">
<g stroke-linecap="butt" fill="none" stroke-opacity="1" stroke="#000000">
  <path d="M 0.5 5 L 0.5 5 C 0.5 7.4852813742385695 2.51471862576143 9.5 5 9.5 L 5 9.5 C 7.4852813742385695 9.5 9.5 7.4852813742385695 9.5 5 L 9.5 5 C 9.5 2.51471862576143 7.4852813742385695 0.5 5 0.5 L 5 0.5 C 2.51471862576143 0.5 0.5 2.51471862576143 0.5 5 z"/>
</g>
</g>
<g stroke="url(#gradient-0)">
<g transform="matrix(1, 0, 0, 1, 80.00000190734863, 60.00000190734863)">
<g fill-opacity="1" fill-rule="nonzero" stroke="none" fill="url(#gradient-0)">
  <path d="M 0.5 5 L 0.5 5 C 0.5 7.4852813742385695 2.51471862576143 9.5 5 9.5 L 5 9.5 C 7.4852813742385695 9.5 9.5 7.4852813742385695 9.5 5 L 9.5 5 C 9.5 2.51471862576143 7.4852813742385695 0.5 5 0.5 L 5 0.5 C 2.51471862576143 0.5 0.5 2.51471862576143 0.5 5 z"/>
</g>
</g>
<g transform="matrix(1, 0, 0, 1, 80.00000190734863, 60.00000190734863)">
<g stroke-linecap="butt" fill="none" stroke-opacity="1" stroke="#000000">
  <path d="M 0.5 5 L 0.5 5 C 0.5 7.4852813742385695 2.51471862576143 9.5 5 9.5 L 5 9.5 C 7.4852813742385695 9.5 9.5 7.4852813742385695 9.5 5 L 9.5 5 C 9.5 2.51471862576143 7.4852813742385695 0.5 5 0.5 L 5 0.5 C 2.51471862576143 0.5 0.5 2.51471862576143 0.5 5 z"/>
</g>
</g>
<g stroke="url(#gradient-0)">
<g transform="matrix(1, 0, 0, 1, 80.00000190734863, 40.00000190734863)">
<g fill-opacity="1" fill-rule="nonzero" stroke="none" fill="url(#gradient-0)">
  <path d="M 0.5 5 L 0.5 5 C 0.5 7.4852813742385695 2.51471862576143 9.5 5 9.5 L 5 9.5 C 7.4852813742385695 9.5 9.5 7.4852813742385695 9.5 5 L 9.5 5 C 9.5 2.51471862576143 7.4852813742385695 0.5 5 0.5 L 5 0.5 C 2.51471862576143 0.5 0.5 2.51471862576143 0.5 5 z"/>
</g>
</g>
<g transform="matrix(1, 0, 0, 1, 80.00000190734863, 40.00000190734863)">
<g stroke-linecap="butt" fill="none" stroke-opacity="1" stroke="#000000">
  <path d="M 0.5 5 L 0.5 5 C 0.5 7.4852813742385695 2.51471862576143 9.5 5 9.5 L 5 9.5 C 7.4852813742385695 9.5 9.5 7.4852813742385695 9.5 5 L 9.5 5 C 9.5 2.51471862576143 7.4852813742385695 0.5 5 0.5 L 5 0.5 C 2.51471862576143 0.5 0.5 2.51471862576143 0.5 5 z"/>
</g>
</g>
<g stroke="url(#gradient-0)">
<g transform="matrix(1, 0, 0, 1, 119.9999942779541, 60.00000190734863)">
<g fill-opacity="1" fill-rule="nonzero" stroke="none" fill="url(#gradient-0)">
  <path d="M 0.5 5 L 0.5 5 C 0.5 7.4852813742385695 2.51471862576143 9.5 5 9.5 L 5 9.5 C 7.4852813742385695 9.5 9.5 7.4852813742385695 9.5 5 L 9.5 5 C 9.5 2.51471862576143 7.4852813742385695 0.5 5 0.5 L 5 0.5 C 2.51471862576143 0.5 0.5 2.51471862576143 0.5 5 z"/>
</g>
</g>
<g transform="matrix(1, 0, 0, 1, 119.9999942779541, 60.00000190734863)">
<g stroke-linecap="butt" fill="none" stroke-opacity="1" stroke="#000000">
  <path d="M 0.5 5 L 0.5 5 C 0.5 7.4852813742385695 2.51471862576143 9.5 5 9.5 L 5 9.5 C 7.4852813742385695 9.5 9.5 7.4852813742385695 9.5 5 L 9.5 5 C 9.5 2.51471862576143 7.4852813742385695 0.5 5 0.5 L 5 0.5 C 2.51471862576143 0.5 0.5 2.51471862576143 0.5 5 z"/>
</g>
</g>
<g stroke="url(#gradient-0)">
<g transform="matrix(1, 0, 0, 1, 119.9999942779541, 20)">
<g fill-opacity="1" fill-rule="nonzero" stroke="none" fill="url(#gradient-0)">
  <path d="M 0.5 5 L 0.5 5 C 0.5 7.4852813742385695 2.51471862576143 9.5 5 9.5 L 5 9.5 C 7.4852813742385695 9.5 9.5 7.4852813742385695 9.5 5 L 9.5 5 C 9.5 2.51471862576143 7.4852813742385695 0.5 5 0.5 L 5 0.5 C 2.51471862576143 0.5 0.5 2.51471862576143 0.5 5 z"/>
</g>
</g>
<g transform="matrix(1, 0, 0, 1, 119.9999942779541, 20)">
<g stroke-linecap="butt" fill="none" stroke-opacity="1" stroke="#000000">
  <path d="M 0.5 5 L 0.5 5 C 0.5 7.4852813742385695 2.51471862576143 9.5 5 9.5 L 5 9.5 C 7.4852813742385695 9.5 9.5 7.4852813742385695 9.5 5 L 9.5 5 C 9.5 2.51471862576143 7.4852813742385695 0.5 5 0.5 L 5 0.5 C 2.51471862576143 0.5 0.5 2.51471862576143 0.5 5 z"/>
</g>
</g>
<g stroke="url(#gradient-0)">
<g transform="matrix(1, 0, 0, 1, 119.9999942779541, 40.00000190734863)">
<g fill-opacity="1" fill-rule="nonzero" stroke="none" fill="url(#gradient-0)">
  <path d="M 0.5 5 L 0.5 5 C 0.5 7.4852813742385695 2.51471862576143 9.5 5 9.5 L 5 9.5 C 7.4852813742385695 9.5 9.5 7.4852813742385695 9.5 5 L 9.5 5 C 9.5 2.51471862576143 7.4852813742385695 0.5 5 0.5 L 5 0.5 C 2.51471862576143 0.5 0.5 2.51471862576143 0.5 5 z"/>
</g>
</g>
<g transform="matrix(1, 0, 0, 1, 119.9999942779541, 40.00000190734863)">
<g stroke-linecap="butt" fill="none" stroke-opacity="1" stroke="#000000">
  <path d="M 0.5 5 L 0.5 5 C 0.5 7.4852813742385695 2.51471862576143 9.5 5 9.5 L 5 9.5 C 7.4852813742385695 9.5 9.5 7.4852813742385695 9.5 5 L 9.5 5 C 9.5 2.51471862576143 7.4852813742385695 0.5 5 0.5 L 5 0.5 C 2.51471862576143 0.5 0.5 2.51471862576143 0.5 5 z"/>
</g>
</g>
<g stroke="url(#gradient-0)">
<g transform="matrix(1, 0, 0, 1, 119.9999942779541, 0)">
<g fill-opacity="1" fill-rule="nonzero" stroke="none" fill="url(#gradient-0)">
  <path d="M 0.5 5 L 0.5 5 C 0.5 7.4852813742385695 2.51471862576143 9.5 5 9.5 L 5 9.5 C 7.4852813742385695 9.5 9.5 7.4852813742385695 9.5 5 L 9.5 5 C 9.5 2.51471862576143 7.4852813742385695 0.5 5 0.5 L 5 0.5 C 2.51471862576143 0.5 0.5 2.51471862576143 0.5 5 z"/>
</g>
</g>
<g transform="matrix(1, 0, 0, 1, 119.9999942779541, 0)">
<g stroke-linecap="butt" fill="none" stroke-opacity="1" stroke="#000000">
  <path d="M 0.5 5 L 0.5 5 C 0.5 7.4852813742385695 2.51471862576143 9.5 5 9.5 L 5 9.5 C 7.4852813742385695 9.5 9.5 7.4852813742385695 9.5 5 L 9.5 5 C 9.5 2.51471862576143 7.4852813742385695 0.5 5 0.5 L 5 0.5 C 2.51471862576143 0.5 0.5 2.51471862576143 0.5 5 z"/>
</g>
</g>
<g stroke="url(#gradient-0)">
<g transform="matrix(1, 0, 0, 1, 159.9999942779541, 39.00000190734863)">
<g fill-opacity="1" fill-rule="nonzero" stroke="none" fill="url(#gradient-0)">
  <path d="M 0.5 5 L 0.5 5 C 0.5 7.4852813742385695 2.51471862576143 9.5 5 9.5 L 5 9.5 C 7.4852813742385695 9.5 9.5 7.4852813742385695 9.5 5 L 9.5 5 C 9.5 2.51471862576143 7.4852813742385695 0.5 5 0.5 L 5 0.5 C 2.51471862576143 0.5 0.5 2.51471862576143 0.5 5 z"/>
</g>
</g>
<g transform="matrix(1, 0, 0, 1, 159.9999942779541, 39.00000190734863)">
<g stroke-linecap="butt" fill="none" stroke-opacity="1" stroke="#000000">
  <path d="M 0.5 5 L 0.5 5 C 0.5 7.4852813742385695 2.51471862576143 9.5 5 9.5 L 5 9.5 C 7.4852813742385695 9.5 9.5 7.4852813742385695 9.5 5 L 9.5 5 C 9.5 2.51471862576143 7.4852813742385695 0.5 5 0.5 L 5 0.5 C 2.51471862576143 0.5 0.5 2.51471862576143 0.5 5 z"/>
</g>
</g>
<g stroke="url(#gradient-0)">
<g transform="matrix(1, 0, 0, 1, 159.9999942779541, 19)">
<g fill-opacity="1" fill-rule="nonzero" stroke="none" fill="url(#gradient-0)">
  <path d="M 0.5 5 L 0.5 5 C 0.5 7.4852813742385695 2.51471862576143 9.5 5 9.5 L 5 9.5 C 7.4852813742385695 9.5 9.5 7.4852813742385695 9.5 5 L 9.5 5 C 9.5 2.51471862576143 7.4852813742385695 0.5 5 0.5 L 5 0.5 C 2.51471862576143 0.5 0.5 2.51471862576143 0.5 5 z"/>
</g>
</g>
<g transform="matrix(1, 0, 0, 1, 159.9999942779541, 19)">
<g stroke-linecap="butt" fill="none" stroke-opacity="1" stroke="#000000">
  <path d="M 0.5 5 L 0.5 5 C 0.5 7.4852813742385695 2.51471862576143 9.5 5 9.5 L 5 9.5 C 7.4852813742385695 9.5 9.5 7.4852813742385695 9.5 5 L 9.5 5 C 9.5 2.51471862576143 7.4852813742385695 0.5 5 0.5 L 5 0.5 C 2.51471862576143 0.5 0.5 2.51471862576143 0.5 5 z"/>
</g>
</g>
<g stroke="url(#gradient-0)">
<g transform="matrix(1, 0, 0, 1, 199.9999942779541, 39.00000190734863)">
<g fill-opacity="1" fill-rule="nonzero" stroke="none" fill="url(#gradient-0)">
  <path d="M 0.5 5 L 0.5 5 C 0.5 7.4852813742385695 2.51471862576143 9.5 5 9.5 L 5 9.5 C 7.4852813742385695 9.5 9.5 7.4852813742385695 9.5 5 L 9.5 5 C 9.5 2.51471862576143 7.4852813742385695 0.5 5 0.5 L 5 0.5 C 2.51471862576143 0.5 0.5 2.51471862576143 0.5 5 z"/>
</g>
</g>
<g transform="matrix(1, 0, 0, 1, 199.9999942779541, 39.00000190734863)">
<g stroke-linecap="butt" fill="none" stroke-opacity="1" stroke="#000000">
  <path d="M 0.5 5 L 0.5 5 C 0.5 7.4852813742385695 2.51471862576143 9.5 5 9.5 L 5 9.5 C 7.4852813742385695 9.5 9.5 7.4852813742385695 9.5 5 L 9.5 5 C 9.5 2.51471862576143 7.4852813742385695 0.5 5 0.5 L 5 0.5 C 2.51471862576143 0.5 0.5 2.51471862576143 0.5 5 z"/>
</g>
</g>
<g transform="matrix(1, 0, 0, 1, -11.999959945678711, -11.999959945678711)">
<g stroke-linecap="butt" fill="none" stroke-opacity="1" stroke="#000000">
  <path d="M 21.99995994567871 47 C 29.266000747680664 47 44.19200134277344 47 51.999961853027344 46.999996185302734"/>
</g>
</g>
<g transform="matrix(0.9999999999999919, -0.00000012715656769678, 0.00000012715656769678, 0.9999999999999919, 32.00000152587899, 32.00003725687659)">
<g fill-opacity="1" fill-rule="nonzero" stroke="none" fill="#000000">
  <path d="M 0 0 L 3.200000047683716 3 L 0 6 L 8 3 z"/>
</g>
</g>
<g transform="matrix(0.9999999999999919, -0.00000012715656769678, 0.00000012715656769678, 0.9999999999999919, 32.00000152587899, 32.00003725687659)">
<g stroke-linejoin="round" stroke-linecap="butt" fill="none" stroke-opacity="1" stroke="#000000">
  <path d="M 0 0 L 3.200000047683716 3 L 0 6 L 8 3 z"/>
</g>
</g>
<g transform="matrix(1, 0, 0, 1, -11.999959945678711, -11.999959945678711)">
<g stroke-linecap="butt" fill="none" stroke-opacity="1" stroke="#000000">
  <path d="M 61.22333526611328 49.676361083984375 C 69.26599884033203 55.89400100708008 84.19200134277344 67.6780014038086 92.79403686523438 74.29621887207031"/>
</g>
</g>
<g transform="matrix(0.7885663818123806, 0.6149496414141006, -0.6149496414141006, 0.7885663818123806, 76.33039480616783, 55.010962628010205)">
<g fill-opacity="1" fill-rule="nonzero" stroke="none" fill="#000000">
  <path d="M 0 0 L 3.200000047683716 3 L 0 6 L 8 3 z"/>
</g>
</g>
<g transform="matrix(0.7885663818123806, 0.6149496414141006, -0.6149496414141006, 0.7885663818123806, 76.33039480616783, 55.010962628010205)">
<g stroke-linejoin="round" stroke-linecap="butt" fill="none" stroke-opacity="1" stroke="#000000">
  <path d="M 0 0 L 3.200000047683716 3 L 0 6 L 8 3 z"/>
</g>
</g>
<g transform="matrix(1, 0, 0, 1, -11.999959945678711, -11.999959945678711)">
<g stroke-linecap="butt" fill="none" stroke-opacity="1" stroke="#000000">
  <path d="M 61.999961853027344 77 C 69.26599884033203 77 84.19200134277344 77 91.99996185302734 77"/>
</g>
</g>
<g transform="matrix(1, 0, 0, 1, 72.00000190734863, 62.00004005432129)">
<g fill-opacity="1" fill-rule="nonzero" stroke="none" fill="#000000">
  <path d="M 0 0 L 3.200000047683716 3 L 0 6 L 8 3 z"/>
</g>
</g>
<g transform="matrix(1, 0, 0, 1, 72.00000190734863, 62.00004005432129)">
<g stroke-linejoin="round" stroke-linecap="butt" fill="none" stroke-opacity="1" stroke="#000000">
  <path d="M 0 0 L 3.200000047683716 3 L 0 6 L 8 3 z"/>
</g>
</g>
<g transform="matrix(1, 0, 0, 1, -11.999959945678711, -11.999959945678711)">
<g stroke-linecap="butt" fill="none" stroke-opacity="1" stroke="#000000">
  <path d="M 61.60602951049805 75.05467987060547 C 69.26599884033203 71.07099914550781 84.19200134277344 63.21500015258789 92.40434265136719 58.96980285644531"/>
</g>
</g>
<g transform="matrix(0.8863936552404487, -0.46293227144958976, 0.46293227144958976, 0.8863936552404487, 71.92443664599348, 48.01412011008853)">
<g fill-opacity="1" fill-rule="nonzero" stroke="none" fill="#000000">
  <path d="M 0 0 L 3.200000047683716 3 L 0 6 L 8 3 z"/>
</g>
</g>
<g transform="matrix(0.8863936552404487, -0.46293227144958976, 0.46293227144958976, 0.8863936552404487, 71.92443664599348, 48.01412011008853)">
<g stroke-linejoin="round" stroke-linecap="butt" fill="none" stroke-opacity="1" stroke="#000000">
  <path d="M 0 0 L 3.200000047683716 3 L 0 6 L 8 3 z"/>
</g>
</g>
<g transform="matrix(1, 0, 0, 1, -11.999959945678711, -11.999959945678711)">
<g stroke-linecap="butt" fill="none" stroke-opacity="1" stroke="#000000">
  <path d="M 101.99996185302734 77 C 109.26599884033203 77 124.19000244140625 77 131.9999542236328 77"/>
</g>
</g>
<g transform="matrix(1, 0, 0, 1, 111.9999942779541, 62.00004005432129)">
<g fill-opacity="1" fill-rule="nonzero" stroke="none" fill="#000000">
  <path d="M 0 0 L 3.200000047683716 3 L 0 6 L 8 3 z"/>
</g>
</g>
<g transform="matrix(1, 0, 0, 1, 111.9999942779541, 62.00004005432129)">
<g stroke-linejoin="round" stroke-linecap="butt" fill="none" stroke-opacity="1" stroke="#000000">
  <path d="M 0 0 L 3.200000047683716 3 L 0 6 L 8 3 z"/>
</g>
</g>
<g transform="matrix(1, 0, 0, 1, -11.999959945678711, -11.999959945678711)">
<g stroke-linecap="butt" fill="none" stroke-opacity="1" stroke="#000000">
  <path d="M 61.76124954223633 78.52642822265625 C 68.68199920654297 81.11900329589844 81.03800201416016 85.4209976196289 92 87 C 106.88700103759766 89.14399719238281 124.19000244140625 82.4469985961914 132.3363800048828 78.80301666259766"/>
</g>
</g>
<g transform="matrix(0.9258969101186427, -0.37777627219394017, 0.37777627219394017, 0.9258969101186427, 111.79591595140757, 67.04757613895455)">
<g fill-opacity="1" fill-rule="nonzero" stroke="none" fill="#000000">
  <path d="M 0 0 L 3.200000047683716 3 L 0 6 L 8 3 z"/>
</g>
</g>
<g transform="matrix(0.9258969101186427, -0.37777627219394017, 0.37777627219394017, 0.9258969101186427, 111.79591595140757, 67.04757613895455)">
<g stroke-linejoin="round" stroke-linecap="butt" fill="none" stroke-opacity="1" stroke="#000000">
  <path d="M 0 0 L 3.200000047683716 3 L 0 6 L 8 3 z"/>
</g>
</g>
<g transform="matrix(1, 0, 0, 1, -11.999959945678711, -11.999959945678711)">
<g stroke-linecap="butt" fill="none" stroke-opacity="1" stroke="#000000">
  <path d="M 61.97335433959961 46.4848518371582 C 75.73699951171875 44.72600173950195 118.20999908447266 39.279998779296875 132.026611328125 37.51547622680664"/>
</g>
</g>
<g transform="matrix(0.9919027442662006, -0.12699978707533432, 0.12699978707533432, 0.9919027442662006, 111.71043006551106, 23.555806332594805)">
<g fill-opacity="1" fill-rule="nonzero" stroke="none" fill="#000000">
  <path d="M 0 0 L 3.200000047683716 3 L 0 6 L 8 3 z"/>
</g>
</g>
<g transform="matrix(0.9919027442662006, -0.12699978707533432, 0.12699978707533432, 0.9919027442662006, 111.71043006551106, 23.555806332594805)">
<g stroke-linejoin="round" stroke-linecap="butt" fill="none" stroke-opacity="1" stroke="#000000">
  <path d="M 0 0 L 3.200000047683716 3 L 0 6 L 8 3 z"/>
</g>
</g>
<g transform="matrix(1, 0, 0, 1, -11.999959945678711, -11.999959945678711)">
<g stroke-linecap="butt" fill="none" stroke-opacity="1" stroke="#000000">
  <path d="M 101.99996185302734 57 C 109.26599884033203 57 124.19000244140625 57 131.9999542236328 56.999996185302734"/>
</g>
</g>
<g transform="matrix(0.9999999999999919, -0.00000012715661032935, 0.00000012715661032935, 0.9999999999999919, 111.99999389648434, 42.00003725687692)">
<g fill-opacity="1" fill-rule="nonzero" stroke="none" fill="#000000">
  <path d="M 0 0 L 3.200000047683716 3 L 0 6 L 8 3 z"/>
</g>
</g>
<g transform="matrix(0.9999999999999919, -0.00000012715661032935, 0.00000012715661032935, 0.9999999999999919, 111.99999389648434, 42.00003725687692)">
<g stroke-linejoin="round" stroke-linecap="butt" fill="none" stroke-opacity="1" stroke="#000000">
  <path d="M 0 0 L 3.200000047683716 3 L 0 6 L 8 3 z"/>
</g>
</g>
<g transform="matrix(1, 0, 0, 1, -11.999959945678711, -11.999959945678711)">
<g stroke-linecap="butt" fill="none" stroke-opacity="1" stroke="#000000">
  <path d="M 100.81932067871094 53.77312088012695 C 109.34200286865234 45.06100082397461 124.51000213623047 29.094999313354492 133.18798828125 20.235525131225586"/>
</g>
</g>
<g transform="matrix(0.6944561523496342, -0.7195350251820558, 0.7195350251820558, 0.6944561523496342, 113.47377403024707, 11.908476919356179)">
<g fill-opacity="1" fill-rule="nonzero" stroke="none" fill="#000000">
  <path d="M 0 0 L 3.200000047683716 3 L 0 6 L 8 3 z"/>
</g>
</g>
<g transform="matrix(0.6944561523496342, -0.7195350251820558, 0.7195350251820558, 0.6944561523496342, 113.47377403024707, 11.908476919356179)">
<g stroke-linejoin="round" stroke-linecap="butt" fill="none" stroke-opacity="1" stroke="#000000">
  <path d="M 0 0 L 3.200000047683716 3 L 0 6 L 8 3 z"/>
</g>
</g>
<g transform="matrix(1, 0, 0, 1, -11.999959945678711, -11.999959945678711)">
<g stroke-linecap="butt" fill="none" stroke-opacity="1" stroke="#000000">
  <path d="M 141.57115173339844 74.97408294677734 C 149.27000427246094 70.77400207519531 164.19000244140625 62.5260009765625 172.4398956298828 58.0507698059082"/>
</g>
</g>
<g transform="matrix(0.8768687927330853, -0.4807297789099627, 0.4807297789099627, 0.8768687927330853, 151.98279602566421, 47.26604174989042)">
<g fill-opacity="1" fill-rule="nonzero" stroke="none" fill="#000000">
  <path d="M 0 0 L 3.200000047683716 3 L 0 6 L 8 3 z"/>
</g>
</g>
<g transform="matrix(0.8768687927330853, -0.4807297789099627, 0.4807297789099627, 0.8768687927330853, 151.98279602566421, 47.26604174989042)">
<g stroke-linejoin="round" stroke-linecap="butt" fill="none" stroke-opacity="1" stroke="#000000">
  <path d="M 0 0 L 3.200000047683716 3 L 0 6 L 8 3 z"/>
</g>
</g>
<g transform="matrix(1, 0, 0, 1, -11.999959945678711, -11.999959945678711)">
<g stroke-linecap="butt" fill="none" stroke-opacity="1" stroke="#000000">
  <path d="M 141.64076232910156 38.860877990722656 C 149.27000427246094 42.632999420166016 164.19000244140625 50.09600067138672 172.3686065673828 54.11565017700195"/>
</g>
</g>
<g transform="matrix(0.8956962342325558, 0.4446664547518944, -0.4446664547518944, 0.8956962342325558, 154.53707612355026, 35.871269867544676)">
<g fill-opacity="1" fill-rule="nonzero" stroke="none" fill="#000000">
  <path d="M 0 0 L 3.200000047683716 3 L 0 6 L 8 3 z"/>
</g>
</g>
<g transform="matrix(0.8956962342325558, 0.4446664547518944, -0.4446664547518944, 0.8956962342325558, 154.53707612355026, 35.871269867544676)">
<g stroke-linejoin="round" stroke-linecap="butt" fill="none" stroke-opacity="1" stroke="#000000">
  <path d="M 0 0 L 3.200000047683716 3 L 0 6 L 8 3 z"/>
</g>
</g>
<g transform="matrix(1, 0, 0, 1, -11.999959945678711, -11.999959945678711)">
<g stroke-linecap="butt" fill="none" stroke-opacity="1" stroke="#000000">
  <path d="M 141.99884033203125 36.894500732421875 C 149.27000427246094 36.70399856567383 164.19000244140625 36.31100082397461 172.0010986328125 36.106651306152344"/>
</g>
</g>
<g transform="matrix(0.9996553930682099, -0.026250621128700743, 0.026250621128700743, 0.9996553930682099, 151.9251436792234, 21.31773015111377)">
<g fill-opacity="1" fill-rule="nonzero" stroke="none" fill="#000000">
  <path d="M 0 0 L 3.200000047683716 3 L 0 6 L 8 3 z"/>
</g>
</g>
<g transform="matrix(0.9996553930682099, -0.026250621128700743, 0.026250621128700743, 0.9996553930682099, 151.9251436792234, 21.31773015111377)">
<g stroke-linejoin="round" stroke-linecap="butt" fill="none" stroke-opacity="1" stroke="#000000">
  <path d="M 0 0 L 3.200000047683716 3 L 0 6 L 8 3 z"/>
</g>
</g>
<g transform="matrix(1, 0, 0, 1, -11.999959945678711, -11.999959945678711)">
<g stroke-linecap="butt" fill="none" stroke-opacity="1" stroke="#000000">
  <path d="M 141.64065551757812 18.861114501953125 C 149.27000427246094 22.632999420166016 164.19000244140625 30.09600067138672 172.3686065673828 34.11565017700195"/>
</g>
</g>
<g transform="matrix(0.895699586986634, 0.4446597012007872, -0.4446597012007872, 0.895699586986634, 154.53702902348985, 15.871313872689115)">
<g fill-opacity="1" fill-rule="nonzero" stroke="none" fill="#000000">
  <path d="M 0 0 L 3.200000047683716 3 L 0 6 L 8 3 z"/>
</g>
</g>
<g transform="matrix(0.895699586986634, 0.4446597012007872, -0.4446597012007872, 0.895699586986634, 154.53702902348985, 15.871313872689115)">
<g stroke-linejoin="round" stroke-linecap="butt" fill="none" stroke-opacity="1" stroke="#000000">
  <path d="M 0 0 L 3.200000047683716 3 L 0 6 L 8 3 z"/>
</g>
</g>
<g transform="matrix(1, 0, 0, 1, -11.999959945678711, -11.999959945678711)">
<g stroke-linecap="butt" fill="none" stroke-opacity="1" stroke="#000000">
  <path d="M 141.91236877441406 76.06817626953125 C 149.9600067138672 74.1709976196289 167.41000366210938 69.96700286865234 182 66 C 192.69000244140625 63.09400177001953 205.14999389648438 59.33100128173828 212.15074157714844 57.2186164855957"/>
</g>
</g>
<g transform="matrix(0.9601076345384676, -0.27963070307272814, 0.27963070307272814, 0.9601076345384676, 191.63102845108358, 44.57537927853077)">
<g fill-opacity="1" fill-rule="nonzero" stroke="none" fill="#000000">
  <path d="M 0 0 L 3.200000047683716 3 L 0 6 L 8 3 z"/>
</g>
</g>
<g transform="matrix(0.9601076345384676, -0.27963070307272814, 0.27963070307272814, 0.9601076345384676, 191.63102845108358, 44.57537927853077)">
<g stroke-linejoin="round" stroke-linecap="butt" fill="none" stroke-opacity="1" stroke="#000000">
  <path d="M 0 0 L 3.200000047683716 3 L 0 6 L 8 3 z"/>
</g>
</g>
<g transform="matrix(1, 0, 0, 1, -11.999959945678711, -11.999959945678711)">
<g stroke-linecap="butt" fill="none" stroke-opacity="1" stroke="#000000">
  <path d="M 181.9999542236328 56 C 189.27000427246094 56 204.19000244140625 56 211.9999542236328 55.999996185302734"/>
</g>
</g>
<g transform="matrix(0.9999999999999919, -0.00000012715658190764, 0.00000012715658190764, 0.9999999999999919, 191.99999389648443, 41.00003725687669)">
<g fill-opacity="1" fill-rule="nonzero" stroke="none" fill="#000000">
  <path d="M 0 0 L 3.200000047683716 3 L 0 6 L 8 3 z"/>
</g>
</g>
<g transform="matrix(0.9999999999999919, -0.00000012715658190764, 0.00000012715658190764, 0.9999999999999919, 191.99999389648443, 41.00003725687669)">
<g stroke-linejoin="round" stroke-linecap="butt" fill="none" stroke-opacity="1" stroke="#000000">
  <path d="M 0 0 L 3.200000047683716 3 L 0 6 L 8 3 z"/>
</g>
</g>
<g transform="matrix(1, 0, 0, 1, -11.999959945678711, -11.999959945678711)">
<g stroke-linecap="butt" fill="none" stroke-opacity="1" stroke="#000000">
  <path d="M 141.99789428710938 17.143779754638672 C 150.5500030517578 17.598600387573242 168.60000610351562 19.322200775146484 182 26 C 194.39999389648438 32.18000030517578 205.82000732421875 44.04199981689453 213.42958068847656 52.4996223449707"/>
</g>
</g>
<g transform="matrix(0.7024095447053721, 0.7117730196535914, -0.7117730196535914, 0.7024095447053721, 197.94566345328812, 32.698249598895345)">
<g fill-opacity="1" fill-rule="nonzero" stroke="none" fill="#000000">
  <path d="M 0 0 L 3.200000047683716 3 L 0 6 L 8 3 z"/>
</g>
</g>
<g transform="matrix(0.7024095447053721, 0.7117730196535914, -0.7117730196535914, 0.7024095447053721, 197.94566345328812, 32.698249598895345)">
<g stroke-linejoin="round" stroke-linecap="butt" fill="none" stroke-opacity="1" stroke="#000000">
  <path d="M 0 0 L 3.200000047683716 3 L 0 6 L 8 3 z"/>
</g>
</g>
</g>
</g>
</g>
</g>
</g>
</g>
</g>
</g>
</g>
</g>
</g>
</g>
</g>
</svg>
