<?xml version="1.0" standalone="no"?>

<svg 
     version="1.1"
     baseProfile="full"
     xmlns="http://www.w3.org/2000/svg"
     xmlns:xlink="http://www.w3.org/1999/xlink"
     xmlns:ev="http://www.w3.org/2001/xml-events"
     xmlns:klighd="http://de.cau.cs.kieler/klighd"
     xml:space="preserve"
     x="0px"
     y="0px"
     width="163px"
     height="110px"
     viewBox="0 0 163 110"
     >
<title></title>
<desc>Creator: FreeHEP Graphics2D Driver Producer: de.cau.cs.kieler.klighd.piccolo.freehep.SemanticSVGGraphics2D Revision Source:  Date: Wednesday, May 17, 2017 10:17:20 PM CEST</desc>
<g stroke-linejoin="miter" stroke-dashoffset="0" stroke-dasharray="none" stroke-width="1" stroke-miterlimit="10" stroke-linecap="square">
<g fill-opacity="1" fill-rule="nonzero" stroke="none" fill="#ffffff">
  <path d="M 0 0 L 163.46199989318848 0 L 163.46199989318848 109.71399688720703 L 0 109.71399688720703 L 0 0 z"/>
</g>
<defs>
  <linearGradient id="gradient-0" gradientUnits="objectBoundingBox" gradientTransform="rotate(90.0)" >
    <stop offset="0" stop-color="#ebf6fa" opacity-stop="1.0" />
    <stop offset="1" stop-color="#c4e3f3" opacity-stop="1.0" />
  </linearGradient>
</defs>
<g stroke="url(#gradient-0)">
<g transform="matrix(1, 0, 0, 1, 0, 12.251960754394531)">
<g fill-opacity="1" fill-rule="nonzero" stroke="none" fill="url(#gradient-0)">
  <path d="M 0.5 5 L 0.5 5 C 0.5 7.4852813742385695 2.51471862576143 9.5 5 9.5 L 5 9.5 C 7.4852813742385695 9.5 9.5 7.4852813742385695 9.5 5 L 9.5 5 C 9.5 2.51471862576143 7.4852813742385695 0.5 5 0.5 L 5 0.5 C 2.51471862576143 0.5 0.5 2.51471862576143 0.5 5 z"/>
</g>
</g>
<g transform="matrix(1, 0, 0, 1, 0, 12.251960754394531)">
<g stroke-linecap="butt" fill="none" stroke-opacity="1" stroke="#000000">
  <path d="M 0.5 5 L 0.5 5 C 0.5 7.4852813742385695 2.51471862576143 9.5 5 9.5 L 5 9.5 C 7.4852813742385695 9.5 9.5 7.4852813742385695 9.5 5 L 9.5 5 C 9.5 2.51471862576143 7.4852813742385695 0.5 5 0.5 L 5 0.5 C 2.51471862576143 0.5 0.5 2.51471862576143 0.5 5 z"/>
</g>
</g>
<g stroke="url(#gradient-0)">
<g transform="matrix(1, 0, 0, 1, 24.51999855041504, 43.20795822143555)">
<g fill-opacity="1" fill-rule="nonzero" stroke="none" fill="url(#gradient-0)">
  <path d="M 0.5 5 L 0.5 5 C 0.5 7.4852813742385695 2.51471862576143 9.5 5 9.5 L 5 9.5 C 7.4852813742385695 9.5 9.5 7.4852813742385695 9.5 5 L 9.5 5 C 9.5 2.51471862576143 7.4852813742385695 0.5 5 0.5 L 5 0.5 C 2.51471862576143 0.5 0.5 2.51471862576143 0.5 5 z"/>
</g>
</g>
<g transform="matrix(1, 0, 0, 1, 24.51999855041504, 43.20795822143555)">
<g stroke-linecap="butt" fill="none" stroke-opacity="1" stroke="#000000">
  <path d="M 0.5 5 L 0.5 5 C 0.5 7.4852813742385695 2.51471862576143 9.5 5 9.5 L 5 9.5 C 7.4852813742385695 9.5 9.5 7.4852813742385695 9.5 5 L 9.5 5 C 9.5 2.51471862576143 7.4852813742385695 0.5 5 0.5 L 5 0.5 C 2.51471862576143 0.5 0.5 2.51471862576143 0.5 5 z"/>
</g>
</g>
<g stroke="url(#gradient-0)">
<g transform="matrix(1, 0, 0, 1, 140.96599769592285, 4.20796012878418)">
<g fill-opacity="1" fill-rule="nonzero" stroke="none" fill="url(#gradient-0)">
  <path d="M 0.5 5 L 0.5 5 C 0.5 7.4852813742385695 2.51471862576143 9.5 5 9.5 L 5 9.5 C 7.4852813742385695 9.5 9.5 7.4852813742385695 9.5 5 L 9.5 5 C 9.5 2.51471862576143 7.4852813742385695 0.5 5 0.5 L 5 0.5 C 2.51471862576143 0.5 0.5 2.51471862576143 0.5 5 z"/>
</g>
</g>
<g transform="matrix(1, 0, 0, 1, 140.96599769592285, 4.20796012878418)">
<g stroke-linecap="butt" fill="none" stroke-opacity="1" stroke="#000000">
  <path d="M 0.5 5 L 0.5 5 C 0.5 7.4852813742385695 2.51471862576143 9.5 5 9.5 L 5 9.5 C 7.4852813742385695 9.5 9.5 7.4852813742385695 9.5 5 L 9.5 5 C 9.5 2.51471862576143 7.4852813742385695 0.5 5 0.5 L 5 0.5 C 2.51471862576143 0.5 0.5 2.51471862576143 0.5 5 z"/>
</g>
</g>
<g stroke="url(#gradient-0)">
<g transform="matrix(1, 0, 0, 1, 49.41000175476074, 5.050960540771484)">
<g fill-opacity="1" fill-rule="nonzero" stroke="none" fill="url(#gradient-0)">
  <path d="M 0.5 5 L 0.5 5 C 0.5 7.4852813742385695 2.51471862576143 9.5 5 9.5 L 5 9.5 C 7.4852813742385695 9.5 9.5 7.4852813742385695 9.5 5 L 9.5 5 C 9.5 2.51471862576143 7.4852813742385695 0.5 5 0.5 L 5 0.5 C 2.51471862576143 0.5 0.5 2.51471862576143 0.5 5 z"/>
</g>
</g>
<g transform="matrix(1, 0, 0, 1, 49.41000175476074, 5.050960540771484)">
<g stroke-linecap="butt" fill="none" stroke-opacity="1" stroke="#000000">
  <path d="M 0.5 5 L 0.5 5 C 0.5 7.4852813742385695 2.51471862576143 9.5 5 9.5 L 5 9.5 C 7.4852813742385695 9.5 9.5 7.4852813742385695 9.5 5 L 9.5 5 C 9.5 2.51471862576143 7.4852813742385695 0.5 5 0.5 L 5 0.5 C 2.51471862576143 0.5 0.5 2.51471862576143 0.5 5 z"/>
</g>
</g>
<g stroke="url(#gradient-0)">
<g transform="matrix(1, 0, 0, 1, 111.08999824523926, 48.56415939331055)">
<g fill-opacity="1" fill-rule="nonzero" stroke="none" fill="url(#gradient-0)">
  <path d="M 0.5 5 L 0.5 5 C 0.5 7.4852813742385695 2.51471862576143 9.5 5 9.5 L 5 9.5 C 7.4852813742385695 9.5 9.5 7.4852813742385695 9.5 5 L 9.5 5 C 9.5 2.51471862576143 7.4852813742385695 0.5 5 0.5 L 5 0.5 C 2.51471862576143 0.5 0.5 2.51471862576143 0.5 5 z"/>
</g>
</g>
<g transform="matrix(1, 0, 0, 1, 111.08999824523926, 48.56415939331055)">
<g stroke-linecap="butt" fill="none" stroke-opacity="1" stroke="#000000">
  <path d="M 0.5 5 L 0.5 5 C 0.5 7.4852813742385695 2.51471862576143 9.5 5 9.5 L 5 9.5 C 7.4852813742385695 9.5 9.5 7.4852813742385695 9.5 5 L 9.5 5 C 9.5 2.51471862576143 7.4852813742385695 0.5 5 0.5 L 5 0.5 C 2.51471862576143 0.5 0.5 2.51471862576143 0.5 5 z"/>
</g>
</g>
<g stroke="url(#gradient-0)">
<g transform="matrix(1, 0, 0, 1, 90.68799781799316, 11.099960327148438)">
<g fill-opacity="1" fill-rule="nonzero" stroke="none" fill="url(#gradient-0)">
  <path d="M 0.5 5 L 0.5 5 C 0.5 7.4852813742385695 2.51471862576143 9.5 5 9.5 L 5 9.5 C 7.4852813742385695 9.5 9.5 7.4852813742385695 9.5 5 L 9.5 5 C 9.5 2.51471862576143 7.4852813742385695 0.5 5 0.5 L 5 0.5 C 2.51471862576143 0.5 0.5 2.51471862576143 0.5 5 z"/>
</g>
</g>
<g transform="matrix(1, 0, 0, 1, 90.68799781799316, 11.099960327148438)">
<g stroke-linecap="butt" fill="none" stroke-opacity="1" stroke="#000000">
  <path d="M 0.5 5 L 0.5 5 C 0.5 7.4852813742385695 2.51471862576143 9.5 5 9.5 L 5 9.5 C 7.4852813742385695 9.5 9.5 7.4852813742385695 9.5 5 L 9.5 5 C 9.5 2.51471862576143 7.4852813742385695 0.5 5 0.5 L 5 0.5 C 2.51471862576143 0.5 0.5 2.51471862576143 0.5 5 z"/>
</g>
</g>
<g stroke="url(#gradient-0)">
<g transform="matrix(1, 0, 0, 1, 1.9300003051757812, 82.52195739746094)">
<g fill-opacity="1" fill-rule="nonzero" stroke="none" fill="url(#gradient-0)">
  <path d="M 0.5 5 L 0.5 5 C 0.5 7.4852813742385695 2.51471862576143 9.5 5 9.5 L 5 9.5 C 7.4852813742385695 9.5 9.5 7.4852813742385695 9.5 5 L 9.5 5 C 9.5 2.51471862576143 7.4852813742385695 0.5 5 0.5 L 5 0.5 C 2.51471862576143 0.5 0.5 2.51471862576143 0.5 5 z"/>
</g>
</g>
<g transform="matrix(1, 0, 0, 1, 1.9300003051757812, 82.52195739746094)">
<g stroke-linecap="butt" fill="none" stroke-opacity="1" stroke="#000000">
  <path d="M 0.5 5 L 0.5 5 C 0.5 7.4852813742385695 2.51471862576143 9.5 5 9.5 L 5 9.5 C 7.4852813742385695 9.5 9.5 7.4852813742385695 9.5 5 L 9.5 5 C 9.5 2.51471862576143 7.4852813742385695 0.5 5 0.5 L 5 0.5 C 2.51471862576143 0.5 0.5 2.51471862576143 0.5 5 z"/>
</g>
</g>
<g stroke="url(#gradient-0)">
<g transform="matrix(1, 0, 0, 1, 153.46199989318848, 44.06595993041992)">
<g fill-opacity="1" fill-rule="nonzero" stroke="none" fill="url(#gradient-0)">
  <path d="M 0.5 5 L 0.5 5 C 0.5 7.4852813742385695 2.51471862576143 9.5 5 9.5 L 5 9.5 C 7.4852813742385695 9.5 9.5 7.4852813742385695 9.5 5 L 9.5 5 C 9.5 2.51471862576143 7.4852813742385695 0.5 5 0.5 L 5 0.5 C 2.51471862576143 0.5 0.5 2.51471862576143 0.5 5 z"/>
</g>
</g>
<g transform="matrix(1, 0, 0, 1, 153.46199989318848, 44.06595993041992)">
<g stroke-linecap="butt" fill="none" stroke-opacity="1" stroke="#000000">
  <path d="M 0.5 5 L 0.5 5 C 0.5 7.4852813742385695 2.51471862576143 9.5 5 9.5 L 5 9.5 C 7.4852813742385695 9.5 9.5 7.4852813742385695 9.5 5 L 9.5 5 C 9.5 2.51471862576143 7.4852813742385695 0.5 5 0.5 L 5 0.5 C 2.51471862576143 0.5 0.5 2.51471862576143 0.5 5 z"/>
</g>
</g>
<g stroke="url(#gradient-0)">
<g transform="matrix(1, 0, 0, 1, 145.65000343322754, 89.59996032714844)">
<g fill-opacity="1" fill-rule="nonzero" stroke="none" fill="url(#gradient-0)">
  <path d="M 0.5 5 L 0.5 5 C 0.5 7.4852813742385695 2.51471862576143 9.5 5 9.5 L 5 9.5 C 7.4852813742385695 9.5 9.5 7.4852813742385695 9.5 5 L 9.5 5 C 9.5 2.51471862576143 7.4852813742385695 0.5 5 0.5 L 5 0.5 C 2.51471862576143 0.5 0.5 2.51471862576143 0.5 5 z"/>
</g>
</g>
<g transform="matrix(1, 0, 0, 1, 145.65000343322754, 89.59996032714844)">
<g stroke-linecap="butt" fill="none" stroke-opacity="1" stroke="#000000">
  <path d="M 0.5 5 L 0.5 5 C 0.5 7.4852813742385695 2.51471862576143 9.5 5 9.5 L 5 9.5 C 7.4852813742385695 9.5 9.5 7.4852813742385695 9.5 5 L 9.5 5 C 9.5 2.51471862576143 7.4852813742385695 0.5 5 0.5 L 5 0.5 C 2.51471862576143 0.5 0.5 2.51471862576143 0.5 5 z"/>
</g>
</g>
<g stroke="url(#gradient-0)">
<g transform="matrix(1, 0, 0, 1, 63.06199836730957, 54.31404113769531)">
<g fill-opacity="1" fill-rule="nonzero" stroke="none" fill="url(#gradient-0)">
  <path d="M 0.5 5 L 0.5 5 C 0.5 7.4852813742385695 2.51471862576143 9.5 5 9.5 L 5 9.5 C 7.4852813742385695 9.5 9.5 7.4852813742385695 9.5 5 L 9.5 5 C 9.5 2.51471862576143 7.4852813742385695 0.5 5 0.5 L 5 0.5 C 2.51471862576143 0.5 0.5 2.51471862576143 0.5 5 z"/>
</g>
</g>
<g transform="matrix(1, 0, 0, 1, 63.06199836730957, 54.31404113769531)">
<g stroke-linecap="butt" fill="none" stroke-opacity="1" stroke="#000000">
  <path d="M 0.5 5 L 0.5 5 C 0.5 7.4852813742385695 2.51471862576143 9.5 5 9.5 L 5 9.5 C 7.4852813742385695 9.5 9.5 7.4852813742385695 9.5 5 L 9.5 5 C 9.5 2.51471862576143 7.4852813742385695 0.5 5 0.5 L 5 0.5 C 2.51471862576143 0.5 0.5 2.51471862576143 0.5 5 z"/>
</g>
</g>
<g stroke="url(#gradient-0)">
<g transform="matrix(1, 0, 0, 1, 49.38599967956543, 93.40995788574219)">
<g fill-opacity="1" fill-rule="nonzero" stroke="none" fill="url(#gradient-0)">
  <path d="M 0.5 5 L 0.5 5 C 0.5 7.4852813742385695 2.51471862576143 9.5 5 9.5 L 5 9.5 C 7.4852813742385695 9.5 9.5 7.4852813742385695 9.5 5 L 9.5 5 C 9.5 2.51471862576143 7.4852813742385695 0.5 5 0.5 L 5 0.5 C 2.51471862576143 0.5 0.5 2.51471862576143 0.5 5 z"/>
</g>
</g>
<g transform="matrix(1, 0, 0, 1, 49.38599967956543, 93.40995788574219)">
<g stroke-linecap="butt" fill="none" stroke-opacity="1" stroke="#000000">
  <path d="M 0.5 5 L 0.5 5 C 0.5 7.4852813742385695 2.51471862576143 9.5 5 9.5 L 5 9.5 C 7.4852813742385695 9.5 9.5 7.4852813742385695 9.5 5 L 9.5 5 C 9.5 2.51471862576143 7.4852813742385695 0.5 5 0.5 L 5 0.5 C 2.51471862576143 0.5 0.5 2.51471862576143 0.5 5 z"/>
</g>
</g>
<g stroke="url(#gradient-0)">
<g transform="matrix(1, 0, 0, 1, 96.4330005645752, 89.27796173095703)">
<g fill-opacity="1" fill-rule="nonzero" stroke="none" fill="url(#gradient-0)">
  <path d="M 0.5 5 L 0.5 5 C 0.5 7.4852813742385695 2.51471862576143 9.5 5 9.5 L 5 9.5 C 7.4852813742385695 9.5 9.5 7.4852813742385695 9.5 5 L 9.5 5 C 9.5 2.51471862576143 7.4852813742385695 0.5 5 0.5 L 5 0.5 C 2.51471862576143 0.5 0.5 2.51471862576143 0.5 5 z"/>
</g>
</g>
<g transform="matrix(1, 0, 0, 1, 96.4330005645752, 89.27796173095703)">
<g stroke-linecap="butt" fill="none" stroke-opacity="1" stroke="#000000">
  <path d="M 0.5 5 L 0.5 5 C 0.5 7.4852813742385695 2.51471862576143 9.5 5 9.5 L 5 9.5 C 7.4852813742385695 9.5 9.5 7.4852813742385695 9.5 5 L 9.5 5 C 9.5 2.51471862576143 7.4852813742385695 0.5 5 0.5 L 5 0.5 C 2.51471862576143 0.5 0.5 2.51471862576143 0.5 5 z"/>
</g>
</g>
<g transform="matrix(1, 0, 0, 1, -11.999959945678711, -11.5)">
<g stroke-linecap="butt" fill="none" stroke-opacity="1" stroke="#000000">
  <path d="M 20.104421615600586 32.67144012451172 L 25.618999481201172 39.63399887084961 L 33.00699996948242 48.96099853515625 L 38.415008544921875 55.78886795043945"/>
</g>
</g>
<g transform="matrix(0.6208872895357497, 0.783899849274734, -0.783899849274734, 0.6208872895357497, 23.799649871711996, 36.15500725521526)">
<g fill-opacity="1" fill-rule="nonzero" stroke="none" fill="#000000">
  <path d="M 0 0 L 3.200000047683716 3 L 0 6 L 8 3 z"/>
</g>
</g>
<g transform="matrix(0.6208872895357497, 0.783899849274734, -0.783899849274734, 0.6208872895357497, 23.799649871711996, 36.15500725521526)">
<g stroke-linejoin="round" stroke-linecap="butt" fill="none" stroke-opacity="1" stroke="#000000">
  <path d="M 0 0 L 3.200000047683716 3 L 0 6 L 8 3 z"/>
</g>
</g>
<g transform="matrix(1, 0, 0, 1, -11.999959945678711, -11.5)">
<g stroke-linecap="butt" fill="none" stroke-opacity="1" stroke="#000000">
  <path d="M 44.252010345458984 55.52037048339844 L 49.78900146484375 47.03099822998047 L 58.43000030517578 33.78499984741211 L 63.67843246459961 25.738889694213867"/>
</g>
</g>
<g transform="matrix(0.5463385551273772, -0.8375644352414505, 0.8375644352414505, 0.5463385551273772, 44.79507078577573, 19.300389519633363)">
<g fill-opacity="1" fill-rule="nonzero" stroke="none" fill="#000000">
  <path d="M 0 0 L 3.200000047683716 3 L 0 6 L 8 3 z"/>
</g>
</g>
<g transform="matrix(0.5463385551273772, -0.8375644352414505, 0.8375644352414505, 0.5463385551273772, 44.79507078577573, 19.300389519633363)">
<g stroke-linejoin="round" stroke-linecap="butt" fill="none" stroke-opacity="1" stroke="#000000">
  <path d="M 0 0 L 3.200000047683716 3 L 0 6 L 8 3 z"/>
</g>
</g>
<g transform="matrix(1, 0, 0, 1, -11.999959945678711, -11.5)">
<g stroke-linecap="butt" fill="none" stroke-opacity="1" stroke="#000000">
  <path d="M 153.1071014404297 19.52837371826172 L 141.8459930419922 16.961999893188477 L 116.16300201416016 12 L 94.6875991821289 14.600000381469727 L 86.45690155029297 15.597000122070312 L 77.16699981689453 18.170000076293945 L 71.16790008544922 20.014070510864258"/>
</g>
</g>
<g transform="matrix(-0.955859859907094, 0.29382295386574386, -0.29382295386574386, -0.955859859907094, 67.69628790837524, 9.031066549937833)">
<g fill-opacity="1" fill-rule="nonzero" stroke="none" fill="#000000">
  <path d="M 0 0 L 3.200000047683716 3 L 0 6 L 8 3 z"/>
</g>
</g>
<g transform="matrix(-0.955859859907094, 0.29382295386574386, -0.29382295386574386, -0.955859859907094, 67.69628790837524, 9.031066549937833)">
<g stroke-linejoin="round" stroke-linecap="butt" fill="none" stroke-opacity="1" stroke="#000000">
  <path d="M 0 0 L 3.200000047683716 3 L 0 6 L 8 3 z"/>
</g>
</g>
<g transform="matrix(1, 0, 0, 1, -11.999959945678711, -11.5)">
<g stroke-linecap="butt" fill="none" stroke-opacity="1" stroke="#000000">
  <path d="M 155.17259216308594 24.854900360107422 L 148.7760009765625 34.35300064086914 L 137.21299743652344 51.51900100708008 L 130.88299560546875 60.916996002197266"/>
</g>
</g>
<g transform="matrix(-0.5586453848800708, 0.829406615570552, -0.829406615570552, -0.5586453848800708, 125.84041841925115, 44.45767912026798)">
<g fill-opacity="1" fill-rule="nonzero" stroke="none" fill="#000000">
  <path d="M 0 0 L 3.200000047683716 3 L 0 6 L 8 3 z"/>
</g>
</g>
<g transform="matrix(-0.5586453848800708, 0.829406615570552, -0.829406615570552, -0.5586453848800708, 125.84041841925115, 44.45767912026798)">
<g stroke-linejoin="round" stroke-linecap="butt" fill="none" stroke-opacity="1" stroke="#000000">
  <path d="M 0 0 L 3.200000047683716 3 L 0 6 L 8 3 z"/>
</g>
</g>
<g transform="matrix(1, 0, 0, 1, -11.999959945678711, -11.5)">
<g stroke-linecap="butt" fill="none" stroke-opacity="1" stroke="#000000">
  <path d="M 71.35708618164062 22.276155471801758 L 79.39399719238281 23.45400047302246 L 94.63719940185547 25.687999725341797 L 102.74067687988281 26.87578773498535"/>
</g>
</g>
<g transform="matrix(0.9894275672741448, 0.14502789082782755, -0.14502789082782755, 0.9894275672741448, 83.26038006685857, 11.247281917700583)">
<g fill-opacity="1" fill-rule="nonzero" stroke="none" fill="#000000">
  <path d="M 0 0 L 3.200000047683716 3 L 0 6 L 8 3 z"/>
</g>
</g>
<g transform="matrix(0.9894275672741448, 0.14502789082782755, -0.14502789082782755, 0.9894275672741448, 83.26038006685857, 11.247281917700583)">
<g stroke-linejoin="round" stroke-linecap="butt" fill="none" stroke-opacity="1" stroke="#000000">
  <path d="M 0 0 L 3.200000047683716 3 L 0 6 L 8 3 z"/>
</g>
</g>
<g transform="matrix(1, 0, 0, 1, -11.999959945678711, -11.5)">
<g stroke-linecap="butt" fill="none" stroke-opacity="1" stroke="#000000">
  <path d="M 153.0122833251953 21.38697052001953 L 143.42300415039062 22.70199966430664 L 122.72599792480469 25.538999557495117 L 112.6417007446289 26.921382904052734"/>
</g>
</g>
<g transform="matrix(-0.9907345304905046, 0.13581270225483083, -0.13581270225483083, -0.9907345304905046, 108.97505516924141, 17.30708502048448)">
<g fill-opacity="1" fill-rule="nonzero" stroke="none" fill="#000000">
  <path d="M 0 0 L 3.200000047683716 3 L 0 6 L 8 3 z"/>
</g>
</g>
<g transform="matrix(-0.9907345304905046, 0.13581270225483083, -0.13581270225483083, -0.9907345304905046, 108.97505516924141, 17.30708502048448)">
<g stroke-linejoin="round" stroke-linecap="butt" fill="none" stroke-opacity="1" stroke="#000000">
  <path d="M 0 0 L 3.200000047683716 3 L 0 6 L 8 3 z"/>
</g>
</g>
<g transform="matrix(1, 0, 0, 1, -11.999959945678711, -11.5)">
<g stroke-linecap="butt" fill="none" stroke-opacity="1" stroke="#000000">
  <path d="M 39.028594970703125 64.04306030273438 L 34.26100158691406 72.3407974243164 L 26.302000045776367 86.19200134277344 L 21.4211483001709 94.68675994873047"/>
</g>
</g>
<g transform="matrix(-0.4981922940469732, 0.8670665707730942, -0.8670665707730942, -0.4981922940469732, 16.00792643834567, 77.74480427569452)">
<g fill-opacity="1" fill-rule="nonzero" stroke="none" fill="#000000">
  <path d="M 0 0 L 3.200000047683716 3 L 0 6 L 8 3 z"/>
</g>
</g>
<g transform="matrix(-0.4981922940469732, 0.8670665707730942, -0.8670665707730942, -0.4981922940469732, 16.00792643834567, 77.74480427569452)">
<g stroke-linejoin="round" stroke-linecap="butt" fill="none" stroke-opacity="1" stroke="#000000">
  <path d="M 0 0 L 3.200000047683716 3 L 0 6 L 8 3 z"/>
</g>
</g>
<g transform="matrix(1, 0, 0, 1, -11.999959945678711, -11.5)">
<g stroke-linecap="butt" fill="none" stroke-opacity="1" stroke="#000000">
  <path d="M 133.06204223632812 64.53646850585938 L 141.41799926757812 63.64929962158203 L 157.06500244140625 61.98820114135742 L 165.48989868164062 61.0938606262207"/>
</g>
</g>
<g transform="matrix(0.9944127895545867, -0.10556137537122921, 0.10556137537122921, 0.9944127895545867, 145.2179522937103, 47.455113263341325)">
<g fill-opacity="1" fill-rule="nonzero" stroke="none" fill="#000000">
  <path d="M 0 0 L 3.200000047683716 3 L 0 6 L 8 3 z"/>
</g>
</g>
<g transform="matrix(0.9944127895545867, -0.10556137537122921, 0.10556137537122921, 0.9944127895545867, 145.2179522937103, 47.455113263341325)">
<g stroke-linejoin="round" stroke-linecap="butt" fill="none" stroke-opacity="1" stroke="#000000">
  <path d="M 0 0 L 3.200000047683716 3 L 0 6 L 8 3 z"/>
</g>
</g>
<g transform="matrix(1, 0, 0, 1, -11.999959945678711, -11.5)">
<g stroke-linecap="butt" fill="none" stroke-opacity="1" stroke="#000000">
  <path d="M 131.3109588623047 68.88844299316406 L 138.96099853515625 77.9718017578125 L 151.7239990234375 93.1259994506836 L 159.42929077148438 102.27539825439453"/>
</g>
</g>
<g transform="matrix(0.6441618886699005, 0.7648891822906284, -0.7648891822906284, 0.6441618886699005, 144.57070322611764, 82.72379916138887)">
<g fill-opacity="1" fill-rule="nonzero" stroke="none" fill="#000000">
  <path d="M 0 0 L 3.200000047683716 3 L 0 6 L 8 3 z"/>
</g>
</g>
<g transform="matrix(0.6441618886699005, 0.7648891822906284, -0.7648891822906284, 0.6441618886699005, 144.57070322611764, 82.72379916138887)">
<g stroke-linejoin="round" stroke-linecap="butt" fill="none" stroke-opacity="1" stroke="#000000">
  <path d="M 0 0 L 3.200000047683716 3 L 0 6 L 8 3 z"/>
</g>
</g>
<g transform="matrix(1, 0, 0, 1, -11.999959945678711, -11.5)">
<g stroke-linecap="butt" fill="none" stroke-opacity="1" stroke="#000000">
  <path d="M 104.99462127685547 31.81255340576172 L 98.94029998779297 41.28300094604492 L 88.57369995117188 57.499000549316406 L 82.75497436523438 66.60124206542969"/>
</g>
</g>
<g transform="matrix(-0.5386130564507945, 0.8425532478251637, -0.8425532478251637, -0.5386130564507945, 77.59157861730294, 49.976655253884665)">
<g fill-opacity="1" fill-rule="nonzero" stroke="none" fill="#000000">
  <path d="M 0 0 L 3.200000047683716 3 L 0 6 L 8 3 z"/>
</g>
</g>
<g transform="matrix(-0.5386130564507945, 0.8425532478251637, -0.8425532478251637, -0.5386130564507945, 77.59157861730294, 49.976655253884665)">
<g stroke-linejoin="round" stroke-linecap="butt" fill="none" stroke-opacity="1" stroke="#000000">
  <path d="M 0 0 L 3.200000047683716 3 L 0 6 L 8 3 z"/>
</g>
</g>
<g transform="matrix(1, 0, 0, 1, -11.999959945678711, -11.5)">
<g stroke-linecap="butt" fill="none" stroke-opacity="1" stroke="#000000">
  <path d="M 23.469955444335938 96.9271011352539 L 35.69200134277344 91.28800201416016 L 63.32600021362305 78.5365982055664 L 75.52197265625 72.90892791748047"/>
</g>
</g>
<g transform="matrix(0.9079945038848947, -0.41898207708066015, 0.41898207708066015, 0.9079945038848947, 55.0011104373467, 62.03680099884172)">
<g fill-opacity="1" fill-rule="nonzero" stroke="none" fill="#000000">
  <path d="M 0 0 L 3.200000047683716 3 L 0 6 L 8 3 z"/>
</g>
</g>
<g transform="matrix(0.9079945038848947, -0.41898207708066015, 0.41898207708066015, 0.9079945038848947, 55.0011104373467, 62.03680099884172)">
<g stroke-linejoin="round" stroke-linecap="butt" fill="none" stroke-opacity="1" stroke="#000000">
  <path d="M 0 0 L 3.200000047683716 3 L 0 6 L 8 3 z"/>
</g>
</g>
<g transform="matrix(1, 0, 0, 1, -11.999959945678711, -11.5)">
<g stroke-linecap="butt" fill="none" stroke-opacity="1" stroke="#000000">
  <path d="M 23.80339241027832 100.13983917236328 L 33.095001220703125 102.27200317382812 L 52.0369987487793 106.61799621582031 L 61.51240158081055 108.7926254272461"/>
</g>
</g>
<g transform="matrix(0.9746609868292652, 0.22368719398526882, -0.22368719398526882, 0.9746609868292652, 42.38621532161686, 92.57914491852168)">
<g fill-opacity="1" fill-rule="nonzero" stroke="none" fill="#000000">
  <path d="M 0 0 L 3.200000047683716 3 L 0 6 L 8 3 z"/>
</g>
</g>
<g transform="matrix(0.9746609868292652, 0.22368719398526882, -0.22368719398526882, 0.9746609868292652, 42.38621532161686, 92.57914491852168)">
<g stroke-linejoin="round" stroke-linecap="butt" fill="none" stroke-opacity="1" stroke="#000000">
  <path d="M 0 0 L 3.200000047683716 3 L 0 6 L 8 3 z"/>
</g>
</g>
<g transform="matrix(1, 0, 0, 1, -11.999959945678711, -11.5)">
<g stroke-linecap="butt" fill="none" stroke-opacity="1" stroke="#000000">
  <path d="M 158.12796020507812 108.2333755493164 L 150.7760009765625 111.55799865722656 L 137.99200439453125 116.81300354003906 L 126.43299865722656 118.77799987792969 L 115.04100036621094 120.71399688720703 L 111.8949966430664 120.24600219726562 L 100.43329620361328 118.77799987792969 L 90.01246643066406 117.44300079345703 L 78.2249984741211 113.89900207519531 L 71.11144256591797 111.5439224243164"/>
</g>
</g>
<g transform="matrix(-0.9493261003058258, -0.31429278591487464, 0.31429278591487464, -0.9493261003058258, 65.76321312561413, 105.4062428292895)">
<g fill-opacity="1" fill-rule="nonzero" stroke="none" fill="#000000">
  <path d="M 0 0 L 3.200000047683716 3 L 0 6 L 8 3 z"/>
</g>
</g>
<g transform="matrix(-0.9493261003058258, -0.31429278591487464, 0.31429278591487464, -0.9493261003058258, 65.76321312561413, 105.4062428292895)">
<g stroke-linejoin="round" stroke-linecap="butt" fill="none" stroke-opacity="1" stroke="#000000">
  <path d="M 0 0 L 3.200000047683716 3 L 0 6 L 8 3 z"/>
</g>
</g>
<g transform="matrix(1, 0, 0, 1, -11.999959945678711, -11.5)">
<g stroke-linecap="butt" fill="none" stroke-opacity="1" stroke="#000000">
  <path d="M 108.05445098876953 32.586509704589844 L 109.10299682617188 46.861000061035156 L 111.99800109863281 86.25199890136719 L 113.06643676757812 100.79141235351562"/>
</g>
</g>
<g transform="matrix(0.0732878392531699, 0.9973108304924813, -0.9973108304924813, 0.0732878392531699, 103.47210656262848, 81.09306219451489)">
<g fill-opacity="1" fill-rule="nonzero" stroke="none" fill="#000000">
  <path d="M 0 0 L 3.200000047683716 3 L 0 6 L 8 3 z"/>
</g>
</g>
<g transform="matrix(0.0732878392531699, 0.9973108304924813, -0.9973108304924813, 0.0732878392531699, 103.47210656262848, 81.09306219451489)">
<g stroke-linejoin="round" stroke-linecap="butt" fill="none" stroke-opacity="1" stroke="#000000">
  <path d="M 0 0 L 3.200000047683716 3 L 0 6 L 8 3 z"/>
</g>
</g>
<g transform="matrix(1, 0, 0, 1, -11.999959945678711, -11.5)">
<g stroke-linecap="butt" fill="none" stroke-opacity="1" stroke="#000000">
  <path d="M 83.51407623291016 74.43106842041016 L 91.22270202636719 82.50800323486328 L 101.91999816894531 93.71600341796875 L 109.9806137084961 102.16114807128906"/>
</g>
</g>
<g transform="matrix(0.6904462177647116, 0.7233837296859846, -0.7233837296859846, 0.6904462177647116, 94.62723521617646, 82.8027395743805)">
<g fill-opacity="1" fill-rule="nonzero" stroke="none" fill="#000000">
  <path d="M 0 0 L 3.200000047683716 3 L 0 6 L 8 3 z"/>
</g>
</g>
<g transform="matrix(0.6904462177647116, 0.7233837296859846, -0.7233837296859846, 0.6904462177647116, 94.62723521617646, 82.8027395743805)">
<g stroke-linejoin="round" stroke-linecap="butt" fill="none" stroke-opacity="1" stroke="#000000">
  <path d="M 0 0 L 3.200000047683716 3 L 0 6 L 8 3 z"/>
</g>
</g>
<g transform="matrix(1, 0, 0, 1, -11.999959945678711, -11.5)">
<g stroke-linecap="butt" fill="none" stroke-opacity="1" stroke="#000000">
  <path d="M 157.6500701904297 106.0667724609375 L 147.86099243164062 106.00299835205078 L 127.9000015258789 105.87200164794922 L 118.43285369873047 105.81046295166016"/>
</g>
</g>
<g transform="matrix(-0.999978874055706, -0.006500110943790829, 0.006500110943790829, -0.999978874055706, 114.41322441282391, 97.36240043709006)">
<g fill-opacity="1" fill-rule="nonzero" stroke="none" fill="#000000">
  <path d="M 0 0 L 3.200000047683716 3 L 0 6 L 8 3 z"/>
</g>
</g>
<g transform="matrix(-0.999978874055706, -0.006500110943790829, 0.006500110943790829, -0.999978874055706, 114.41322441282391, 97.36240043709006)">
<g stroke-linejoin="round" stroke-linecap="butt" fill="none" stroke-opacity="1" stroke="#000000">
  <path d="M 0 0 L 3.200000047683716 3 L 0 6 L 8 3 z"/>
</g>
</g>
</g>
</g>
</g>
</g>
</g>
</g>
</g>
</g>
</g>
</g>
</g>
</g>
</g>
</svg>
