<?xml version="1.0" standalone="no"?>

<svg 
     version="1.1"
     baseProfile="full"
     xmlns="http://www.w3.org/2000/svg"
     xmlns:xlink="http://www.w3.org/1999/xlink"
     xmlns:ev="http://www.w3.org/2001/xml-events"
     xmlns:klighd="http://de.cau.cs.kieler/klighd"
     xml:space="preserve"
     x="0px"
     y="0px"
     width="59px"
     height="64px"
     viewBox="0 0 59 64"
     >
<title></title>
<desc>Creator: FreeHEP Graphics2D Driver Producer: de.cau.cs.kieler.klighd.piccolo.freehep.SemanticSVGGraphics2D Revision Source:  Date: Friday, April 28, 2017 4:15:53 PM CEST</desc>
<g stroke-linejoin="miter" stroke-dashoffset="0" stroke-dasharray="none" stroke-width="1" stroke-miterlimit="10" stroke-linecap="square">
<g fill-opacity="1" fill-rule="nonzero" stroke="none" fill="#ffffff">
  <path d="M 0 0 L 59 0 L 59 64 L 0 64 L 0 0 z"/>
</g>
<defs>
  <linearGradient id="gradient-0" gradientUnits="objectBoundingBox" gradientTransform="rotate(90.0)" >
    <stop offset="0" stop-color="#ebf6fa" opacity-stop="1.0" />
    <stop offset="1" stop-color="#c4e3f3" opacity-stop="1.0" />
  </linearGradient>
</defs>
<g stroke="url(#gradient-0)">
<g transform="matrix(1, 0, 0, 1, 22, 34)">
<g fill-opacity="1" fill-rule="nonzero" stroke="none" fill="url(#gradient-0)">
  <path d="M 0.5 5.5 L 0.5 24.5 C 0.5 27.261423749153966 2.7385762508460334 29.5 5.5 29.5 L 24.5 29.5 C 27.261423749153966 29.5 29.5 27.261423749153966 29.5 24.5 L 29.5 5.5 C 29.5 2.7385762508460334 27.261423749153966 0.5 24.5 0.5 L 5.5 0.5 C 2.7385762508460334 0.5 0.5 2.7385762508460334 0.5 5.5 z"/>
</g>
</g>
<g transform="matrix(1, 0, 0, 1, 22, 34)">
<g stroke-linecap="butt" fill="none" stroke-opacity="1" stroke="#000000">
  <path d="M 0.5 5.5 L 0.5 24.5 C 0.5 27.261423749153966 2.7385762508460334 29.5 5.5 29.5 L 24.5 29.5 C 27.261423749153966 29.5 29.5 27.261423749153966 29.5 24.5 L 29.5 5.5 C 29.5 2.7385762508460334 27.261423749153966 0.5 24.5 0.5 L 5.5 0.5 C 2.7385762508460334 0.5 0.5 2.7385762508460334 0.5 5.5 z"/>
</g>
</g>
<g stroke="url(#gradient-0)">
<g transform="matrix(1, 0, 0, 1, 0, 34)">
<g fill-opacity="1" fill-rule="nonzero" stroke="none" fill="url(#gradient-0)">
  <path d="M 0.5 5.5 L 0.5 14.5 C 0.5 17.261423749153966 2.7385762508460334 19.5 5.5 19.5 L 14.5 19.5 C 17.261423749153966 19.5 19.5 17.261423749153966 19.5 14.5 L 19.5 5.5 C 19.5 2.7385762508460334 17.261423749153966 0.5 14.5 0.5 L 5.5 0.5 C 2.7385762508460334 0.5 0.5 2.7385762508460334 0.5 5.5 z"/>
</g>
</g>
<g transform="matrix(1, 0, 0, 1, 0, 34)">
<g stroke-linecap="butt" fill="none" stroke-opacity="1" stroke="#000000">
  <path d="M 0.5 5.5 L 0.5 14.5 C 0.5 17.261423749153966 2.7385762508460334 19.5 5.5 19.5 L 14.5 19.5 C 17.261423749153966 19.5 19.5 17.261423749153966 19.5 14.5 L 19.5 5.5 C 19.5 2.7385762508460334 17.261423749153966 0.5 14.5 0.5 L 5.5 0.5 C 2.7385762508460334 0.5 0.5 2.7385762508460334 0.5 5.5 z"/>
</g>
</g>
<g stroke="url(#gradient-0)">
<g transform="matrix(1, 0, 0, 1, 37, 13)">
<g fill-opacity="1" fill-rule="nonzero" stroke="none" fill="url(#gradient-0)">
  <path d="M 0.5 5.5 L 0.5 13.5 C 0.5 16.261423749153966 2.7385762508460334 18.5 5.5 18.5 L 13.5 18.5 C 16.261423749153966 18.5 18.5 16.261423749153966 18.5 13.5 L 18.5 5.5 C 18.5 2.7385762508460334 16.261423749153966 0.5 13.5 0.5 L 5.5 0.5 C 2.7385762508460334 0.5 0.5 2.7385762508460334 0.5 5.5 z"/>
</g>
</g>
<g transform="matrix(1, 0, 0, 1, 37, 13)">
<g stroke-linecap="butt" fill="none" stroke-opacity="1" stroke="#000000">
  <path d="M 0.5 5.5 L 0.5 13.5 C 0.5 16.261423749153966 2.7385762508460334 18.5 5.5 18.5 L 13.5 18.5 C 16.261423749153966 18.5 18.5 16.261423749153966 18.5 13.5 L 18.5 5.5 C 18.5 2.7385762508460334 16.261423749153966 0.5 13.5 0.5 L 5.5 0.5 C 2.7385762508460334 0.5 0.5 2.7385762508460334 0.5 5.5 z"/>
</g>
</g>
<g stroke="url(#gradient-0)">
<g transform="matrix(1, 0, 0, 1, 48, 0)">
<g fill-opacity="1" fill-rule="nonzero" stroke="none" fill="url(#gradient-0)">
  <path d="M 0.5 5.5 L 0.5 5.5 C 0.5 8.261423749153966 2.7385762508460334 10.5 5.5 10.5 L 5.5 10.5 C 8.261423749153966 10.5 10.5 8.261423749153966 10.5 5.5 L 10.5 5.5 C 10.5 2.7385762508460334 8.261423749153966 0.5 5.5 0.5 L 5.5 0.5 C 2.7385762508460334 0.5 0.5 2.7385762508460334 0.5 5.5 z"/>
</g>
</g>
<g transform="matrix(1, 0, 0, 1, 48, 0)">
<g stroke-linecap="butt" fill="none" stroke-opacity="1" stroke="#000000">
  <path d="M 0.5 5.5 L 0.5 5.5 C 0.5 8.261423749153966 2.7385762508460334 10.5 5.5 10.5 L 5.5 10.5 C 8.261423749153966 10.5 10.5 8.261423749153966 10.5 5.5 L 10.5 5.5 C 10.5 2.7385762508460334 8.261423749153966 0.5 5.5 0.5 L 5.5 0.5 C 2.7385762508460334 0.5 0.5 2.7385762508460334 0.5 5.5 z"/>
</g>
</g>
<g stroke="url(#gradient-0)">
<g fill-opacity="1" fill-rule="nonzero" stroke="none" fill="url(#gradient-0)">
  <path d="M 0.5 5 L 0.5 5 C 0.5 7.4852813742385695 2.51471862576143 9.5 5 9.5 L 5 9.5 C 7.4852813742385695 9.5 9.5 7.4852813742385695 9.5 5 L 9.5 5 C 9.5 2.51471862576143 7.4852813742385695 0.5 5 0.5 L 5 0.5 C 2.51471862576143 0.5 0.5 2.51471862576143 0.5 5 z"/>
</g>
<g stroke-linecap="butt" fill="none" stroke-opacity="1" stroke="#000000">
  <path d="M 0.5 5 L 0.5 5 C 0.5 7.4852813742385695 2.51471862576143 9.5 5 9.5 L 5 9.5 C 7.4852813742385695 9.5 9.5 7.4852813742385695 9.5 5 L 9.5 5 C 9.5 2.51471862576143 7.4852813742385695 0.5 5 0.5 L 5 0.5 C 2.51471862576143 0.5 0.5 2.51471862576143 0.5 5 z"/>
</g>
<g stroke="url(#gradient-0)">
<g transform="matrix(1, 0, 0, 1, 0, 13)">
<g fill-opacity="1" fill-rule="nonzero" stroke="none" fill="url(#gradient-0)">
  <path d="M 0.5 5.5 L 0.5 9.5 C 0.5 12.261423749153966 2.7385762508460334 14.5 5.5 14.5 L 9.5 14.5 C 12.261423749153966 14.5 14.5 12.261423749153966 14.5 9.5 L 14.5 5.5 C 14.5 2.7385762508460334 12.261423749153966 0.5 9.5 0.5 L 5.5 0.5 C 2.7385762508460334 0.5 0.5 2.7385762508460334 0.5 5.5 z"/>
</g>
</g>
<g transform="matrix(1, 0, 0, 1, 0, 13)">
<g stroke-linecap="butt" fill="none" stroke-opacity="1" stroke="#000000">
  <path d="M 0.5 5.5 L 0.5 9.5 C 0.5 12.261423749153966 2.7385762508460334 14.5 5.5 14.5 L 9.5 14.5 C 12.261423749153966 14.5 14.5 12.261423749153966 14.5 9.5 L 14.5 5.5 C 14.5 2.7385762508460334 12.261423749153966 0.5 9.5 0.5 L 5.5 0.5 C 2.7385762508460334 0.5 0.5 2.7385762508460334 0.5 5.5 z"/>
</g>
</g>
<g stroke="url(#gradient-0)">
<g transform="matrix(1, 0, 0, 1, 12, 0)">
<g fill-opacity="1" fill-rule="nonzero" stroke="none" fill="url(#gradient-0)">
  <path d="M 0.5 5 L 0.5 5 C 0.5 7.4852813742385695 2.51471862576143 9.5 5 9.5 L 5 9.5 C 7.4852813742385695 9.5 9.5 7.4852813742385695 9.5 5 L 9.5 5 C 9.5 2.51471862576143 7.4852813742385695 0.5 5 0.5 L 5 0.5 C 2.51471862576143 0.5 0.5 2.51471862576143 0.5 5 z"/>
</g>
</g>
<g transform="matrix(1, 0, 0, 1, 12, 0)">
<g stroke-linecap="butt" fill="none" stroke-opacity="1" stroke="#000000">
  <path d="M 0.5 5 L 0.5 5 C 0.5 7.4852813742385695 2.51471862576143 9.5 5 9.5 L 5 9.5 C 7.4852813742385695 9.5 9.5 7.4852813742385695 9.5 5 L 9.5 5 C 9.5 2.51471862576143 7.4852813742385695 0.5 5 0.5 L 5 0.5 C 2.51471862576143 0.5 0.5 2.51471862576143 0.5 5 z"/>
</g>
</g>
<g stroke="url(#gradient-0)">
<g transform="matrix(1, 0, 0, 1, 24, 0)">
<g fill-opacity="1" fill-rule="nonzero" stroke="none" fill="url(#gradient-0)">
  <path d="M 0.5 5 L 0.5 5 C 0.5 7.4852813742385695 2.51471862576143 9.5 5 9.5 L 5 9.5 C 7.4852813742385695 9.5 9.5 7.4852813742385695 9.5 5 L 9.5 5 C 9.5 2.51471862576143 7.4852813742385695 0.5 5 0.5 L 5 0.5 C 2.51471862576143 0.5 0.5 2.51471862576143 0.5 5 z"/>
</g>
</g>
<g transform="matrix(1, 0, 0, 1, 24, 0)">
<g stroke-linecap="butt" fill="none" stroke-opacity="1" stroke="#000000">
  <path d="M 0.5 5 L 0.5 5 C 0.5 7.4852813742385695 2.51471862576143 9.5 5 9.5 L 5 9.5 C 7.4852813742385695 9.5 9.5 7.4852813742385695 9.5 5 L 9.5 5 C 9.5 2.51471862576143 7.4852813742385695 0.5 5 0.5 L 5 0.5 C 2.51471862576143 0.5 0.5 2.51471862576143 0.5 5 z"/>
</g>
</g>
<g stroke="url(#gradient-0)">
<g transform="matrix(1, 0, 0, 1, 17, 13)">
<g fill-opacity="1" fill-rule="nonzero" stroke="none" fill="url(#gradient-0)">
  <path d="M 0.5 5.5 L 0.5 12.5 C 0.5 15.261423749153966 2.7385762508460334 17.5 5.5 17.5 L 12.5 17.5 C 15.261423749153966 17.5 17.5 15.261423749153966 17.5 12.5 L 17.5 5.5 C 17.5 2.7385762508460334 15.261423749153966 0.5 12.5 0.5 L 5.5 0.5 C 2.7385762508460334 0.5 0.5 2.7385762508460334 0.5 5.5 z"/>
</g>
</g>
<g transform="matrix(1, 0, 0, 1, 17, 13)">
<g stroke-linecap="butt" fill="none" stroke-opacity="1" stroke="#000000">
  <path d="M 0.5 5.5 L 0.5 12.5 C 0.5 15.261423749153966 2.7385762508460334 17.5 5.5 17.5 L 12.5 17.5 C 15.261423749153966 17.5 17.5 15.261423749153966 17.5 12.5 L 17.5 5.5 C 17.5 2.7385762508460334 15.261423749153966 0.5 12.5 0.5 L 5.5 0.5 C 2.7385762508460334 0.5 0.5 2.7385762508460334 0.5 5.5 z"/>
</g>
</g>
<g stroke="url(#gradient-0)">
<g transform="matrix(1, 0, 0, 1, 36, 0)">
<g fill-opacity="1" fill-rule="nonzero" stroke="none" fill="url(#gradient-0)">
  <path d="M 0.5 5 L 0.5 5 C 0.5 7.4852813742385695 2.51471862576143 9.5 5 9.5 L 5 9.5 C 7.4852813742385695 9.5 9.5 7.4852813742385695 9.5 5 L 9.5 5 C 9.5 2.51471862576143 7.4852813742385695 0.5 5 0.5 L 5 0.5 C 2.51471862576143 0.5 0.5 2.51471862576143 0.5 5 z"/>
</g>
</g>
<g transform="matrix(1, 0, 0, 1, 36, 0)">
<g stroke-linecap="butt" fill="none" stroke-opacity="1" stroke="#000000">
  <path d="M 0.5 5 L 0.5 5 C 0.5 7.4852813742385695 2.51471862576143 9.5 5 9.5 L 5 9.5 C 7.4852813742385695 9.5 9.5 7.4852813742385695 9.5 5 L 9.5 5 C 9.5 2.51471862576143 7.4852813742385695 0.5 5 0.5 L 5 0.5 C 2.51471862576143 0.5 0.5 2.51471862576143 0.5 5 z"/>
</g>
</g>
</g>
</g>
</g>
</g>
</g>
</g>
</g>
</g>
</g>
</g>
</g>
</svg>
