<?xml version="1.0" encoding="UTF-8" standalone="no"?>
<svg
   xmlns:dc="http://purl.org/dc/elements/1.1/"
   xmlns:cc="http://creativecommons.org/ns#"
   xmlns:rdf="http://www.w3.org/1999/02/22-rdf-syntax-ns#"
   xmlns:svg="http://www.w3.org/2000/svg"
   xmlns="http://www.w3.org/2000/svg"
   xmlns:xlink="http://www.w3.org/1999/xlink"
   xmlns:sodipodi="http://sodipodi.sourceforge.net/DTD/sodipodi-0.dtd"
   xmlns:inkscape="http://www.inkscape.org/namespaces/inkscape"
   version="1.1"
   xml:space="preserve"
   x="0px"
   y="0px"
   width="69"
   height="74"
   viewBox="0 0 69 74"
   id="svg2"
   inkscape:version="0.48.4 r9939"
   sodipodi:docname="Box.svg"
   inkscape:export-filename="D:\Uni\git-offtopic\elk\plugins\org.eclipse.elk.core\images\box_layout.png"
   inkscape:export-xdpi="200"
   inkscape:export-ydpi="200"><metadata
   id="metadata161"><rdf:RDF><cc:Work
       rdf:about=""><dc:format>image/svg+xml</dc:format><dc:type
         rdf:resource="http://purl.org/dc/dcmitype/StillImage" /><dc:title></dc:title></cc:Work></rdf:RDF></metadata><defs
   id="defs159"><linearGradient
   inkscape:collect="always"
   xlink:href="#gradient-0"
   id="linearGradient3140"
   gradientUnits="userSpaceOnUse"
   x1="0.5"
   y1="0.5"
   x2="29.5"
   y2="0.5" /><linearGradient
   inkscape:collect="always"
   xlink:href="#gradient-0"
   id="linearGradient3142"
   gradientUnits="userSpaceOnUse"
   x1="0.5"
   y1="0.5"
   x2="29.5"
   y2="0.5" /><linearGradient
   inkscape:collect="always"
   xlink:href="#gradient-0"
   id="linearGradient3144"
   gradientUnits="userSpaceOnUse"
   x1="0"
   y1="0"
   x2="30"
   y2="0" /><linearGradient
   inkscape:collect="always"
   xlink:href="#gradient-0"
   id="linearGradient3148"
   gradientUnits="userSpaceOnUse"
   x1="0.5"
   y1="0.5"
   x2="19.5"
   y2="0.5" /><linearGradient
   inkscape:collect="always"
   xlink:href="#gradient-0"
   id="linearGradient3150"
   gradientUnits="userSpaceOnUse"
   x1="0.5"
   y1="0.5"
   x2="19.5"
   y2="0.5" /><linearGradient
   inkscape:collect="always"
   xlink:href="#gradient-0"
   id="linearGradient3152"
   gradientUnits="userSpaceOnUse"
   x1="0"
   y1="0"
   x2="20"
   y2="0" /><linearGradient
   inkscape:collect="always"
   xlink:href="#gradient-0"
   id="linearGradient3156"
   gradientUnits="userSpaceOnUse"
   x1="0.5"
   y1="0.5"
   x2="18.5"
   y2="0.5" /><linearGradient
   inkscape:collect="always"
   xlink:href="#gradient-0"
   id="linearGradient3158"
   gradientUnits="userSpaceOnUse"
   x1="0.5"
   y1="0.5"
   x2="18.5"
   y2="0.5" /><linearGradient
   inkscape:collect="always"
   xlink:href="#gradient-0"
   id="linearGradient3160"
   gradientUnits="userSpaceOnUse"
   x1="0"
   y1="0"
   x2="19"
   y2="0" /><linearGradient
   inkscape:collect="always"
   xlink:href="#gradient-0"
   id="linearGradient3164"
   gradientUnits="userSpaceOnUse"
   x1="0.5"
   y1="0.5"
   x2="10.5"
   y2="0.5" /><linearGradient
   inkscape:collect="always"
   xlink:href="#gradient-0"
   id="linearGradient3166"
   gradientUnits="userSpaceOnUse"
   x1="0.5"
   y1="0.5"
   x2="10.5"
   y2="0.5" /><linearGradient
   inkscape:collect="always"
   xlink:href="#gradient-0"
   id="linearGradient3168"
   gradientUnits="userSpaceOnUse"
   x1="0"
   y1="0"
   x2="11"
   y2="0" /><linearGradient
   inkscape:collect="always"
   xlink:href="#gradient-0"
   id="linearGradient3172"
   gradientUnits="userSpaceOnUse"
   x1="0.5"
   y1="0.5"
   x2="9.5"
   y2="0.5" /><linearGradient
   inkscape:collect="always"
   xlink:href="#gradient-0"
   id="linearGradient3176"
   gradientUnits="userSpaceOnUse"
   x1="0.5"
   y1="0.5"
   x2="14.5"
   y2="0.5" /><linearGradient
   inkscape:collect="always"
   xlink:href="#gradient-0"
   id="linearGradient3178"
   gradientUnits="userSpaceOnUse"
   x1="0.5"
   y1="0.5"
   x2="14.5"
   y2="0.5" /><linearGradient
   inkscape:collect="always"
   xlink:href="#gradient-0"
   id="linearGradient3180"
   gradientUnits="userSpaceOnUse"
   x1="0"
   y1="0"
   x2="15"
   y2="0" /><linearGradient
   inkscape:collect="always"
   xlink:href="#gradient-0"
   id="linearGradient3184"
   gradientUnits="userSpaceOnUse"
   x1="0.5"
   y1="0.5"
   x2="9.5"
   y2="0.5" /><linearGradient
   inkscape:collect="always"
   xlink:href="#gradient-0"
   id="linearGradient3186"
   gradientUnits="userSpaceOnUse"
   x1="0.5"
   y1="0.5"
   x2="9.5"
   y2="0.5" /><linearGradient
   inkscape:collect="always"
   xlink:href="#gradient-0"
   id="linearGradient3188"
   gradientUnits="userSpaceOnUse"
   x1="0"
   y1="0"
   x2="10"
   y2="0" /><linearGradient
   inkscape:collect="always"
   xlink:href="#gradient-0"
   id="linearGradient3192"
   gradientUnits="userSpaceOnUse"
   x1="0.5"
   y1="0.5"
   x2="9.5"
   y2="0.5" /><linearGradient
   inkscape:collect="always"
   xlink:href="#gradient-0"
   id="linearGradient3194"
   gradientUnits="userSpaceOnUse"
   x1="0.5"
   y1="0.5"
   x2="9.5"
   y2="0.5" /><linearGradient
   inkscape:collect="always"
   xlink:href="#gradient-0"
   id="linearGradient3196"
   gradientUnits="userSpaceOnUse"
   x1="0"
   y1="0"
   x2="10"
   y2="0" /><linearGradient
   inkscape:collect="always"
   xlink:href="#gradient-0"
   id="linearGradient3200"
   gradientUnits="userSpaceOnUse"
   x1="0.5"
   y1="0.5"
   x2="17.5"
   y2="0.5" /><linearGradient
   inkscape:collect="always"
   xlink:href="#gradient-0"
   id="linearGradient3202"
   gradientUnits="userSpaceOnUse"
   x1="0.5"
   y1="0.5"
   x2="17.5"
   y2="0.5" /><linearGradient
   inkscape:collect="always"
   xlink:href="#gradient-0"
   id="linearGradient3204"
   gradientUnits="userSpaceOnUse"
   x1="0"
   y1="0"
   x2="18"
   y2="0" /><linearGradient
   inkscape:collect="always"
   xlink:href="#gradient-0"
   id="linearGradient3208"
   gradientUnits="userSpaceOnUse"
   x1="0.5"
   y1="0.5"
   x2="9.5"
   y2="0.5" /><linearGradient
   inkscape:collect="always"
   xlink:href="#gradient-0"
   id="linearGradient3210"
   gradientUnits="userSpaceOnUse"
   x1="0.5"
   y1="0.5"
   x2="9.5"
   y2="0.5" /><linearGradient
   inkscape:collect="always"
   xlink:href="#gradient-0"
   id="linearGradient3212"
   gradientUnits="userSpaceOnUse"
   x1="0"
   y1="0"
   x2="10"
   y2="0" /><linearGradient
   inkscape:collect="always"
   xlink:href="#gradient-0"
   id="linearGradient3214"
   gradientUnits="userSpaceOnUse"
   x1="36"
   y1="0"
   x2="46"
   y2="0" /><linearGradient
   inkscape:collect="always"
   xlink:href="#gradient-0"
   id="linearGradient3216"
   gradientUnits="userSpaceOnUse"
   gradientTransform="scale(0.96720415,1.0339079)"
   x1="17.576433"
   y1="0"
   x2="47.559765"
   y2="0" /><linearGradient
   inkscape:collect="always"
   xlink:href="#gradient-0"
   id="linearGradient3218"
   gradientUnits="userSpaceOnUse"
   gradientTransform="scale(0.96720415,1.0339079)"
   x1="17.576433"
   y1="0"
   x2="47.559765"
   y2="0" /><linearGradient
   inkscape:collect="always"
   xlink:href="#gradient-0"
   id="linearGradient3220"
   gradientUnits="userSpaceOnUse"
   gradientTransform="scale(1.0472699,0.95486371)"
   x1="11.458365"
   y1="0"
   x2="43.923733"
   y2="0" /><linearGradient
   inkscape:collect="always"
   xlink:href="#gradient-0"
   id="linearGradient3222"
   gradientUnits="userSpaceOnUse"
   gradientTransform="scale(1.2181424,0.82092207)"
   x1="0"
   y1="0"
   x2="37.762417"
   y2="0" /><linearGradient
   inkscape:collect="always"
   xlink:href="#gradient-0"
   id="linearGradient3224"
   gradientUnits="userSpaceOnUse"
   gradientTransform="scale(1.2181424,0.82092207)"
   x1="0"
   y1="0"
   x2="37.762417"
   y2="0" /><linearGradient
   inkscape:collect="always"
   xlink:href="#gradient-0"
   id="linearGradient3226"
   gradientUnits="userSpaceOnUse"
   gradientTransform="scale(1.3795745,0.72486118)"
   x1="0"
   y1="0"
   x2="42.766811"
   y2="0" /><linearGradient
   inkscape:collect="always"
   xlink:href="#gradient-0"
   id="linearGradient3228"
   gradientUnits="userSpaceOnUse"
   gradientTransform="scale(1.3578476,0.73645969)"
   x1="0"
   y1="0"
   x2="43.451122"
   y2="0" /><linearGradient
   inkscape:collect="always"
   xlink:href="#gradient-0"
   id="linearGradient3230"
   gradientUnits="userSpaceOnUse"
   gradientTransform="scale(1.0452715,0.95668921)"
   x1="0"
   y1="0"
   x2="56.444664"
   y2="0" /><linearGradient
   inkscape:collect="always"
   xlink:href="#gradient-0"
   id="linearGradient3232"
   gradientUnits="userSpaceOnUse"
   gradientTransform="scale(0.96014322,1.0415113)"
   x1="0"
   y1="0"
   x2="61.449165"
   y2="0" />

<defs
   id="defs14">
  <linearGradient
   gradientTransform="matrix(0,1,-1,0,0,0)"
   gradientUnits="objectBoundingBox"
   id="gradient-0">
    <stop
   id="stop17"
   opacity-stop="1.0"
   stop-color="#ebf6fa"
   offset="0" />
    <stop
   id="stop19"
   opacity-stop="1.0"
   stop-color="#c4e3f3"
   offset="1" />
  </linearGradient>
</defs>

<linearGradient
   inkscape:collect="always"
   xlink:href="#gradient-0"
   id="linearGradient3310"
   gradientUnits="userSpaceOnUse"
   x1="0.5"
   y1="0.5"
   x2="29.5"
   y2="0.5" /><linearGradient
   inkscape:collect="always"
   xlink:href="#gradient-0"
   id="linearGradient3312"
   gradientUnits="userSpaceOnUse"
   x1="0.5"
   y1="0.5"
   x2="29.5"
   y2="0.5" /><linearGradient
   inkscape:collect="always"
   xlink:href="#gradient-0"
   id="linearGradient3314"
   gradientUnits="userSpaceOnUse"
   x1="0"
   y1="0"
   x2="30"
   y2="0" /><linearGradient
   inkscape:collect="always"
   xlink:href="#gradient-0"
   id="linearGradient3318"
   gradientUnits="userSpaceOnUse"
   x1="0.5"
   y1="0.5"
   x2="19.5"
   y2="0.5" /><linearGradient
   inkscape:collect="always"
   xlink:href="#gradient-0"
   id="linearGradient3320"
   gradientUnits="userSpaceOnUse"
   x1="0.5"
   y1="0.5"
   x2="19.5"
   y2="0.5" /><linearGradient
   inkscape:collect="always"
   xlink:href="#gradient-0"
   id="linearGradient3322"
   gradientUnits="userSpaceOnUse"
   x1="0"
   y1="0"
   x2="20"
   y2="0" /><linearGradient
   inkscape:collect="always"
   xlink:href="#gradient-0"
   id="linearGradient3326"
   gradientUnits="userSpaceOnUse"
   x1="0.5"
   y1="0.5"
   x2="18.5"
   y2="0.5" /><linearGradient
   inkscape:collect="always"
   xlink:href="#gradient-0"
   id="linearGradient3328"
   gradientUnits="userSpaceOnUse"
   x1="0.5"
   y1="0.5"
   x2="18.5"
   y2="0.5" /><linearGradient
   inkscape:collect="always"
   xlink:href="#gradient-0"
   id="linearGradient3330"
   gradientUnits="userSpaceOnUse"
   x1="0"
   y1="0"
   x2="19"
   y2="0" /><linearGradient
   inkscape:collect="always"
   xlink:href="#gradient-0"
   id="linearGradient3334"
   gradientUnits="userSpaceOnUse"
   x1="0.5"
   y1="0.5"
   x2="10.5"
   y2="0.5" /><linearGradient
   inkscape:collect="always"
   xlink:href="#gradient-0"
   id="linearGradient3336"
   gradientUnits="userSpaceOnUse"
   x1="0.5"
   y1="0.5"
   x2="10.5"
   y2="0.5" /><linearGradient
   inkscape:collect="always"
   xlink:href="#gradient-0"
   id="linearGradient3338"
   gradientUnits="userSpaceOnUse"
   x1="0"
   y1="0"
   x2="11"
   y2="0" /><linearGradient
   inkscape:collect="always"
   xlink:href="#gradient-0"
   id="linearGradient3342"
   gradientUnits="userSpaceOnUse"
   x1="0.5"
   y1="0.5"
   x2="9.5"
   y2="0.5" /><linearGradient
   inkscape:collect="always"
   xlink:href="#gradient-0"
   id="linearGradient3346"
   gradientUnits="userSpaceOnUse"
   x1="0.5"
   y1="0.5"
   x2="14.5"
   y2="0.5" /><linearGradient
   inkscape:collect="always"
   xlink:href="#gradient-0"
   id="linearGradient3348"
   gradientUnits="userSpaceOnUse"
   x1="0.5"
   y1="0.5"
   x2="14.5"
   y2="0.5" /><linearGradient
   inkscape:collect="always"
   xlink:href="#gradient-0"
   id="linearGradient3350"
   gradientUnits="userSpaceOnUse"
   x1="0"
   y1="0"
   x2="15"
   y2="0" /><linearGradient
   inkscape:collect="always"
   xlink:href="#gradient-0"
   id="linearGradient3354"
   gradientUnits="userSpaceOnUse"
   x1="0.5"
   y1="0.5"
   x2="9.5"
   y2="0.5" /><linearGradient
   inkscape:collect="always"
   xlink:href="#gradient-0"
   id="linearGradient3356"
   gradientUnits="userSpaceOnUse"
   x1="0.5"
   y1="0.5"
   x2="9.5"
   y2="0.5" /><linearGradient
   inkscape:collect="always"
   xlink:href="#gradient-0"
   id="linearGradient3358"
   gradientUnits="userSpaceOnUse"
   x1="0"
   y1="0"
   x2="10"
   y2="0" /><linearGradient
   inkscape:collect="always"
   xlink:href="#gradient-0"
   id="linearGradient3362"
   gradientUnits="userSpaceOnUse"
   x1="0.5"
   y1="0.5"
   x2="9.5"
   y2="0.5" /><linearGradient
   inkscape:collect="always"
   xlink:href="#gradient-0"
   id="linearGradient3364"
   gradientUnits="userSpaceOnUse"
   x1="0.5"
   y1="0.5"
   x2="9.5"
   y2="0.5" /><linearGradient
   inkscape:collect="always"
   xlink:href="#gradient-0"
   id="linearGradient3366"
   gradientUnits="userSpaceOnUse"
   x1="0"
   y1="0"
   x2="10"
   y2="0" /><linearGradient
   inkscape:collect="always"
   xlink:href="#gradient-0"
   id="linearGradient3370"
   gradientUnits="userSpaceOnUse"
   x1="0.5"
   y1="0.5"
   x2="17.5"
   y2="0.5" /><linearGradient
   inkscape:collect="always"
   xlink:href="#gradient-0"
   id="linearGradient3372"
   gradientUnits="userSpaceOnUse"
   x1="0.5"
   y1="0.5"
   x2="17.5"
   y2="0.5" /><linearGradient
   inkscape:collect="always"
   xlink:href="#gradient-0"
   id="linearGradient3374"
   gradientUnits="userSpaceOnUse"
   x1="0"
   y1="0"
   x2="18"
   y2="0" /><linearGradient
   inkscape:collect="always"
   xlink:href="#gradient-0"
   id="linearGradient3378"
   gradientUnits="userSpaceOnUse"
   x1="0.5"
   y1="0.5"
   x2="9.5"
   y2="0.5" /><linearGradient
   inkscape:collect="always"
   xlink:href="#gradient-0"
   id="linearGradient3380"
   gradientUnits="userSpaceOnUse"
   x1="0.5"
   y1="0.5"
   x2="9.5"
   y2="0.5" /><linearGradient
   inkscape:collect="always"
   xlink:href="#gradient-0"
   id="linearGradient3382"
   gradientUnits="userSpaceOnUse"
   x1="0"
   y1="0"
   x2="10"
   y2="0" /><linearGradient
   inkscape:collect="always"
   xlink:href="#gradient-0"
   id="linearGradient3384"
   gradientUnits="userSpaceOnUse"
   x1="36"
   y1="0"
   x2="46"
   y2="0" /><linearGradient
   inkscape:collect="always"
   xlink:href="#gradient-0"
   id="linearGradient3386"
   gradientUnits="userSpaceOnUse"
   gradientTransform="scale(0.96720415,1.0339079)"
   x1="17.576433"
   y1="0"
   x2="47.559765"
   y2="0" /><linearGradient
   inkscape:collect="always"
   xlink:href="#gradient-0"
   id="linearGradient3388"
   gradientUnits="userSpaceOnUse"
   gradientTransform="scale(0.96720415,1.0339079)"
   x1="17.576433"
   y1="0"
   x2="47.559765"
   y2="0" /><linearGradient
   inkscape:collect="always"
   xlink:href="#gradient-0"
   id="linearGradient3390"
   gradientUnits="userSpaceOnUse"
   gradientTransform="scale(1.0472699,0.95486371)"
   x1="11.458365"
   y1="0"
   x2="43.923733"
   y2="0" /><linearGradient
   inkscape:collect="always"
   xlink:href="#gradient-0"
   id="linearGradient3392"
   gradientUnits="userSpaceOnUse"
   gradientTransform="scale(1.2181424,0.82092207)"
   x1="0"
   y1="0"
   x2="37.762417"
   y2="0" /><linearGradient
   inkscape:collect="always"
   xlink:href="#gradient-0"
   id="linearGradient3394"
   gradientUnits="userSpaceOnUse"
   gradientTransform="scale(1.2181424,0.82092207)"
   x1="0"
   y1="0"
   x2="37.762417"
   y2="0" /><linearGradient
   inkscape:collect="always"
   xlink:href="#gradient-0"
   id="linearGradient3396"
   gradientUnits="userSpaceOnUse"
   gradientTransform="scale(1.3795745,0.72486118)"
   x1="0"
   y1="0"
   x2="42.766811"
   y2="0" /><linearGradient
   inkscape:collect="always"
   xlink:href="#gradient-0"
   id="linearGradient3398"
   gradientUnits="userSpaceOnUse"
   gradientTransform="scale(1.3578476,0.73645969)"
   x1="0"
   y1="0"
   x2="43.451122"
   y2="0" /><linearGradient
   inkscape:collect="always"
   xlink:href="#gradient-0"
   id="linearGradient3400"
   gradientUnits="userSpaceOnUse"
   gradientTransform="scale(1.0452715,0.95668921)"
   x1="0"
   y1="0"
   x2="56.444664"
   y2="0" /><linearGradient
   inkscape:collect="always"
   xlink:href="#gradient-0"
   id="linearGradient3402"
   gradientUnits="userSpaceOnUse"
   gradientTransform="scale(0.96014322,1.0415113)"
   x1="0"
   y1="0"
   x2="61.449165"
   y2="0" />




  
<linearGradient
   inkscape:collect="always"
   xlink:href="#gradient-0"
   id="linearGradient3474"
   gradientUnits="userSpaceOnUse"
   x1="0.5"
   y1="0.5"
   x2="19.5"
   y2="0.5" /><linearGradient
   inkscape:collect="always"
   xlink:href="#gradient-0"
   id="linearGradient3476"
   gradientUnits="userSpaceOnUse"
   x1="0.5"
   y1="0.5"
   x2="19.5"
   y2="0.5" /><linearGradient
   inkscape:collect="always"
   xlink:href="#gradient-0"
   id="linearGradient3478"
   gradientUnits="userSpaceOnUse"
   x1="0"
   y1="0"
   x2="20"
   y2="0" /><linearGradient
   inkscape:collect="always"
   xlink:href="#gradient-0"
   id="linearGradient3482"
   gradientUnits="userSpaceOnUse"
   x1="0.5"
   y1="0.5"
   x2="18.5"
   y2="0.5" /><linearGradient
   inkscape:collect="always"
   xlink:href="#gradient-0"
   id="linearGradient3484"
   gradientUnits="userSpaceOnUse"
   x1="0.5"
   y1="0.5"
   x2="18.5"
   y2="0.5" /><linearGradient
   inkscape:collect="always"
   xlink:href="#gradient-0"
   id="linearGradient3486"
   gradientUnits="userSpaceOnUse"
   x1="0"
   y1="0"
   x2="19"
   y2="0" /><linearGradient
   inkscape:collect="always"
   xlink:href="#gradient-0"
   id="linearGradient3490"
   gradientUnits="userSpaceOnUse"
   x1="0.5"
   y1="0.5"
   x2="10.5"
   y2="0.5" /><linearGradient
   inkscape:collect="always"
   xlink:href="#gradient-0"
   id="linearGradient3492"
   gradientUnits="userSpaceOnUse"
   x1="0.5"
   y1="0.5"
   x2="10.5"
   y2="0.5" /><linearGradient
   inkscape:collect="always"
   xlink:href="#gradient-0"
   id="linearGradient3494"
   gradientUnits="userSpaceOnUse"
   x1="0"
   y1="0"
   x2="11"
   y2="0" /><linearGradient
   inkscape:collect="always"
   xlink:href="#gradient-0"
   id="linearGradient3498"
   gradientUnits="userSpaceOnUse"
   x1="0.5"
   y1="0.5"
   x2="9.5"
   y2="0.5" /><linearGradient
   inkscape:collect="always"
   xlink:href="#gradient-0"
   id="linearGradient3502"
   gradientUnits="userSpaceOnUse"
   x1="0.5"
   y1="0.5"
   x2="14.5"
   y2="0.5" /><linearGradient
   inkscape:collect="always"
   xlink:href="#gradient-0"
   id="linearGradient3504"
   gradientUnits="userSpaceOnUse"
   x1="0.5"
   y1="0.5"
   x2="14.5"
   y2="0.5" /><linearGradient
   inkscape:collect="always"
   xlink:href="#gradient-0"
   id="linearGradient3506"
   gradientUnits="userSpaceOnUse"
   x1="0"
   y1="0"
   x2="15"
   y2="0" /><linearGradient
   inkscape:collect="always"
   xlink:href="#gradient-0"
   id="linearGradient3510"
   gradientUnits="userSpaceOnUse"
   x1="0.5"
   y1="0.5"
   x2="9.5"
   y2="0.5" /><linearGradient
   inkscape:collect="always"
   xlink:href="#gradient-0"
   id="linearGradient3512"
   gradientUnits="userSpaceOnUse"
   x1="0.5"
   y1="0.5"
   x2="9.5"
   y2="0.5" /><linearGradient
   inkscape:collect="always"
   xlink:href="#gradient-0"
   id="linearGradient3514"
   gradientUnits="userSpaceOnUse"
   x1="0"
   y1="0"
   x2="10"
   y2="0" /><linearGradient
   inkscape:collect="always"
   xlink:href="#gradient-0"
   id="linearGradient3518"
   gradientUnits="userSpaceOnUse"
   x1="0.5"
   y1="0.5"
   x2="9.5"
   y2="0.5" /><linearGradient
   inkscape:collect="always"
   xlink:href="#gradient-0"
   id="linearGradient3520"
   gradientUnits="userSpaceOnUse"
   x1="0.5"
   y1="0.5"
   x2="9.5"
   y2="0.5" /><linearGradient
   inkscape:collect="always"
   xlink:href="#gradient-0"
   id="linearGradient3522"
   gradientUnits="userSpaceOnUse"
   x1="0"
   y1="0"
   x2="10"
   y2="0" /><linearGradient
   inkscape:collect="always"
   xlink:href="#gradient-0"
   id="linearGradient3526"
   gradientUnits="userSpaceOnUse"
   x1="0.5"
   y1="0.5"
   x2="17.5"
   y2="0.5" /><linearGradient
   inkscape:collect="always"
   xlink:href="#gradient-0"
   id="linearGradient3528"
   gradientUnits="userSpaceOnUse"
   x1="0.5"
   y1="0.5"
   x2="17.5"
   y2="0.5" /><linearGradient
   inkscape:collect="always"
   xlink:href="#gradient-0"
   id="linearGradient3530"
   gradientUnits="userSpaceOnUse"
   x1="0"
   y1="0"
   x2="18"
   y2="0" /><linearGradient
   inkscape:collect="always"
   xlink:href="#gradient-0"
   id="linearGradient3534"
   gradientUnits="userSpaceOnUse"
   x1="0.5"
   y1="0.5"
   x2="9.5"
   y2="0.5" /><linearGradient
   inkscape:collect="always"
   xlink:href="#gradient-0"
   id="linearGradient3536"
   gradientUnits="userSpaceOnUse"
   x1="0.5"
   y1="0.5"
   x2="9.5"
   y2="0.5" /><linearGradient
   inkscape:collect="always"
   xlink:href="#gradient-0"
   id="linearGradient3538"
   gradientUnits="userSpaceOnUse"
   x1="0"
   y1="0"
   x2="10"
   y2="0" /><linearGradient
   inkscape:collect="always"
   xlink:href="#gradient-0"
   id="linearGradient3540"
   gradientUnits="userSpaceOnUse"
   x1="36"
   y1="0"
   x2="46"
   y2="0" /><linearGradient
   inkscape:collect="always"
   xlink:href="#gradient-0"
   id="linearGradient3542"
   gradientUnits="userSpaceOnUse"
   gradientTransform="scale(0.96720415,1.0339079)"
   x1="17.576433"
   y1="0"
   x2="47.559765"
   y2="0" /><linearGradient
   inkscape:collect="always"
   xlink:href="#gradient-0"
   id="linearGradient3544"
   gradientUnits="userSpaceOnUse"
   gradientTransform="scale(0.96720415,1.0339079)"
   x1="17.576433"
   y1="0"
   x2="47.559765"
   y2="0" /><linearGradient
   inkscape:collect="always"
   xlink:href="#gradient-0"
   id="linearGradient3546"
   gradientUnits="userSpaceOnUse"
   gradientTransform="scale(1.0472699,0.95486371)"
   x1="11.458365"
   y1="0"
   x2="43.923733"
   y2="0" /><linearGradient
   inkscape:collect="always"
   xlink:href="#gradient-0"
   id="linearGradient3548"
   gradientUnits="userSpaceOnUse"
   gradientTransform="scale(1.2181424,0.82092207)"
   x1="0"
   y1="0"
   x2="37.762417"
   y2="0" /><linearGradient
   inkscape:collect="always"
   xlink:href="#gradient-0"
   id="linearGradient3550"
   gradientUnits="userSpaceOnUse"
   gradientTransform="scale(1.2181424,0.82092207)"
   x1="0"
   y1="0"
   x2="37.762417"
   y2="0" /><linearGradient
   inkscape:collect="always"
   xlink:href="#gradient-0"
   id="linearGradient3552"
   gradientUnits="userSpaceOnUse"
   gradientTransform="scale(1.3795745,0.72486118)"
   x1="0"
   y1="0"
   x2="42.766811"
   y2="0" /><linearGradient
   inkscape:collect="always"
   xlink:href="#gradient-0"
   id="linearGradient3554"
   gradientUnits="userSpaceOnUse"
   gradientTransform="scale(1.3578476,0.73645969)"
   x1="0"
   y1="0"
   x2="43.451122"
   y2="0" /><linearGradient
   inkscape:collect="always"
   xlink:href="#gradient-0"
   id="linearGradient3556"
   gradientUnits="userSpaceOnUse"
   gradientTransform="scale(1.0452715,0.95668921)"
   x1="0"
   y1="0"
   x2="56.444664"
   y2="0" />



<linearGradient
   inkscape:collect="always"
   xlink:href="#gradient-0"
   id="linearGradient3618"
   gradientUnits="userSpaceOnUse"
   x1="0"
   y1="0"
   x2="30"
   y2="0" />

<linearGradient
   inkscape:collect="always"
   xlink:href="#gradient-0"
   id="linearGradient3624"
   gradientUnits="userSpaceOnUse"
   x1="0.5"
   y1="0.5"
   x2="29.5"
   y2="0.5" /><linearGradient
   inkscape:collect="always"
   xlink:href="#gradient-0"
   id="linearGradient3626"
   gradientUnits="userSpaceOnUse"
   x1="0.5"
   y1="0.5"
   x2="29.5"
   y2="0.5" />

<linearGradient
   inkscape:collect="always"
   xlink:href="#gradient-0"
   id="linearGradient3632"
   gradientUnits="userSpaceOnUse"
   x1="0.5"
   y1="0.5"
   x2="29.5"
   y2="0.5" />
  
<linearGradient
   inkscape:collect="always"
   xlink:href="#gradient-0"
   id="linearGradient3635"
   gradientUnits="userSpaceOnUse"
   x1="0.5"
   y1="0.5"
   x2="29.5"
   y2="0.5"
   gradientTransform="translate(27,39)" />
  
<linearGradient
   inkscape:collect="always"
   xlink:href="#gradient-0"
   id="linearGradient3640"
   gradientUnits="userSpaceOnUse"
   x1="0.5"
   y1="0.5"
   x2="18.5"
   y2="0.5" /><linearGradient
   inkscape:collect="always"
   xlink:href="#gradient-0"
   id="linearGradient3642"
   gradientUnits="userSpaceOnUse"
   x1="0.5"
   y1="0.5"
   x2="18.5"
   y2="0.5" /><linearGradient
   inkscape:collect="always"
   xlink:href="#gradient-0"
   id="linearGradient3644"
   gradientUnits="userSpaceOnUse"
   x1="0"
   y1="0"
   x2="19"
   y2="0" /><linearGradient
   inkscape:collect="always"
   xlink:href="#gradient-0"
   id="linearGradient3648"
   gradientUnits="userSpaceOnUse"
   x1="0.5"
   y1="0.5"
   x2="10.5"
   y2="0.5" /><linearGradient
   inkscape:collect="always"
   xlink:href="#gradient-0"
   id="linearGradient3650"
   gradientUnits="userSpaceOnUse"
   x1="0.5"
   y1="0.5"
   x2="10.5"
   y2="0.5" /><linearGradient
   inkscape:collect="always"
   xlink:href="#gradient-0"
   id="linearGradient3652"
   gradientUnits="userSpaceOnUse"
   x1="0"
   y1="0"
   x2="11"
   y2="0" /><linearGradient
   inkscape:collect="always"
   xlink:href="#gradient-0"
   id="linearGradient3656"
   gradientUnits="userSpaceOnUse"
   x1="0.5"
   y1="0.5"
   x2="9.5"
   y2="0.5" /><linearGradient
   inkscape:collect="always"
   xlink:href="#gradient-0"
   id="linearGradient3660"
   gradientUnits="userSpaceOnUse"
   x1="0.5"
   y1="0.5"
   x2="14.5"
   y2="0.5" /><linearGradient
   inkscape:collect="always"
   xlink:href="#gradient-0"
   id="linearGradient3662"
   gradientUnits="userSpaceOnUse"
   x1="0.5"
   y1="0.5"
   x2="14.5"
   y2="0.5" /><linearGradient
   inkscape:collect="always"
   xlink:href="#gradient-0"
   id="linearGradient3664"
   gradientUnits="userSpaceOnUse"
   x1="0"
   y1="0"
   x2="15"
   y2="0" /><linearGradient
   inkscape:collect="always"
   xlink:href="#gradient-0"
   id="linearGradient3666"
   gradientUnits="userSpaceOnUse"
   x1="0.5"
   y1="0.5"
   x2="9.5"
   y2="0.5" /><linearGradient
   inkscape:collect="always"
   xlink:href="#gradient-0"
   id="linearGradient3668"
   gradientUnits="userSpaceOnUse"
   x1="0.5"
   y1="0.5"
   x2="9.5"
   y2="0.5" /><linearGradient
   inkscape:collect="always"
   xlink:href="#gradient-0"
   id="linearGradient3670"
   gradientUnits="userSpaceOnUse"
   x1="0.5"
   y1="0.5"
   x2="9.5"
   y2="0.5" /><linearGradient
   inkscape:collect="always"
   xlink:href="#gradient-0"
   id="linearGradient3672"
   gradientUnits="userSpaceOnUse"
   x1="0"
   y1="0"
   x2="10"
   y2="0" /><linearGradient
   inkscape:collect="always"
   xlink:href="#gradient-0"
   id="linearGradient3674"
   gradientUnits="userSpaceOnUse"
   x1="0.5"
   y1="0.5"
   x2="9.5"
   y2="0.5" /><linearGradient
   inkscape:collect="always"
   xlink:href="#gradient-0"
   id="linearGradient3676"
   gradientUnits="userSpaceOnUse"
   x1="0.5"
   y1="0.5"
   x2="9.5"
   y2="0.5" /><linearGradient
   inkscape:collect="always"
   xlink:href="#gradient-0"
   id="linearGradient3678"
   gradientUnits="userSpaceOnUse"
   x1="0.5"
   y1="0.5"
   x2="9.5"
   y2="0.5" /><linearGradient
   inkscape:collect="always"
   xlink:href="#gradient-0"
   id="linearGradient3680"
   gradientUnits="userSpaceOnUse"
   x1="0"
   y1="0"
   x2="10"
   y2="0" /><linearGradient
   inkscape:collect="always"
   xlink:href="#gradient-0"
   id="linearGradient3682"
   gradientUnits="userSpaceOnUse"
   x1="0.5"
   y1="0.5"
   x2="17.5"
   y2="0.5" /><linearGradient
   inkscape:collect="always"
   xlink:href="#gradient-0"
   id="linearGradient3684"
   gradientUnits="userSpaceOnUse"
   x1="0.5"
   y1="0.5"
   x2="17.5"
   y2="0.5" /><linearGradient
   inkscape:collect="always"
   xlink:href="#gradient-0"
   id="linearGradient3686"
   gradientUnits="userSpaceOnUse"
   x1="0.5"
   y1="0.5"
   x2="17.5"
   y2="0.5" /><linearGradient
   inkscape:collect="always"
   xlink:href="#gradient-0"
   id="linearGradient3688"
   gradientUnits="userSpaceOnUse"
   x1="0"
   y1="0"
   x2="18"
   y2="0" /><linearGradient
   inkscape:collect="always"
   xlink:href="#gradient-0"
   id="linearGradient3690"
   gradientUnits="userSpaceOnUse"
   x1="0.5"
   y1="0.5"
   x2="9.5"
   y2="0.5" /><linearGradient
   inkscape:collect="always"
   xlink:href="#gradient-0"
   id="linearGradient3692"
   gradientUnits="userSpaceOnUse"
   x1="0.5"
   y1="0.5"
   x2="9.5"
   y2="0.5" /><linearGradient
   inkscape:collect="always"
   xlink:href="#gradient-0"
   id="linearGradient3694"
   gradientUnits="userSpaceOnUse"
   x1="0.5"
   y1="0.5"
   x2="9.5"
   y2="0.5" /><linearGradient
   inkscape:collect="always"
   xlink:href="#gradient-0"
   id="linearGradient3696"
   gradientUnits="userSpaceOnUse"
   x1="0"
   y1="0"
   x2="10"
   y2="0" /><linearGradient
   inkscape:collect="always"
   xlink:href="#gradient-0"
   id="linearGradient3698"
   gradientUnits="userSpaceOnUse"
   x1="36"
   y1="0"
   x2="46"
   y2="0" /><linearGradient
   inkscape:collect="always"
   xlink:href="#gradient-0"
   id="linearGradient3700"
   gradientUnits="userSpaceOnUse"
   gradientTransform="scale(0.96720415,1.0339079)"
   x1="17.576433"
   y1="0"
   x2="47.559765"
   y2="0" /><linearGradient
   inkscape:collect="always"
   xlink:href="#gradient-0"
   id="linearGradient3702"
   gradientUnits="userSpaceOnUse"
   gradientTransform="scale(0.96720415,1.0339079)"
   x1="17.576433"
   y1="0"
   x2="47.559765"
   y2="0" /><linearGradient
   inkscape:collect="always"
   xlink:href="#gradient-0"
   id="linearGradient3704"
   gradientUnits="userSpaceOnUse"
   gradientTransform="scale(1.0472699,0.95486371)"
   x1="11.458365"
   y1="0"
   x2="43.923733"
   y2="0" /><linearGradient
   inkscape:collect="always"
   xlink:href="#gradient-0"
   id="linearGradient3706"
   gradientUnits="userSpaceOnUse"
   gradientTransform="scale(1.2181424,0.82092207)"
   x1="0"
   y1="0"
   x2="37.762417"
   y2="0" /><linearGradient
   inkscape:collect="always"
   xlink:href="#gradient-0"
   id="linearGradient3708"
   gradientUnits="userSpaceOnUse"
   gradientTransform="scale(1.2181424,0.82092207)"
   x1="0"
   y1="0"
   x2="37.762417"
   y2="0" /><linearGradient
   inkscape:collect="always"
   xlink:href="#gradient-0"
   id="linearGradient3710"
   gradientUnits="userSpaceOnUse"
   gradientTransform="scale(1.3795745,0.72486118)"
   x1="0"
   y1="0"
   x2="42.766811"
   y2="0" /><linearGradient
   inkscape:collect="always"
   xlink:href="#gradient-0"
   id="linearGradient3712"
   gradientUnits="userSpaceOnUse"
   gradientTransform="scale(1.3578476,0.73645969)"
   x1="0"
   y1="0"
   x2="43.451122"
   y2="0" />



<linearGradient
   inkscape:collect="always"
   xlink:href="#gradient-0"
   id="linearGradient3767"
   gradientUnits="userSpaceOnUse"
   x1="0"
   y1="0"
   x2="20"
   y2="0" />

<linearGradient
   inkscape:collect="always"
   xlink:href="#gradient-0"
   id="linearGradient3773"
   gradientUnits="userSpaceOnUse"
   x1="0.5"
   y1="0.5"
   x2="19.5"
   y2="0.5" /><linearGradient
   inkscape:collect="always"
   xlink:href="#gradient-0"
   id="linearGradient3775"
   gradientUnits="userSpaceOnUse"
   x1="0.5"
   y1="0.5"
   x2="19.5"
   y2="0.5" />

<linearGradient
   inkscape:collect="always"
   xlink:href="#gradient-0"
   id="linearGradient3779"
   gradientUnits="userSpaceOnUse"
   x1="0.5"
   y1="0.5"
   x2="19.5"
   y2="0.5" /><linearGradient
   inkscape:collect="always"
   xlink:href="#gradient-0"
   id="linearGradient3781"
   gradientUnits="userSpaceOnUse"
   x1="0.5"
   y1="0.5"
   x2="19.5"
   y2="0.5" /><linearGradient
   inkscape:collect="always"
   xlink:href="#gradient-0"
   id="linearGradient3783"
   gradientUnits="userSpaceOnUse"
   x1="0.5"
   y1="0.5"
   x2="18.5"
   y2="0.5" /><linearGradient
   inkscape:collect="always"
   xlink:href="#gradient-0"
   id="linearGradient3785"
   gradientUnits="userSpaceOnUse"
   x1="0.5"
   y1="0.5"
   x2="18.5"
   y2="0.5" /><linearGradient
   inkscape:collect="always"
   xlink:href="#gradient-0"
   id="linearGradient3787"
   gradientUnits="userSpaceOnUse"
   x1="0.5"
   y1="0.5"
   x2="18.5"
   y2="0.5" /><linearGradient
   inkscape:collect="always"
   xlink:href="#gradient-0"
   id="linearGradient3789"
   gradientUnits="userSpaceOnUse"
   x1="0"
   y1="0"
   x2="19"
   y2="0" /><linearGradient
   inkscape:collect="always"
   xlink:href="#gradient-0"
   id="linearGradient3791"
   gradientUnits="userSpaceOnUse"
   x1="0.5"
   y1="0.5"
   x2="10.5"
   y2="0.5" /><linearGradient
   inkscape:collect="always"
   xlink:href="#gradient-0"
   id="linearGradient3793"
   gradientUnits="userSpaceOnUse"
   x1="0.5"
   y1="0.5"
   x2="10.5"
   y2="0.5" /><linearGradient
   inkscape:collect="always"
   xlink:href="#gradient-0"
   id="linearGradient3795"
   gradientUnits="userSpaceOnUse"
   x1="0.5"
   y1="0.5"
   x2="10.5"
   y2="0.5" /><linearGradient
   inkscape:collect="always"
   xlink:href="#gradient-0"
   id="linearGradient3797"
   gradientUnits="userSpaceOnUse"
   x1="0"
   y1="0"
   x2="11"
   y2="0" /><linearGradient
   inkscape:collect="always"
   xlink:href="#gradient-0"
   id="linearGradient3799"
   gradientUnits="userSpaceOnUse"
   x1="0.5"
   y1="0.5"
   x2="9.5"
   y2="0.5" /><linearGradient
   inkscape:collect="always"
   xlink:href="#gradient-0"
   id="linearGradient3801"
   gradientUnits="userSpaceOnUse"
   x1="0.5"
   y1="0.5"
   x2="9.5"
   y2="0.5" /><linearGradient
   inkscape:collect="always"
   xlink:href="#gradient-0"
   id="linearGradient3803"
   gradientUnits="userSpaceOnUse"
   x1="0.5"
   y1="0.5"
   x2="14.5"
   y2="0.5" /><linearGradient
   inkscape:collect="always"
   xlink:href="#gradient-0"
   id="linearGradient3805"
   gradientUnits="userSpaceOnUse"
   x1="0.5"
   y1="0.5"
   x2="14.5"
   y2="0.5" /><linearGradient
   inkscape:collect="always"
   xlink:href="#gradient-0"
   id="linearGradient3807"
   gradientUnits="userSpaceOnUse"
   x1="0.5"
   y1="0.5"
   x2="14.5"
   y2="0.5" /><linearGradient
   inkscape:collect="always"
   xlink:href="#gradient-0"
   id="linearGradient3809"
   gradientUnits="userSpaceOnUse"
   x1="0"
   y1="0"
   x2="15"
   y2="0" /><linearGradient
   inkscape:collect="always"
   xlink:href="#gradient-0"
   id="linearGradient3811"
   gradientUnits="userSpaceOnUse"
   x1="0.5"
   y1="0.5"
   x2="9.5"
   y2="0.5" /><linearGradient
   inkscape:collect="always"
   xlink:href="#gradient-0"
   id="linearGradient3813"
   gradientUnits="userSpaceOnUse"
   x1="0.5"
   y1="0.5"
   x2="9.5"
   y2="0.5" /><linearGradient
   inkscape:collect="always"
   xlink:href="#gradient-0"
   id="linearGradient3815"
   gradientUnits="userSpaceOnUse"
   x1="0"
   y1="0"
   x2="10"
   y2="0" /><linearGradient
   inkscape:collect="always"
   xlink:href="#gradient-0"
   id="linearGradient3817"
   gradientUnits="userSpaceOnUse"
   x1="0.5"
   y1="0.5"
   x2="9.5"
   y2="0.5" /><linearGradient
   inkscape:collect="always"
   xlink:href="#gradient-0"
   id="linearGradient3819"
   gradientUnits="userSpaceOnUse"
   x1="0.5"
   y1="0.5"
   x2="9.5"
   y2="0.5" /><linearGradient
   inkscape:collect="always"
   xlink:href="#gradient-0"
   id="linearGradient3821"
   gradientUnits="userSpaceOnUse"
   x1="0"
   y1="0"
   x2="10"
   y2="0" /><linearGradient
   inkscape:collect="always"
   xlink:href="#gradient-0"
   id="linearGradient3823"
   gradientUnits="userSpaceOnUse"
   x1="0.5"
   y1="0.5"
   x2="17.5"
   y2="0.5" /><linearGradient
   inkscape:collect="always"
   xlink:href="#gradient-0"
   id="linearGradient3825"
   gradientUnits="userSpaceOnUse"
   x1="0.5"
   y1="0.5"
   x2="17.5"
   y2="0.5" /><linearGradient
   inkscape:collect="always"
   xlink:href="#gradient-0"
   id="linearGradient3827"
   gradientUnits="userSpaceOnUse"
   x1="0"
   y1="0"
   x2="18"
   y2="0" /><linearGradient
   inkscape:collect="always"
   xlink:href="#gradient-0"
   id="linearGradient3829"
   gradientUnits="userSpaceOnUse"
   x1="0.5"
   y1="0.5"
   x2="9.5"
   y2="0.5" /><linearGradient
   inkscape:collect="always"
   xlink:href="#gradient-0"
   id="linearGradient3831"
   gradientUnits="userSpaceOnUse"
   x1="0.5"
   y1="0.5"
   x2="9.5"
   y2="0.5" /><linearGradient
   inkscape:collect="always"
   xlink:href="#gradient-0"
   id="linearGradient3833"
   gradientUnits="userSpaceOnUse"
   x1="0"
   y1="0"
   x2="10"
   y2="0" /><linearGradient
   inkscape:collect="always"
   xlink:href="#gradient-0"
   id="linearGradient3835"
   gradientUnits="userSpaceOnUse"
   x1="36"
   y1="0"
   x2="46"
   y2="0" /><linearGradient
   inkscape:collect="always"
   xlink:href="#gradient-0"
   id="linearGradient3837"
   gradientUnits="userSpaceOnUse"
   gradientTransform="scale(0.96720415,1.0339079)"
   x1="17.576433"
   y1="0"
   x2="47.559765"
   y2="0" /><linearGradient
   inkscape:collect="always"
   xlink:href="#gradient-0"
   id="linearGradient3839"
   gradientUnits="userSpaceOnUse"
   gradientTransform="scale(0.96720415,1.0339079)"
   x1="17.576433"
   y1="0"
   x2="47.559765"
   y2="0" /><linearGradient
   inkscape:collect="always"
   xlink:href="#gradient-0"
   id="linearGradient3841"
   gradientUnits="userSpaceOnUse"
   gradientTransform="scale(1.0472699,0.95486371)"
   x1="11.458365"
   y1="0"
   x2="43.923733"
   y2="0" /><linearGradient
   inkscape:collect="always"
   xlink:href="#gradient-0"
   id="linearGradient3843"
   gradientUnits="userSpaceOnUse"
   gradientTransform="scale(1.2181424,0.82092207)"
   x1="0"
   y1="0"
   x2="37.762417"
   y2="0" /><linearGradient
   inkscape:collect="always"
   xlink:href="#gradient-0"
   id="linearGradient3845"
   gradientUnits="userSpaceOnUse"
   gradientTransform="scale(1.2181424,0.82092207)"
   x1="0"
   y1="0"
   x2="37.762417"
   y2="0" /><linearGradient
   inkscape:collect="always"
   xlink:href="#gradient-0"
   id="linearGradient3847"
   gradientUnits="userSpaceOnUse"
   gradientTransform="scale(1.3795745,0.72486118)"
   x1="0"
   y1="0"
   x2="42.766811"
   y2="0" /></defs><sodipodi:namedview
   pagecolor="#ffffff"
   bordercolor="#666666"
   borderopacity="1"
   objecttolerance="10"
   gridtolerance="10"
   guidetolerance="10"
   inkscape:pageopacity="0"
   inkscape:pageshadow="2"
   inkscape:window-width="1567"
   inkscape:window-height="892"
   id="namedview157"
   showgrid="false"
   inkscape:zoom="5.2149125"
   inkscape:cx="45.160817"
   inkscape:cy="31.837136"
   inkscape:window-x="411"
   inkscape:window-y="136"
   inkscape:window-maximized="0"
   inkscape:current-layer="svg2"
   fit-margin-bottom="5"
   fit-margin-top="5"
   fit-margin-left="5"
   fit-margin-right="5" />

<desc
   id="desc6">Creator: FreeHEP Graphics2D Driver Producer: de.cau.cs.kieler.klighd.piccolo.freehep.SemanticSVGGraphics2D Revision Source:  Date: Friday, April 28, 2017 4:15:53 PM CEST</desc>
<path
   d="m 27.5,44.5 0,19 c 0,2.761424 2.238576,5 5,5 l 19,0 c 2.761424,0 5,-2.238576 5,-5 l 0,-19 c 0,-2.761424 -2.238576,-5 -5,-5 l -19,0 c -2.761424,0 -5,2.238576 -5,5 z"
   id="path27"
   style="fill:url(#linearGradient3635);fill-opacity:1;fill-rule:nonzero;stroke:none"
   inkscape:connector-curvature="0" /><path
   style="fill:none;stroke:#000000;stroke-width:1;stroke-linecap:butt;stroke-linejoin:miter;stroke-miterlimit:10;stroke-opacity:1;stroke-dasharray:none;stroke-dashoffset:0"
   d="m 27.5,44.5 0,19 c 0,2.761424 2.238576,5 5,5 l 19,0 c 2.761424,0 5,-2.238576 5,-5 l 0,-19 c 0,-2.761424 -2.238576,-5 -5,-5 l -19,0 c -2.761424,0 -5,2.238576 -5,5 z"
   id="path33"
   inkscape:connector-curvature="0" /><g
   id="g39"
   style="fill:url(#linearGradient3781);fill-opacity:1;fill-rule:nonzero;stroke:none"
   transform="translate(5,39)">
  <path
   d="m 0.5,5.5 0,9 c 0,2.761424 2.2385763,5 5,5 l 9,0 c 2.761424,0 5,-2.238576 5,-5 l 0,-9 c 0,-2.7614237 -2.238576,-5 -5,-5 l -9,0 c -2.7614237,0 -5,2.2385763 -5,5 z"
   id="path41"
   style="fill:url(#linearGradient3779)"
   inkscape:connector-curvature="0" />
</g><g
   id="g45"
   style="fill:none;stroke:#000000;stroke-width:1;stroke-linecap:butt;stroke-linejoin:miter;stroke-miterlimit:10;stroke-opacity:1;stroke-dasharray:none;stroke-dashoffset:0"
   transform="translate(5,39)">
  <path
   d="m 0.5,5.5 0,9 c 0,2.761424 2.2385763,5 5,5 l 9,0 c 2.761424,0 5,-2.238576 5,-5 l 0,-9 c 0,-2.7614237 -2.238576,-5 -5,-5 l -9,0 c -2.7614237,0 -5,2.2385763 -5,5 z"
   id="path47"
   inkscape:connector-curvature="0" />
</g><g
   transform="translate(42,18)"
   id="g51"
   style="stroke:url(#linearGradient3787);stroke-width:1;stroke-linecap:square;stroke-linejoin:miter;stroke-miterlimit:10;stroke-dasharray:none;stroke-dashoffset:0">
<g
   id="g53"
   style="fill:url(#linearGradient3785);fill-opacity:1;fill-rule:nonzero;stroke:none">
  <path
   d="m 0.5,5.5 0,8 c 0,2.761424 2.2385763,5 5,5 l 8,0 c 2.761424,0 5,-2.238576 5,-5 l 0,-8 c 0,-2.7614237 -2.238576,-5 -5,-5 l -8,0 c -2.7614237,0 -5,2.2385763 -5,5 z"
   id="path55"
   style="fill:url(#linearGradient3783)"
   inkscape:connector-curvature="0" />
</g>
</g><g
   transform="translate(42,18)"
   id="g57"
   style="stroke:url(#linearGradient3789);stroke-width:1;stroke-linecap:square;stroke-linejoin:miter;stroke-miterlimit:10;stroke-dasharray:none;stroke-dashoffset:0">
<g
   id="g59"
   style="fill:none;stroke:#000000;stroke-linecap:butt;stroke-opacity:1">
  <path
   d="m 0.5,5.5 0,8 c 0,2.761424 2.2385763,5 5,5 l 8,0 c 2.761424,0 5,-2.238576 5,-5 l 0,-8 c 0,-2.7614237 -2.238576,-5 -5,-5 l -8,0 c -2.7614237,0 -5,2.2385763 -5,5 z"
   id="path61"
   inkscape:connector-curvature="0" />
</g>
</g><g
   id="g63"
   style="stroke:url(#linearGradient3847);stroke-width:1;stroke-linecap:square;stroke-linejoin:miter;stroke-miterlimit:10;stroke-dasharray:none;stroke-dashoffset:0"
   transform="translate(5,5)">
<g
   transform="translate(48,0)"
   id="g65"
   style="stroke:url(#linearGradient3795)">
<g
   id="g67"
   style="fill:url(#linearGradient3793);fill-opacity:1;fill-rule:nonzero;stroke:none">
  <path
   d="m 0.5,5.5 0,0 c 0,2.7614237 2.2385763,5 5,5 l 0,0 c 2.7614237,0 5,-2.2385763 5,-5 l 0,0 c 0,-2.7614237 -2.2385763,-5 -5,-5 l 0,0 c -2.7614237,0 -5,2.2385763 -5,5 z"
   id="path69"
   style="fill:url(#linearGradient3791)"
   inkscape:connector-curvature="0" />
</g>
</g>
<g
   transform="translate(48,0)"
   id="g71"
   style="stroke:url(#linearGradient3797)">
<g
   id="g73"
   style="fill:none;stroke:#000000;stroke-linecap:butt;stroke-opacity:1">
  <path
   d="m 0.5,5.5 0,0 c 0,2.7614237 2.2385763,5 5,5 l 0,0 c 2.7614237,0 5,-2.2385763 5,-5 l 0,0 c 0,-2.7614237 -2.2385763,-5 -5,-5 l 0,0 c -2.7614237,0 -5,2.2385763 -5,5 z"
   id="path75"
   inkscape:connector-curvature="0" />
</g>
</g>
<g
   id="g77"
   style="stroke:url(#linearGradient3845)">
<g
   id="g79"
   style="fill:url(#linearGradient3801);fill-opacity:1;fill-rule:nonzero;stroke:none">
  <path
   d="m 0.5,5 0,0 c 0,2.4852814 2.0147186,4.5 4.5,4.5 l 0,0 C 7.4852814,9.5 9.5,7.4852814 9.5,5 l 0,0 C 9.5,2.5147186 7.4852814,0.5 5,0.5 l 0,0 C 2.5147186,0.5 0.5,2.5147186 0.5,5 z"
   id="path81"
   style="fill:url(#linearGradient3799)"
   inkscape:connector-curvature="0" />
</g>
<g
   id="g83"
   style="fill:none;stroke:#000000;stroke-linecap:butt;stroke-opacity:1">
  <path
   d="m 0.5,5 0,0 c 0,2.4852814 2.0147186,4.5 4.5,4.5 l 0,0 C 7.4852814,9.5 9.5,7.4852814 9.5,5 l 0,0 C 9.5,2.5147186 7.4852814,0.5 5,0.5 l 0,0 C 2.5147186,0.5 0.5,2.5147186 0.5,5 z"
   id="path85"
   inkscape:connector-curvature="0" />
</g>
<g
   id="g87"
   style="stroke:url(#linearGradient3843)">
<g
   transform="translate(0,13)"
   id="g89"
   style="stroke:url(#linearGradient3807)">
<g
   id="g91"
   style="fill:url(#linearGradient3805);fill-opacity:1;fill-rule:nonzero;stroke:none">
  <path
   d="m 0.5,5.5 0,4 c 0,2.761424 2.2385763,5 5,5 l 4,0 c 2.761424,0 5,-2.238576 5,-5 l 0,-4 c 0,-2.7614237 -2.238576,-5 -5,-5 l -4,0 c -2.7614237,0 -5,2.2385763 -5,5 z"
   id="path93"
   style="fill:url(#linearGradient3803)"
   inkscape:connector-curvature="0" />
</g>
</g>
<g
   transform="translate(0,13)"
   id="g95"
   style="stroke:url(#linearGradient3809)">
<g
   id="g97"
   style="fill:none;stroke:#000000;stroke-linecap:butt;stroke-opacity:1">
  <path
   d="m 0.5,5.5 0,4 c 0,2.761424 2.2385763,5 5,5 l 4,0 c 2.761424,0 5,-2.238576 5,-5 l 0,-4 c 0,-2.7614237 -2.238576,-5 -5,-5 l -4,0 c -2.7614237,0 -5,2.2385763 -5,5 z"
   id="path99"
   inkscape:connector-curvature="0" />
</g>
</g>
<g
   id="g101"
   style="stroke:url(#linearGradient3841)">
<g
   transform="translate(12,0)"
   id="g103"
   style="stroke:url(#linearGradient3813)">
<g
   id="g105"
   style="fill:url(#linearGradient3811);fill-opacity:1;fill-rule:nonzero;stroke:none">
  <path
   d="m 0.5,5 0,0 c 0,2.4852814 2.0147186,4.5 4.5,4.5 l 0,0 C 7.4852814,9.5 9.5,7.4852814 9.5,5 l 0,0 C 9.5,2.5147186 7.4852814,0.5 5,0.5 l 0,0 C 2.5147186,0.5 0.5,2.5147186 0.5,5 z"
   id="path107"
   style="fill:url(#linearGradient3666)"
   inkscape:connector-curvature="0" />
</g>
</g>
<g
   transform="translate(12,0)"
   id="g109"
   style="stroke:url(#linearGradient3815)">
<g
   id="g111"
   style="fill:none;stroke:#000000;stroke-linecap:butt;stroke-opacity:1">
  <path
   d="m 0.5,5 0,0 c 0,2.4852814 2.0147186,4.5 4.5,4.5 l 0,0 C 7.4852814,9.5 9.5,7.4852814 9.5,5 l 0,0 C 9.5,2.5147186 7.4852814,0.5 5,0.5 l 0,0 C 2.5147186,0.5 0.5,2.5147186 0.5,5 z"
   id="path113"
   inkscape:connector-curvature="0" />
</g>
</g>
<g
   id="g115"
   style="stroke:url(#linearGradient3839)">
<g
   transform="translate(24,0)"
   id="g117"
   style="stroke:url(#linearGradient3819)">
<g
   id="g119"
   style="fill:url(#linearGradient3817);fill-opacity:1;fill-rule:nonzero;stroke:none">
  <path
   d="m 0.5,5 0,0 c 0,2.4852814 2.0147186,4.5 4.5,4.5 l 0,0 C 7.4852814,9.5 9.5,7.4852814 9.5,5 l 0,0 C 9.5,2.5147186 7.4852814,0.5 5,0.5 l 0,0 C 2.5147186,0.5 0.5,2.5147186 0.5,5 z"
   id="path121"
   style="fill:url(#linearGradient3674)"
   inkscape:connector-curvature="0" />
</g>
</g>
<g
   transform="translate(24,0)"
   id="g123"
   style="stroke:url(#linearGradient3821)">
<g
   id="g125"
   style="fill:none;stroke:#000000;stroke-linecap:butt;stroke-opacity:1">
  <path
   d="m 0.5,5 0,0 c 0,2.4852814 2.0147186,4.5 4.5,4.5 l 0,0 C 7.4852814,9.5 9.5,7.4852814 9.5,5 l 0,0 C 9.5,2.5147186 7.4852814,0.5 5,0.5 l 0,0 C 2.5147186,0.5 0.5,2.5147186 0.5,5 z"
   id="path127"
   inkscape:connector-curvature="0" />
</g>
</g>
<g
   id="g129"
   style="stroke:url(#linearGradient3837)">
<g
   transform="translate(17,13)"
   id="g131"
   style="stroke:url(#linearGradient3825)">
<g
   id="g133"
   style="fill:url(#linearGradient3823);fill-opacity:1;fill-rule:nonzero;stroke:none">
  <path
   d="m 0.5,5.5 0,7 c 0,2.761424 2.2385763,5 5,5 l 7,0 c 2.761424,0 5,-2.238576 5,-5 l 0,-7 c 0,-2.7614237 -2.238576,-5 -5,-5 l -7,0 c -2.7614237,0 -5,2.2385763 -5,5 z"
   id="path135"
   style="fill:url(#linearGradient3682)"
   inkscape:connector-curvature="0" />
</g>
</g>
<g
   transform="translate(17,13)"
   id="g137"
   style="stroke:url(#linearGradient3827)">
<g
   id="g139"
   style="fill:none;stroke:#000000;stroke-linecap:butt;stroke-opacity:1">
  <path
   d="m 0.5,5.5 0,7 c 0,2.761424 2.2385763,5 5,5 l 7,0 c 2.761424,0 5,-2.238576 5,-5 l 0,-7 c 0,-2.7614237 -2.238576,-5 -5,-5 l -7,0 c -2.7614237,0 -5,2.2385763 -5,5 z"
   id="path141"
   inkscape:connector-curvature="0" />
</g>
</g>
<g
   id="g143"
   style="stroke:url(#linearGradient3835)">
<g
   transform="translate(36,0)"
   id="g145"
   style="stroke:url(#linearGradient3831)">
<g
   id="g147"
   style="fill:url(#linearGradient3829);fill-opacity:1;fill-rule:nonzero;stroke:none">
  <path
   d="m 0.5,5 0,0 c 0,2.4852814 2.0147186,4.5 4.5,4.5 l 0,0 C 7.4852814,9.5 9.5,7.4852814 9.5,5 l 0,0 C 9.5,2.5147186 7.4852814,0.5 5,0.5 l 0,0 C 2.5147186,0.5 0.5,2.5147186 0.5,5 z"
   id="path149"
   style="fill:url(#linearGradient3690)"
   inkscape:connector-curvature="0" />
</g>
</g>
<g
   transform="translate(36,0)"
   id="g151"
   style="stroke:url(#linearGradient3833)">
<g
   id="g153"
   style="fill:none;stroke:#000000;stroke-linecap:butt;stroke-opacity:1">
  <path
   d="m 0.5,5 0,0 c 0,2.4852814 2.0147186,4.5 4.5,4.5 l 0,0 C 7.4852814,9.5 9.5,7.4852814 9.5,5 l 0,0 C 9.5,2.5147186 7.4852814,0.5 5,0.5 l 0,0 C 2.5147186,0.5 0.5,2.5147186 0.5,5 z"
   id="path155"
   inkscape:connector-curvature="0" />
</g>
</g>
</g>
</g>
</g>
</g>
</g>
</g>
</g>
</svg>