<?xml version="1.0" standalone="no"?>

<svg 
     version="1.1"
     baseProfile="full"
     xmlns="http://www.w3.org/2000/svg"
     xmlns:xlink="http://www.w3.org/1999/xlink"
     xmlns:ev="http://www.w3.org/2001/xml-events"
     xmlns:klighd="http://de.cau.cs.kieler/klighd"
     x="0px"
     y="0px"
     width="116px"
     height="73px"
     viewBox="0 0 116 73"
     >
<title></title>
<desc>Creator: FreeHEP Graphics2D Driver Producer: de.cau.cs.kieler.klighd.piccolo.freehep.SemanticSVGGraphics2D Revision Source:  Date: Friday, September 2, 2022 at 3:42:20 PM Central European Summer Time</desc>
<g stroke-dashoffset="0" stroke-linejoin="miter" stroke-dasharray="none" stroke-width="1" stroke-linecap="butt" stroke-miterlimit="10">
<g fill="#ffffff" fill-rule="nonzero" fill-opacity="1" stroke="none">
  <path d="M 0 0 L 116 0 L 116 73 L 0 73 L 0 0 z"/>
</g>
<g transform="matrix(1, 0, 0, 1, 0, 8.5)">
<g stroke-opacity="1" fill="none" stroke="#000000">
  <path d="M 0.5 0.5 L 19.5 0.5 L 19.5 19.5 L 0.5 19.5 L 0.5 0.5 z"/>
</g>
</g>
<g transform="matrix(1, 0, 0, 1, 3, 12)">
  <text x="0" y="10.0" font-weight="normal" font-size="10.666666984558105px" font-style="normal" fill="#000000" stroke="none" font-family="Helvetica" style="white-space: pre" fill-opacity="1" textLength="14.0px" lengthAdjust="spacingAndGlyphs">n1</text>
</g>
<g transform="matrix(1, 0, 0, 1, 61, 28.5)">
<g stroke-opacity="1" fill="none" stroke="#000000">
  <path d="M 0.5 0.5 L 19.5 0.5 L 19.5 19.5 L 0.5 19.5 L 0.5 0.5 z"/>
</g>
</g>
<g transform="matrix(1, 0, 0, 1, 64, 32)">
  <text x="0" y="10.0" font-weight="normal" font-size="10.666666984558105px" font-style="normal" fill="#000000" stroke="none" font-family="Helvetica" style="white-space: pre" fill-opacity="1" textLength="14.0px" lengthAdjust="spacingAndGlyphs">n2</text>
</g>
<g transform="matrix(1, 0, 0, 1, 96, 31.833332061767578)">
<g stroke-opacity="1" fill="none" stroke="#000000">
  <path d="M 0.5 0.5 L 19.5 0.5 L 19.5 19.5 L 0.5 19.5 L 0.5 0.5 z"/>
</g>
</g>
<g transform="matrix(1, 0, 0, 1, 99, 35.33333206176758)">
  <text x="0" y="10.0" font-weight="normal" font-size="10.666666984558105px" font-style="normal" fill="#000000" stroke="none" font-family="Helvetica" style="white-space: pre" fill-opacity="1" textLength="14.0px" lengthAdjust="spacingAndGlyphs">n3</text>
</g>
<g transform="matrix(1, 0, 0, 1, 61, 3.5)">
<g stroke-opacity="1" fill="none" stroke="#000000">
  <path d="M 0.5 0.5 L 19.5 0.5 L 19.5 19.5 L 0.5 19.5 L 0.5 0.5 z"/>
</g>
</g>
<g transform="matrix(1, 0, 0, 1, 64, 7)">
  <text x="0" y="10.0" font-weight="normal" font-size="10.666666984558105px" font-style="normal" fill="#000000" stroke="none" font-family="Helvetica" style="white-space: pre" fill-opacity="1" textLength="14.0px" lengthAdjust="spacingAndGlyphs">n4</text>
</g>
<g transform="matrix(1, 0, 0, 1, -12, -8.5)">
<g stroke-opacity="1" fill="none" stroke="#000000">
  <path d="M 32 27 L 37 27 L 37 47 L 73 47"/>
</g>
</g>
<g transform="matrix(1, 0, 0, 1, 53, 35.5)">
<g fill="#000000" fill-rule="nonzero" fill-opacity="1" stroke="none">
  <path d="M 0 0 L 3.200000047683716 3 L 0 6 L 8 3 z"/>
</g>
</g>
<g transform="matrix(1, 0, 0, 1, 53, 35.5)">
<g stroke-opacity="1" stroke-linejoin="round" fill="none" stroke="#000000">
  <path d="M 0 0 L 3.200000047683716 3 L 0 6 L 8 3 z"/>
</g>
</g>
<g transform="matrix(1, 0, 0, 1, 46, 29.5)">
<g fill="#646464" fill-rule="nonzero" fill-opacity="1" stroke="none">
  <path d="M 0 5 L 0 13 L 4 9 L 0 5 z"/>
</g>
</g>
<g transform="matrix(1, 0, 0, 1, 46, 29.5)">
<g stroke-opacity="1" fill="none" stroke="#646464">
  <path d="M 0 5 L 0 13 L 4 9 L 0 5 z"/>
</g>
</g>
<g transform="matrix(1, 0, 0, 1, 35, 29.5)">
<g fill="#ffffff" fill-rule="nonzero" fill-opacity="1" stroke="none">
  <path d="M 0.5 0.5 L 10.5 0.5 L 10.5 17.5 L 0.5 17.5 L 0.5 0.5 z"/>
</g>
</g>
<g transform="matrix(1, 0, 0, 1, 35, 29.5)">
<g stroke-opacity="0" fill="none" stroke="#000000">
  <path d="M 0.5 0.5 L 10.5 0.5 L 10.5 17.5 L 0.5 17.5 L 0.5 0.5 z"/>
</g>
</g>
<g transform="matrix(1, 0, 0, 1, 37, 31.5)">
  <text x="0" y="10.0" font-weight="normal" font-size="10.666666984558105px" font-style="normal" fill="#000000" stroke="none" font-family="Helvetica" style="white-space: pre" fill-opacity="1" textLength="7.0px" lengthAdjust="spacingAndGlyphs">2</text>
</g>
<g transform="matrix(1, 0, 0, 1, -12, -8.5)">
<g stroke-opacity="1" fill="none" stroke="#000000">
  <path d="M 32 32 L 34.5 32 L 34.5 68 L 95.5 68 L 95.5 53.66666793823242 L 108 53.66666793823242"/>
</g>
</g>
<g transform="matrix(1, 0, 0, 1, 88, 42.16666793823242)">
<g fill="#000000" fill-rule="nonzero" fill-opacity="1" stroke="none">
  <path d="M 0 0 L 3.200000047683716 3 L 0 6 L 8 3 z"/>
</g>
</g>
<g transform="matrix(1, 0, 0, 1, 88, 42.16666793823242)">
<g stroke-opacity="1" stroke-linejoin="round" fill="none" stroke="#000000">
  <path d="M 0 0 L 3.200000047683716 3 L 0 6 L 8 3 z"/>
</g>
</g>
<g transform="matrix(1, 0, 0, 1, 46, 50.5)">
<g fill="#646464" fill-rule="nonzero" fill-opacity="1" stroke="none">
  <path d="M 0 5 L 0 13 L 4 9 L 0 5 z"/>
</g>
</g>
<g transform="matrix(1, 0, 0, 1, 46, 50.5)">
<g stroke-opacity="1" fill="none" stroke="#646464">
  <path d="M 0 5 L 0 13 L 4 9 L 0 5 z"/>
</g>
</g>
<g transform="matrix(1, 0, 0, 1, 35, 50.5)">
<g fill="#ffffff" fill-rule="nonzero" fill-opacity="1" stroke="none">
  <path d="M 0.5 0.5 L 10.5 0.5 L 10.5 17.5 L 0.5 17.5 L 0.5 0.5 z"/>
</g>
</g>
<g transform="matrix(1, 0, 0, 1, 35, 50.5)">
<g stroke-opacity="0" fill="none" stroke="#000000">
  <path d="M 0.5 0.5 L 10.5 0.5 L 10.5 17.5 L 0.5 17.5 L 0.5 0.5 z"/>
</g>
</g>
<g transform="matrix(1, 0, 0, 1, 37, 52.5)">
  <text x="0" y="10.0" font-weight="normal" font-size="10.666666984558105px" font-style="normal" fill="#000000" stroke="none" font-family="Helvetica" style="white-space: pre" fill-opacity="1" textLength="7.0px" lengthAdjust="spacingAndGlyphs">3</text>
</g>
<g transform="matrix(1, 0, 0, 1, -12, -8.5)">
<g stroke-opacity="1" fill="none" stroke="#000000">
  <path d="M 93 47 L 108 47"/>
</g>
</g>
<g transform="matrix(1, 0, 0, 1, 88, 35.5)">
<g fill="#000000" fill-rule="nonzero" fill-opacity="1" stroke="none">
  <path d="M 0 0 L 3.200000047683716 3 L 0 6 L 8 3 z"/>
</g>
</g>
<g transform="matrix(1, 0, 0, 1, 88, 35.5)">
<g stroke-opacity="1" stroke-linejoin="round" fill="none" stroke="#000000">
  <path d="M 0 0 L 3.200000047683716 3 L 0 6 L 8 3 z"/>
</g>
</g>
<g transform="matrix(1, 0, 0, 1, -12, -8.5)">
<g stroke-opacity="1" fill="none" stroke="#000000">
  <path d="M 32 22 L 73 22"/>
</g>
</g>
<g transform="matrix(1, 0, 0, 1, 53, 10.5)">
<g fill="#000000" fill-rule="nonzero" fill-opacity="1" stroke="none">
  <path d="M 0 0 L 3.200000047683716 3 L 0 6 L 8 3 z"/>
</g>
</g>
<g transform="matrix(1, 0, 0, 1, 53, 10.5)">
<g stroke-opacity="1" stroke-linejoin="round" fill="none" stroke="#000000">
  <path d="M 0 0 L 3.200000047683716 3 L 0 6 L 8 3 z"/>
</g>
</g>
<g transform="matrix(1, 0, 0, 1, 46, 4.5)">
<g fill="#646464" fill-rule="nonzero" fill-opacity="1" stroke="none">
  <path d="M 0 5 L 0 13 L 4 9 L 0 5 z"/>
</g>
</g>
<g transform="matrix(1, 0, 0, 1, 46, 4.5)">
<g stroke-opacity="1" fill="none" stroke="#646464">
  <path d="M 0 5 L 0 13 L 4 9 L 0 5 z"/>
</g>
</g>
<g transform="matrix(1, 0, 0, 1, 35, 4.5)">
<g fill="#ffffff" fill-rule="nonzero" fill-opacity="1" stroke="none">
  <path d="M 0.5 0.5 L 10.5 0.5 L 10.5 17.5 L 0.5 17.5 L 0.5 0.5 z"/>
</g>
</g>
<g transform="matrix(1, 0, 0, 1, 35, 4.5)">
<g stroke-opacity="0" fill="none" stroke="#000000">
  <path d="M 0.5 0.5 L 10.5 0.5 L 10.5 17.5 L 0.5 17.5 L 0.5 0.5 z"/>
</g>
</g>
<g transform="matrix(1, 0, 0, 1, 37, 6.5)">
  <text x="0" y="10.0" font-weight="normal" font-size="10.666666984558105px" font-style="normal" fill="#000000" stroke="none" font-family="Helvetica" style="white-space: pre" fill-opacity="1" textLength="7.0px" lengthAdjust="spacingAndGlyphs">1</text>
</g>
</g>
</svg>
