<?xml version="1.0" encoding="UTF-8" standalone="no"?>
<svg
   xmlns:dc="http://purl.org/dc/elements/1.1/"
   xmlns:cc="http://creativecommons.org/ns#"
   xmlns:rdf="http://www.w3.org/1999/02/22-rdf-syntax-ns#"
   xmlns:svg="http://www.w3.org/2000/svg"
   xmlns="http://www.w3.org/2000/svg"
   xmlns:sodipodi="http://sodipodi.sourceforge.net/DTD/sodipodi-0.dtd"
   xmlns:inkscape="http://www.inkscape.org/namespaces/inkscape"
   viewBox="0 0 283.69346 93.365913"
   version="1.1"
   id="svg1083"
   sodipodi:docname="eclipse_foundation_logo.svg"
   width="283.69345"
   height="93.365913"
   inkscape:version="0.92.2 2405546, 2018-03-11">
  <metadata
     id="metadata1087">
    <rdf:RDF>
      <cc:Work
         rdf:about="">
        <dc:format>image/svg+xml</dc:format>
        <dc:type
           rdf:resource="http://purl.org/dc/dcmitype/StillImage" />
        <dc:title>EF_WHT_svg</dc:title>
      </cc:Work>
    </rdf:RDF>
  </metadata>
  <sodipodi:namedview
     pagecolor="#ffffff"
     bordercolor="#666666"
     borderopacity="1"
     objecttolerance="10"
     gridtolerance="10"
     guidetolerance="10"
     inkscape:pageopacity="0"
     inkscape:pageshadow="2"
     inkscape:window-width="1311"
     inkscape:window-height="830"
     id="namedview1085"
     showgrid="false"
     fit-margin-top="1"
     fit-margin-left="1"
     fit-margin-right="1"
     fit-margin-bottom="1"
     inkscape:zoom="1.7936682"
     inkscape:cx="152.21739"
     inkscape:cy="42.96"
     inkscape:window-x="0"
     inkscape:window-y="0"
     inkscape:window-maximized="0"
     inkscape:current-layer="svg1083" />
  <defs
     id="defs1068">
    <style
       id="style1066">.cls-1{fill:#fff;}</style>
  </defs>
  <title
     id="title1070">EF_WHT_svg</title>
  <g
     id="Layer_1"
     data-name="Layer 1"
     transform="translate(-50.216562,-47.094083)">
    <path
       class="cls-1"
       d="m 317.31,132.31 -8.67,-11 h -2.71 V 139 h 3.34 v -11.91 l 9.31,11.91 h 2.07 v -17.68 h -3.34 z M 284.9,124 c 4.17,0 5.84,3.34 5.79,6.32 -0.05,2.98 -1.62,6 -5.79,6 -4.17,0 -5.74,-3.11 -5.82,-6 -0.08,-2.89 1.65,-6.32 5.82,-6.32 z m 0,-3 c -6.12,0 -9.1,4.68 -9.1,9.33 0,4.65 2.88,9.13 9.1,9.13 6.22,0 9,-4.58 9.08,-9.16 0.08,-4.58 -2.98,-9.3 -9.08,-9.3 z m -21.24,18 v -17.68 h -3.31 V 139 Z m -23.56,0 h 3.34 v -14.65 h 5.62 v -3 h -14.57 v 3 h 5.61 z m -18.9,-6.44 h -6.58 L 217.91,125 Z M 224,139 h 3.64 l -7.94,-17.72 h -3.64 L 208.15,139 h 3.61 l 1.52,-3.33 h 9.26 z m -38,-14.56 h 3.64 c 3.84,0 5.46,2.76 5.54,5.52 0.08,2.76 -1.52,5.83 -5.54,5.83 H 186 Z m 3.64,-3.16 h -7 V 139 h 7 c 6.2,0 8.93,-4.52 8.85,-9 -0.08,-4.48 -2.75,-8.68 -8.82,-8.68 z m -22.37,11 -8.68,-11 h -2.7 V 139 h 3.33 v -11.91 l 9.34,11.91 h 2.08 v -17.68 h -3.34 z m -27.46,-10.94 v 10.14 c 0,3 -1.57,4.88 -4.32,4.88 -2.75,0 -4.58,-1.7 -4.58,-4.88 v -10.11 h -3.31 v 10.14 c 0,5.33 3.61,7.91 7.86,7.91 4.45,0 7.66,-2.68 7.66,-7.91 v -10.14 z m -33,2.65 c 4.17,0 5.84,3.34 5.79,6.32 -0.05,2.98 -1.62,6 -5.79,6 -4.17,0 -5.74,-3.11 -5.82,-6 -0.08,-2.89 1.68,-6.31 5.86,-6.31 z m 0,-3 c -6.12,0 -9.11,4.68 -9.11,9.33 0,4.65 2.89,9.13 9.11,9.13 6.22,0 9,-4.58 9.08,-9.16 0.08,-4.58 -2.95,-9.29 -9.04,-9.29 z M 77.07,139 v -6.55 h 8.87 v -3.08 h -8.87 v -4.83 h 9.38 v -3.21 H 73.73 V 139 Z"
       id="path1072"
       inkscape:connector-curvature="0"
       style="fill:#ffffff" />
    <path
       class="cls-1"
       d="m 321,102.76 h -22.19 v -8.91 h 21.37 V 86.91 H 298.81 V 77.77 H 321 v -7.22 h -29.58 v 39.54 H 321 Z M 281,77.1 c -3,-6.1 -9.37,-7.85 -15.51,-7.85 -7.28,0.06 -15.29,3.39 -15.29,11.51 0,8.86 7.45,11 15.51,12 5.25,0.56 9.14,2.09 9.14,5.81 0,4.29 -4.4,5.92 -9.08,5.92 -4.68,0 -9.37,-1.92 -11.11,-6.26 l -6.21,3.22 c 2.93,7.21 9.14,9.7 17.21,9.7 8.79,0 16.58,-3.78 16.58,-12.58 0,-9.42 -7.67,-11.56 -15.91,-12.58 -4.74,-0.56 -8.8,-1.52 -8.8,-5 0,-2.94 2.65,-5.25 8.18,-5.25 4.29,0 8,2.14 9.37,4.4 z m -53.35,-6.55 c -6.2,0 -12.41,0 -18.61,0 v 39.54 h 7.45 V 98.47 h 11.16 c 19.35,0 19.29,-27.92 0,-27.92 z m -11.16,7.11 h 11.16 c 9.48,0 9.54,14 0,14 h -11.16 z m -18,32.43 V 70.55 h -7.39 v 39.54 z m -44,-39.54 v 39.54 h 27.75 v -6.88 H 162 V 70.55 Z M 142.3,100 a 14.55,14.55 0 0 1 -9.93,4 c -9.75,0 -13.53,-6.82 -13.59,-13.37 -0.06,-6.55 4.06,-13.7 13.59,-13.7 a 13.58,13.58 0 0 1 9.54,3.72 l 5,-4.8 a 20.39,20.39 0 0 0 -14.5,-6 c -14.27,0 -21,10.49 -20.92,20.81 0.08,10.32 6.22,20.34 20.88,20.34 a 20.83,20.83 0 0 0 15,-5.86 z m -39,2.76 H 81.12 v -8.91 h 21.37 V 86.91 H 81.12 v -9.14 h 22.16 V 70.55 H 73.73 v 39.54 h 29.55 z"
       id="path1074"
       inkscape:connector-curvature="0"
       style="fill:#ffffff" />
    <path
       class="cls-1"
       d="m 61.41,66.53 c 9,-14.1 27.15,-19 42.25,-12.25 -0.33,-0.23 -0.67,-0.47 -1,-0.69 a 33.16,33.16 0 1 0 -35.8,55.82 c 0.35,0.23 0.7,0.43 1.05,0.64 C 55.44,99.15 52.36,80.64 61.41,66.53 Z"
       id="path1076"
       inkscape:connector-curvature="0"
       style="fill:#ffffff" />
    <path
       class="cls-1"
       d="m 326.71,71.54 h -1.59 v 4.6 h -1 v -4.6 h -1.59 v -1 h 4.2 z"
       id="path1078"
       inkscape:connector-curvature="0"
       style="fill:#ffffff" />
    <path
       class="cls-1"
       d="m 332.91,76.14 h -1 l -0.49,-3.85 -1.47,2.65 -1.39,-2.54 -0.49,3.74 H 327 l 0.75,-5.6 h 0.85 l 1.4,2.55 1.37,-2.55 h 0.84 z"
       id="path1080"
       inkscape:connector-curvature="0"
       style="fill:#ffffff" />
  </g>
</svg>
