<?xml version="1.0" encoding="UTF-8" standalone="no"?>
<svg
   xmlns:dc="http://purl.org/dc/elements/1.1/"
   xmlns:cc="http://creativecommons.org/ns#"
   xmlns:rdf="http://www.w3.org/1999/02/22-rdf-syntax-ns#"
   xmlns:svg="http://www.w3.org/2000/svg"
   xmlns="http://www.w3.org/2000/svg"
   xmlns:sodipodi="http://sodipodi.sourceforge.net/DTD/sodipodi-0.dtd"
   xmlns:inkscape="http://www.inkscape.org/namespaces/inkscape"
   version="1.1"
   xml:space="preserve"
   x="0px"
   y="0px"
   width="277px"
   height="224px"
   viewBox="0 0 277 224"
   id="svg761"
   sodipodi:docname="scchartsregions-subrows-annotated.svg"
   inkscape:version="0.92.3 (2405546, 2018-03-11)"><metadata
   id="metadata767"><rdf:RDF><cc:Work
       rdf:about=""><dc:format>image/svg+xml</dc:format><dc:type
         rdf:resource="http://purl.org/dc/dcmitype/StillImage" /><dc:title /></cc:Work></rdf:RDF></metadata><defs
   id="defs765" /><sodipodi:namedview
   pagecolor="#ffffff"
   bordercolor="#666666"
   borderopacity="1"
   objecttolerance="10"
   gridtolerance="10"
   guidetolerance="10"
   inkscape:pageopacity="0"
   inkscape:pageshadow="2"
   inkscape:window-width="1853"
   inkscape:window-height="1025"
   id="namedview763"
   showgrid="false"
   inkscape:zoom="2.1071429"
   inkscape:cx="4.5761684"
   inkscape:cy="124.4692"
   inkscape:window-x="1987"
   inkscape:window-y="27"
   inkscape:window-maximized="1"
   inkscape:current-layer="svg761" />

<desc
   id="desc4">Creator: FreeHEP Graphics2D Driver Producer: de.cau.cs.kieler.klighd.piccolo.freehep.SemanticSVGGraphics2D Revision Source:  Date: Wednesday, May 6, 2020 at 1:02:07 PM Central European Summer Time</desc>
<g
   stroke-miterlimit="10"
   id="g759"
   style="stroke-width:1;stroke-linecap:square;stroke-linejoin:miter;stroke-miterlimit:10;stroke-dasharray:none;stroke-dashoffset:0">
<g
   id="g8"
   style="fill:#ffffff;fill-opacity:1;fill-rule:nonzero;stroke:none">
  <path
   d="M 0,0 H 277 V 224 H 0 Z"
   id="path6"
   inkscape:connector-curvature="0" />
</g>
<defs
   id="defs15">
  <linearGradient
   id="gradient-0"
   gradientUnits="objectBoundingBox"
   gradientTransform="rotate(90)">
    <stop
   offset="0"
   stop-color="#f8f9fd"
   opacity-stop="1.0"
   id="stop10" />
    <stop
   offset="1"
   stop-color="#cddcf3"
   opacity-stop="1.0"
   id="stop12" />
  </linearGradient>
</defs>
<g
   id="g757"
   style="stroke:url(#gradient-0)">
<g
   id="g19"
   style="fill:url(#gradient-0);fill-opacity:1;fill-rule:nonzero;stroke:none">
  <path
   d="m 0.5,8.5 v 207 c 0,4.41828 3.581722,8 8,8 h 260 c 4.41828,0 8,-3.58172 8,-8 V 8.5 c 0,-4.418278 -3.58172,-8 -8,-8 H 8.5 c -4.418278,0 -8,3.581722 -8,8 z"
   id="path17"
   inkscape:connector-curvature="0" />
</g>
<g
   id="g23"
   style="fill:none;stroke:#bebebe;stroke-linecap:butt;stroke-opacity:1">
  <path
   d="m 0.5,8.5 v 207 c 0,4.41828 3.581722,8 8,8 h 260 c 4.41828,0 8,-3.58172 8,-8 V 8.5 c 0,-4.418278 -3.58172,-8 -8,-8 H 8.5 c -4.418278,0 -8,3.581722 -8,8 z"
   id="path21"
   inkscape:connector-curvature="0" />
</g>
<g
   transform="translate(110.5,8)"
   id="g34">
<clipPath
   id="clip1">
  <path
   d="m -110.5,-8 v 224 h 277 V -8 Z"
   id="path25"
   inkscape:connector-curvature="0" />
</clipPath>
<g
   clip-path="url(#clip1)"
   id="g32">
<text
   font-weight="normal"
   font-size="14.666666984558105px"
   font-style="normal"
   x="0"
   y="0"
   id="text30"
   style="font-style:normal;font-weight:normal;font-size:14.66666698px;font-family:Helvetica;fill:#000000;fill-opacity:1;stroke:none"><tspan
     x="0"
     dy="12"
     id="tspan28">Example</tspan></text>


</g>
</g>
<g
   transform="translate(7,30)"
   id="g40">
<g
   id="g38"
   style="fill:#ffffff;fill-opacity:1;fill-rule:nonzero;stroke:none">
  <path
   d="m 0.5,0.5 h 22 v 18 h -22 z"
   id="path36"
   inkscape:connector-curvature="0" />
</g>
</g>
<g
   transform="translate(7,30)"
   id="g46">
<g
   id="g44"
   style="fill:none;stroke:#bebebe;stroke-linecap:butt;stroke-opacity:1">
  <path
   d="m 0.5,0.5 h 22 v 18 h -22 z"
   id="path42"
   inkscape:connector-curvature="0" />
</g>
</g>
<g
   transform="translate(7,30)"
   id="g52">
<g
   id="g50"
   style="fill:#bebebe;fill-opacity:1;fill-rule:nonzero;stroke:none">
  <path
   d="M 0.5,0.5 V 19 L 18,0.5 Z"
   id="path48"
   inkscape:connector-curvature="0" />
</g>
</g>
<g
   transform="translate(9,30)"
   id="g63">
<clipPath
   id="clip2">
  <path
   d="M -9,-30 V 194 H 268 V -30 Z"
   id="path54"
   inkscape:connector-curvature="0" />
</clipPath>
<g
   clip-path="url(#clip2)"
   id="g61">
<text
   font-weight="bold"
   font-size="10.666666984558105px"
   font-style="normal"
   x="0"
   y="0"
   id="text59"
   style="font-style:normal;font-weight:bold;font-size:10.66666698px;font-family:Helvetica;fill:#ffffff;fill-opacity:1;stroke:none"><tspan
     x="0"
     dy="9"
     id="tspan57">+</tspan></text>


</g>
</g>
<g
   transform="translate(21,31)"
   id="g74">
<clipPath
   id="clip3">
  <path
   d="M -21,-31 V 193 H 256 V -31 Z"
   id="path65"
   inkscape:connector-curvature="0" />
</clipPath>
<g
   clip-path="url(#clip3)"
   id="g72">
<text
   font-weight="normal"
   font-size="13.333333969116211px"
   font-style="normal"
   x="0"
   y="0"
   id="text70"
   style="font-style:normal;font-weight:normal;font-size:13.33333397px;font-family:Helvetica;fill:#696969;fill-opacity:1;stroke:none"><tspan
     x="0"
     dy="11"
     id="tspan68">A</tspan></text>


</g>
</g>
<g
   transform="translate(35,30)"
   id="g80">
<g
   id="g78"
   style="fill:#ffffff;fill-opacity:1;fill-rule:nonzero;stroke:none">
  <path
   d="m 0.5,0.5 h 22 v 18 h -22 z"
   id="path76"
   inkscape:connector-curvature="0" />
</g>
</g>
<g
   transform="translate(35,30)"
   id="g86">
<g
   id="g84"
   style="fill:none;stroke:#bebebe;stroke-linecap:butt;stroke-opacity:1">
  <path
   d="m 0.5,0.5 h 22 v 18 h -22 z"
   id="path82"
   inkscape:connector-curvature="0" />
</g>
</g>
<g
   transform="translate(35,30)"
   id="g92">
<g
   id="g90"
   style="fill:#bebebe;fill-opacity:1;fill-rule:nonzero;stroke:none">
  <path
   d="M 0.5,0.5 V 19 L 18,0.5 Z"
   id="path88"
   inkscape:connector-curvature="0" />
</g>
</g>
<g
   transform="translate(37,30)"
   id="g103">
<clipPath
   id="clip4">
  <path
   d="M -37,-30 V 194 H 240 V -30 Z"
   id="path94"
   inkscape:connector-curvature="0" />
</clipPath>
<g
   clip-path="url(#clip4)"
   id="g101">
<text
   font-weight="bold"
   font-size="10.666666984558105px"
   font-style="normal"
   x="0"
   y="0"
   id="text99"
   style="font-style:normal;font-weight:bold;font-size:10.66666698px;font-family:Helvetica;fill:#ffffff;fill-opacity:1;stroke:none"><tspan
     x="0"
     dy="9"
     id="tspan97">+</tspan></text>


</g>
</g>
<g
   transform="translate(49,31)"
   id="g114">
<clipPath
   id="clip5">
  <path
   d="M -49,-31 V 193 H 228 V -31 Z"
   id="path105"
   inkscape:connector-curvature="0" />
</clipPath>
<g
   clip-path="url(#clip5)"
   id="g112">
<text
   font-weight="normal"
   font-size="13.333333969116211px"
   font-style="normal"
   x="0"
   y="0"
   id="text110"
   style="font-style:normal;font-weight:normal;font-size:13.33333397px;font-family:Helvetica;fill:#696969;fill-opacity:1;stroke:none"><tspan
     x="0"
     dy="11"
     id="tspan108">B</tspan></text>


</g>
</g>
<g
   transform="translate(63,30)"
   id="g120">
<g
   id="g118"
   style="fill:#ffffff;fill-opacity:1;fill-rule:nonzero;stroke:none">
  <path
   d="m 0.5,0.5 h 23 v 18 h -23 z"
   id="path116"
   inkscape:connector-curvature="0" />
</g>
</g>
<g
   transform="translate(63,30)"
   id="g126">
<g
   id="g124"
   style="fill:none;stroke:#bebebe;stroke-linecap:butt;stroke-opacity:1">
  <path
   d="m 0.5,0.5 h 23 v 18 h -23 z"
   id="path122"
   inkscape:connector-curvature="0" />
</g>
</g>
<g
   transform="translate(63,30)"
   id="g132">
<g
   id="g130"
   style="fill:#bebebe;fill-opacity:1;fill-rule:nonzero;stroke:none">
  <path
   d="M 0.5,0.5 V 19 L 18,0.5 Z"
   id="path128"
   inkscape:connector-curvature="0" />
</g>
</g>
<g
   transform="translate(65,30)"
   id="g143">
<clipPath
   id="clip6">
  <path
   d="M -65,-30 V 194 H 212 V -30 Z"
   id="path134"
   inkscape:connector-curvature="0" />
</clipPath>
<g
   clip-path="url(#clip6)"
   id="g141">
<text
   font-weight="bold"
   font-size="10.666666984558105px"
   font-style="normal"
   x="0"
   y="0"
   id="text139"
   style="font-style:normal;font-weight:bold;font-size:10.66666698px;font-family:Helvetica;fill:#ffffff;fill-opacity:1;stroke:none"><tspan
     x="0"
     dy="9"
     id="tspan137">+</tspan></text>


</g>
</g>
<g
   transform="translate(77,31)"
   id="g154">
<clipPath
   id="clip7">
  <path
   d="M -77,-31 V 193 H 200 V -31 Z"
   id="path145"
   inkscape:connector-curvature="0" />
</clipPath>
<g
   clip-path="url(#clip7)"
   id="g152">
<text
   font-weight="normal"
   font-size="13.333333969116211px"
   font-style="normal"
   x="0"
   y="0"
   id="text150"
   style="font-style:normal;font-weight:normal;font-size:13.33333397px;font-family:Helvetica;fill:#696969;fill-opacity:1;stroke:none"><tspan
     x="0"
     dy="11"
     id="tspan148">C</tspan></text>


</g>
</g>
<g
   transform="translate(7,54)"
   id="g160">
<g
   id="g158"
   style="fill:#ffffff;fill-opacity:1;fill-rule:nonzero;stroke:none">
  <path
   d="m 0.5,0.5 h 23 v 18 h -23 z"
   id="path156"
   inkscape:connector-curvature="0" />
</g>
</g>
<g
   transform="translate(7,54)"
   id="g166">
<g
   id="g164"
   style="fill:none;stroke:#bebebe;stroke-linecap:butt;stroke-opacity:1">
  <path
   d="m 0.5,0.5 h 23 v 18 h -23 z"
   id="path162"
   inkscape:connector-curvature="0" />
</g>
</g>
<g
   transform="translate(7,54)"
   id="g172">
<g
   id="g170"
   style="fill:#bebebe;fill-opacity:1;fill-rule:nonzero;stroke:none">
  <path
   d="M 0.5,0.5 V 19 L 18,0.5 Z"
   id="path168"
   inkscape:connector-curvature="0" />
</g>
</g>
<g
   transform="translate(9,54)"
   id="g183">
<clipPath
   id="clip8">
  <path
   d="M -9,-54 V 170 H 268 V -54 Z"
   id="path174"
   inkscape:connector-curvature="0" />
</clipPath>
<g
   clip-path="url(#clip8)"
   id="g181">
<text
   font-weight="bold"
   font-size="10.666666984558105px"
   font-style="normal"
   x="0"
   y="0"
   id="text179"
   style="font-style:normal;font-weight:bold;font-size:10.66666698px;font-family:Helvetica;fill:#ffffff;fill-opacity:1;stroke:none"><tspan
     x="0"
     dy="9"
     id="tspan177">+</tspan></text>


</g>
</g>
<g
   transform="translate(21,55)"
   id="g194">
<clipPath
   id="clip9">
  <path
   d="M -21,-55 V 169 H 256 V -55 Z"
   id="path185"
   inkscape:connector-curvature="0" />
</clipPath>
<g
   clip-path="url(#clip9)"
   id="g192">
<text
   font-weight="normal"
   font-size="13.333333969116211px"
   font-style="normal"
   x="0"
   y="0"
   id="text190"
   style="font-style:normal;font-weight:normal;font-size:13.33333397px;font-family:Helvetica;fill:#696969;fill-opacity:1;stroke:none"><tspan
     x="0"
     dy="11"
     id="tspan188">D</tspan></text>


</g>
</g>
<g
   transform="translate(36,54)"
   id="g200">
<g
   id="g198"
   style="fill:#ffffff;fill-opacity:1;fill-rule:nonzero;stroke:none">
  <path
   d="m 0.5,0.5 h 22 v 18 h -22 z"
   id="path196"
   inkscape:connector-curvature="0" />
</g>
</g>
<g
   transform="translate(36,54)"
   id="g206">
<g
   id="g204"
   style="fill:none;stroke:#bebebe;stroke-linecap:butt;stroke-opacity:1">
  <path
   d="m 0.5,0.5 h 22 v 18 h -22 z"
   id="path202"
   inkscape:connector-curvature="0" />
</g>
</g>
<g
   transform="translate(36,54)"
   id="g212">
<g
   id="g210"
   style="fill:#bebebe;fill-opacity:1;fill-rule:nonzero;stroke:none">
  <path
   d="M 0.5,0.5 V 19 L 18,0.5 Z"
   id="path208"
   inkscape:connector-curvature="0" />
</g>
</g>
<g
   transform="translate(38,54)"
   id="g223">
<clipPath
   id="clip10">
  <path
   d="M -38,-54 V 170 H 239 V -54 Z"
   id="path214"
   inkscape:connector-curvature="0" />
</clipPath>
<g
   clip-path="url(#clip10)"
   id="g221">
<text
   font-weight="bold"
   font-size="10.666666984558105px"
   font-style="normal"
   x="0"
   y="0"
   id="text219"
   style="font-style:normal;font-weight:bold;font-size:10.66666698px;font-family:Helvetica;fill:#ffffff;fill-opacity:1;stroke:none"><tspan
     x="0"
     dy="9"
     id="tspan217">+</tspan></text>


</g>
</g>
<g
   transform="translate(50,55)"
   id="g234">
<clipPath
   id="clip11">
  <path
   d="M -50,-55 V 169 H 227 V -55 Z"
   id="path225"
   inkscape:connector-curvature="0" />
</clipPath>
<g
   clip-path="url(#clip11)"
   id="g232">
<text
   font-weight="normal"
   font-size="13.333333969116211px"
   font-style="normal"
   x="0"
   y="0"
   id="text230"
   style="font-style:normal;font-weight:normal;font-size:13.33333397px;font-family:Helvetica;fill:#696969;fill-opacity:1;stroke:none"><tspan
     x="0"
     dy="11"
     id="tspan228">E</tspan></text>


</g>
</g>
<g
   transform="translate(92,30)"
   id="g240">
<g
   id="g238"
   style="fill:#ffffff;fill-opacity:1;fill-rule:nonzero;stroke:none">
  <path
   d="m 0.5,0.5 h 53 v 63 h -53 z"
   id="path236"
   inkscape:connector-curvature="0" />
</g>
</g>
<g
   transform="translate(92,30)"
   id="g246">
<g
   id="g244"
   style="fill:none;stroke:#bebebe;stroke-linecap:butt;stroke-opacity:1">
  <path
   d="m 0.5,0.5 h 53 v 63 h -53 z"
   id="path242"
   inkscape:connector-curvature="0" />
</g>
</g>
<g
   id="g755"
   style="stroke:url(#gradient-0)">
<g
   transform="translate(102,50)"
   id="g252">
<g
   id="g250"
   style="fill:url(#gradient-0);fill-opacity:1;fill-rule:nonzero;stroke:none">
  <path
   d="m 1.5,17 v 0 c 0,8.560414 6.9395864,15.5 15.5,15.5 v 0 c 8.560414,0 15.5,-6.939586 15.5,-15.5 v 0 C 32.5,8.4395864 25.560414,1.5 17,1.5 v 0 C 8.4395864,1.5 1.5,8.4395864 1.5,17 Z"
   id="path248"
   inkscape:connector-curvature="0" />
</g>
</g>
<g
   transform="translate(102,50)"
   id="g258">
<g
   id="g256"
   style="fill:none;stroke:#000000;stroke-width:3;stroke-linecap:butt;stroke-opacity:1">
  <path
   d="m 1.5,17 v 0 c 0,8.560414 6.9395864,15.5 15.5,15.5 v 0 c 8.560414,0 15.5,-6.939586 15.5,-15.5 v 0 C 32.5,8.4395864 25.560414,1.5 17,1.5 v 0 C 8.4395864,1.5 1.5,8.4395864 1.5,17 Z"
   id="path254"
   inkscape:connector-curvature="0" />
</g>
</g>
<g
   transform="translate(113.5,59)"
   id="g269">
<clipPath
   id="clip12">
  <path
   d="m -113.5,-59 v 224 h 277 V -59 Z"
   id="path260"
   inkscape:connector-curvature="0" />
</clipPath>
<g
   clip-path="url(#clip12)"
   id="g267">
<text
   font-weight="bold"
   font-size="14.666666984558105px"
   font-style="normal"
   x="0"
   y="0"
   id="text265"
   style="font-style:normal;font-weight:bold;font-size:14.66666698px;font-family:Helvetica;fill:#000000;fill-opacity:1;stroke:none"><tspan
     x="0"
     dy="12"
     id="tspan263">A</tspan></text>


</g>
</g>
<g
   transform="translate(92,30)"
   id="g275">
<g
   id="g273"
   style="fill:#bebebe;fill-opacity:1;fill-rule:nonzero;stroke:none">
  <path
   d="M 0.5,0.5 V 19 L 18,0.5 Z"
   id="path271"
   inkscape:connector-curvature="0" />
</g>
</g>
<g
   transform="translate(95,30)"
   id="g286">
<clipPath
   id="clip13">
  <path
   d="M -95,-30 V 194 H 182 V -30 Z"
   id="path277"
   inkscape:connector-curvature="0" />
</clipPath>
<g
   clip-path="url(#clip13)"
   id="g284">
<text
   font-weight="bold"
   font-size="10.666666984558105px"
   font-style="normal"
   x="0"
   y="0"
   id="text282"
   style="font-style:normal;font-weight:bold;font-size:10.66666698px;font-family:Helvetica;fill:#ffffff;fill-opacity:1;stroke:none"><tspan
     x="0"
     dy="9"
     id="tspan280">-</tspan></text>


</g>
</g>
<g
   transform="translate(106,31)"
   id="g297">
<clipPath
   id="clip14">
  <path
   d="M -106,-31 V 193 H 171 V -31 Z"
   id="path288"
   inkscape:connector-curvature="0" />
</clipPath>
<g
   clip-path="url(#clip14)"
   id="g295">
<text
   font-weight="normal"
   font-size="13.333333969116211px"
   font-style="normal"
   x="0"
   y="0"
   id="text293"
   style="font-style:normal;font-weight:normal;font-size:13.33333397px;font-family:Helvetica;fill:#696969;fill-opacity:1;stroke:none"><tspan
     x="0"
     dy="11"
     id="tspan291">F</tspan></text>


</g>
</g>
<g
   transform="translate(151,30)"
   id="g303">
<g
   id="g301"
   style="fill:#ffffff;fill-opacity:1;fill-rule:nonzero;stroke:none">
  <path
   d="m 0.5,0.5 h 23 v 18 h -23 z"
   id="path299"
   inkscape:connector-curvature="0" />
</g>
</g>
<g
   transform="translate(151,30)"
   id="g309">
<g
   id="g307"
   style="fill:none;stroke:#bebebe;stroke-linecap:butt;stroke-opacity:1">
  <path
   d="m 0.5,0.5 h 23 v 18 h -23 z"
   id="path305"
   inkscape:connector-curvature="0" />
</g>
</g>
<g
   transform="translate(151,30)"
   id="g315">
<g
   id="g313"
   style="fill:#bebebe;fill-opacity:1;fill-rule:nonzero;stroke:none">
  <path
   d="M 0.5,0.5 V 19 L 18,0.5 Z"
   id="path311"
   inkscape:connector-curvature="0" />
</g>
</g>
<g
   transform="translate(153,30)"
   id="g326">
<clipPath
   id="clip15">
  <path
   d="M -153,-30 V 194 H 124 V -30 Z"
   id="path317"
   inkscape:connector-curvature="0" />
</clipPath>
<g
   clip-path="url(#clip15)"
   id="g324">
<text
   font-weight="bold"
   font-size="10.666666984558105px"
   font-style="normal"
   x="0"
   y="0"
   id="text322"
   style="font-style:normal;font-weight:bold;font-size:10.66666698px;font-family:Helvetica;fill:#ffffff;fill-opacity:1;stroke:none"><tspan
     x="0"
     dy="9"
     id="tspan320">+</tspan></text>


</g>
</g>
<g
   transform="translate(165,31)"
   id="g337">
<clipPath
   id="clip16">
  <path
   d="M -165,-31 V 193 H 112 V -31 Z"
   id="path328"
   inkscape:connector-curvature="0" />
</clipPath>
<g
   clip-path="url(#clip16)"
   id="g335">
<text
   font-weight="normal"
   font-size="13.333333969116211px"
   font-style="normal"
   x="0"
   y="0"
   id="text333"
   style="font-style:normal;font-weight:normal;font-size:13.33333397px;font-family:Helvetica;fill:#696969;fill-opacity:1;stroke:none"><tspan
     x="0"
     dy="11"
     id="tspan331">G</tspan></text>


</g>
</g>
<g
   transform="translate(7,99)"
   id="g343">
<g
   id="g341"
   style="fill:#ffffff;fill-opacity:1;fill-rule:nonzero;stroke:none">
  <path
   d="m 0.5,0.5 h 194 v 117 H 0.5 Z"
   id="path339"
   inkscape:connector-curvature="0" />
</g>
</g>
<g
   transform="translate(7,99)"
   id="g349">
<g
   id="g347"
   style="fill:none;stroke:#bebebe;stroke-linecap:butt;stroke-opacity:1">
  <path
   d="m 0.5,0.5 h 194 v 117 H 0.5 Z"
   id="path345"
   inkscape:connector-curvature="0" />
</g>
</g>
<g
   id="g753"
   style="stroke:url(#gradient-0)">
<g
   transform="translate(17,133.5)"
   id="g355">
<g
   id="g353"
   style="fill:url(#gradient-0);fill-opacity:1;fill-rule:nonzero;stroke:none">
  <path
   d="m 1.5,17 v 0 c 0,8.560414 6.9395864,15.5 15.5,15.5 v 0 c 8.560414,0 15.5,-6.939586 15.5,-15.5 v 0 C 32.5,8.4395864 25.560414,1.5 17,1.5 v 0 C 8.4395864,1.5 1.5,8.4395864 1.5,17 Z"
   id="path351"
   inkscape:connector-curvature="0" />
</g>
</g>
<g
   transform="translate(17,133.5)"
   id="g361">
<g
   id="g359"
   style="fill:none;stroke:#000000;stroke-width:3;stroke-linecap:butt;stroke-opacity:1">
  <path
   d="m 1.5,17 v 0 c 0,8.560414 6.9395864,15.5 15.5,15.5 v 0 c 8.560414,0 15.5,-6.939586 15.5,-15.5 v 0 C 32.5,8.4395864 25.560414,1.5 17,1.5 v 0 C 8.4395864,1.5 1.5,8.4395864 1.5,17 Z"
   id="path357"
   inkscape:connector-curvature="0" />
</g>
</g>
<g
   transform="translate(28.5,142.5)"
   id="g372">
<clipPath
   id="clip17">
  <path
   d="m -28.5,-142.5 v 224 h 277 v -224 z"
   id="path363"
   inkscape:connector-curvature="0" />
</clipPath>
<g
   clip-path="url(#clip17)"
   id="g370">
<text
   font-weight="bold"
   font-size="14.666666984558105px"
   font-style="normal"
   x="0"
   y="0"
   id="text368"
   style="font-style:normal;font-weight:bold;font-size:14.66666698px;font-family:Helvetica;fill:#000000;fill-opacity:1;stroke:none"><tspan
     x="0"
     dy="12"
     id="tspan366">A</tspan></text>


</g>
</g>
<g
   id="g751"
   style="stroke:url(#gradient-0)">
<g
   transform="translate(104,119)"
   id="g378">
<g
   id="g376"
   style="fill:url(#gradient-0);fill-opacity:1;fill-rule:nonzero;stroke:none">
  <path
   d="m 0.5,17 v 0 c 0,9.112698 7.3873016,16.5 16.5,16.5 v 0 c 9.112698,0 16.5,-7.387302 16.5,-16.5 v 0 C 33.5,7.8873016 26.112698,0.5 17,0.5 v 0 C 7.8873016,0.5 0.5,7.8873016 0.5,17 Z"
   id="path374"
   inkscape:connector-curvature="0" />
</g>
</g>
<g
   transform="translate(104,119)"
   id="g384">
<g
   id="g382"
   style="fill:none;stroke:#bebebe;stroke-linecap:butt;stroke-opacity:1">
  <path
   d="m 0.5,17 v 0 c 0,9.112698 7.3873016,16.5 16.5,16.5 v 0 c 9.112698,0 16.5,-7.387302 16.5,-16.5 v 0 C 33.5,7.8873016 26.112698,0.5 17,0.5 v 0 C 7.8873016,0.5 0.5,7.8873016 0.5,17 Z"
   id="path380"
   inkscape:connector-curvature="0" />
</g>
</g>
<g
   transform="translate(115.5,128)"
   id="g395">
<clipPath
   id="clip18">
  <path
   d="M -115.5,-128 V 96 h 277 v -224 z"
   id="path386"
   inkscape:connector-curvature="0" />
</clipPath>
<g
   clip-path="url(#clip18)"
   id="g393">
<text
   font-weight="bold"
   font-size="14.666666984558105px"
   font-style="normal"
   x="0"
   y="0"
   id="text391"
   style="font-style:normal;font-weight:bold;font-size:14.66666698px;font-family:Helvetica;fill:#000000;fill-opacity:1;stroke:none"><tspan
     x="0"
     dy="12"
     id="tspan389">B</tspan></text>


</g>
</g>
<g
   id="g749"
   style="stroke:url(#gradient-0)">
<g
   transform="translate(104,173)"
   id="g401">
<g
   id="g399"
   style="fill:url(#gradient-0);fill-opacity:1;fill-rule:nonzero;stroke:none">
  <path
   d="m 0.5,17 v 0 c 0,9.112698 7.3873016,16.5 16.5,16.5 v 0 c 9.112698,0 16.5,-7.387302 16.5,-16.5 v 0 C 33.5,7.8873016 26.112698,0.5 17,0.5 v 0 C 7.8873016,0.5 0.5,7.8873016 0.5,17 Z"
   id="path397"
   inkscape:connector-curvature="0" />
</g>
</g>
<g
   transform="translate(104,173)"
   id="g407">
<g
   id="g405"
   style="fill:none;stroke:#bebebe;stroke-linecap:butt;stroke-opacity:1">
  <path
   d="m 0.5,17 v 0 c 0,9.112698 7.3873016,16.5 16.5,16.5 v 0 c 9.112698,0 16.5,-7.387302 16.5,-16.5 v 0 C 33.5,7.8873016 26.112698,0.5 17,0.5 v 0 C 7.8873016,0.5 0.5,7.8873016 0.5,17 Z"
   id="path403"
   inkscape:connector-curvature="0" />
</g>
</g>
<g
   transform="translate(115.5,182)"
   id="g418">
<clipPath
   id="clip19">
  <path
   d="M -115.5,-182 V 42 h 277 v -224 z"
   id="path409"
   inkscape:connector-curvature="0" />
</clipPath>
<g
   clip-path="url(#clip19)"
   id="g416">
<text
   font-weight="bold"
   font-size="14.666666984558105px"
   font-style="normal"
   x="0"
   y="0"
   id="text414"
   style="font-style:normal;font-weight:bold;font-size:14.66666698px;font-family:Helvetica;fill:#000000;fill-opacity:1;stroke:none"><tspan
     x="0"
     dy="12"
     id="tspan412">C</tspan></text>


</g>
</g>
<g
   id="g747"
   style="stroke:url(#gradient-0)">
<g
   transform="translate(158,173)"
   id="g424">
<g
   id="g422"
   style="fill:url(#gradient-0);fill-opacity:1;fill-rule:nonzero;stroke:none">
  <path
   d="m 0.5,17 v 0 c 0,9.112698 7.3873016,16.5 16.5,16.5 v 0 c 9.112698,0 16.5,-7.387302 16.5,-16.5 v 0 C 33.5,7.8873016 26.112698,0.5 17,0.5 v 0 C 7.8873016,0.5 0.5,7.8873016 0.5,17 Z"
   id="path420"
   inkscape:connector-curvature="0" />
</g>
</g>
<g
   transform="translate(158,173)"
   id="g430">
<g
   id="g428"
   style="fill:none;stroke:#bebebe;stroke-linecap:butt;stroke-opacity:1">
  <path
   d="m 0.5,17 v 0 c 0,9.112698 7.3873016,16.5 16.5,16.5 v 0 c 9.112698,0 16.5,-7.387302 16.5,-16.5 v 0 C 33.5,7.8873016 26.112698,0.5 17,0.5 v 0 C 7.8873016,0.5 0.5,7.8873016 0.5,17 Z"
   id="path426"
   inkscape:connector-curvature="0" />
</g>
</g>
<g
   transform="translate(169.5,182)"
   id="g441">
<clipPath
   id="clip20">
  <path
   d="M -169.5,-182 V 42 h 277 v -224 z"
   id="path432"
   inkscape:connector-curvature="0" />
</clipPath>
<g
   clip-path="url(#clip20)"
   id="g439">
<text
   font-weight="bold"
   font-size="14.666666984558105px"
   font-style="normal"
   x="0"
   y="0"
   id="text437"
   style="font-style:normal;font-weight:bold;font-size:14.66666698px;font-family:Helvetica;fill:#000000;fill-opacity:1;stroke:none"><tspan
     x="0"
     dy="12"
     id="tspan435">D</tspan></text>


</g>
</g>
<g
   transform="translate(7,99)"
   id="g447">
<g
   id="g445"
   style="fill:none;stroke:#000000;stroke-width:2;stroke-linecap:butt;stroke-opacity:1">
  <path
   d="m 44,51.5 c 10,0 15.75,0 20.541664,0 4.791672,0 8.625,0 13.041672,0 C 82,51.5 87,51.5 97.872383,42.375874"
   id="path443"
   inkscape:connector-curvature="0" />
</g>
</g>
<g
   transform="rotate(-36.472134,266.42689,-74.819624)"
   id="g453">
<g
   id="g451"
   style="fill:#000000;fill-opacity:1;fill-rule:nonzero;stroke:none">
  <path
   d="M 0,0 3.2,3 0,6 8,3 Z"
   id="path449"
   inkscape:connector-curvature="0" />
</g>
</g>
<g
   transform="rotate(-36.472134,266.42689,-74.819624)"
   id="g459">
<g
   id="g457"
   style="fill:none;stroke:#000000;stroke-width:2;stroke-linecap:butt;stroke-linejoin:round;stroke-opacity:1">
  <path
   d="M 0,0 3.2,3 0,6 8,3 Z"
   id="path455"
   inkscape:connector-curvature="0" />
</g>
</g>
<g
   transform="translate(71,132.5)"
   id="g470">
<clipPath
   id="clip21">
  <path
   d="m -71,-132.5 v 224 h 277 v -224 z"
   id="path461"
   inkscape:connector-curvature="0" />
</clipPath>
<g
   clip-path="url(#clip21)"
   id="g468">
<text
   font-weight="bold"
   font-size="14.666666984558105px"
   font-style="normal"
   x="0"
   y="0"
   id="text466"
   style="font-style:normal;font-weight:bold;font-size:14.66666698px;font-family:Helvetica;fill:#000000;fill-opacity:1;stroke:none"><tspan
     x="0"
     dy="12"
     id="tspan464">1:</tspan></text>


</g>
</g>
<g
   transform="translate(7,99)"
   id="g476">
<g
   id="g474"
   style="fill:none;stroke:#000000;stroke-width:2;stroke-linecap:butt;stroke-opacity:1">
  <path
   d="M 97.872383,31.624128 C 87,22.5 82,22.5 78.416664,22.5 c -3.583328,0 -5.75,0 -7.916664,0 -2.166664,0 -4.333336,0 -7.916668,0 C 59,22.5 54,22.5 42.205261,43.897369"
   id="path472"
   inkscape:connector-curvature="0" />
</g>
</g>
<g
   transform="rotate(121.75357,-10.367436,84.426898)"
   id="g482">
<g
   id="g480"
   style="fill:#000000;fill-opacity:1;fill-rule:nonzero;stroke:none">
  <path
   d="M 0,0 3.2,3 0,6 8,3 Z"
   id="path478"
   inkscape:connector-curvature="0" />
</g>
</g>
<g
   transform="rotate(121.75357,-10.367436,84.426898)"
   id="g488">
<g
   id="g486"
   style="fill:none;stroke:#000000;stroke-width:2;stroke-linecap:butt;stroke-linejoin:round;stroke-opacity:1">
  <path
   d="M 0,0 3.2,3 0,6 8,3 Z"
   id="path484"
   inkscape:connector-curvature="0" />
</g>
</g>
<g
   transform="translate(7,99)"
   id="g494">
<g
   id="g492"
   style="fill:none;stroke:#000000;stroke-width:2;stroke-linecap:butt;stroke-opacity:1">
  <path
   d="M 42.205261,59.102631 C 54,91 59,91 63.416668,91 c 4.416668,0 8.249996,0 13.041668,0 C 81.25,91 87,91 97,91"
   id="path490"
   inkscape:connector-curvature="0" />
</g>
</g>
<g
   transform="translate(96,187)"
   id="g500">
<g
   id="g498"
   style="fill:#000000;fill-opacity:1;fill-rule:nonzero;stroke:none">
  <path
   d="M 0,0 3.2,3 0,6 8,3 Z"
   id="path496"
   inkscape:connector-curvature="0" />
</g>
</g>
<g
   transform="translate(96,187)"
   id="g506">
<g
   id="g504"
   style="fill:none;stroke:#000000;stroke-width:2;stroke-linecap:butt;stroke-linejoin:round;stroke-opacity:1">
  <path
   d="M 0,0 3.2,3 0,6 8,3 Z"
   id="path502"
   inkscape:connector-curvature="0" />
</g>
</g>
<g
   transform="translate(71,172)"
   id="g517">
<clipPath
   id="clip22">
  <path
   d="M -71,-172 V 52 h 277 v -224 z"
   id="path508"
   inkscape:connector-curvature="0" />
</clipPath>
<g
   clip-path="url(#clip22)"
   id="g515">
<text
   font-weight="bold"
   font-size="14.666666984558105px"
   font-style="normal"
   x="0"
   y="0"
   id="text513"
   style="font-style:normal;font-weight:bold;font-size:14.66666698px;font-family:Helvetica;fill:#000000;fill-opacity:1;stroke:none"><tspan
     x="0"
     dy="12"
     id="tspan511">2:</tspan></text>


</g>
</g>
<g
   transform="translate(7,99)"
   id="g523">
<g
   id="g521"
   style="fill:none;stroke:#000000;stroke-width:2;stroke-linecap:butt;stroke-opacity:1">
  <path
   d="m 131,91 c 0,0 10,0 20,0"
   id="path519"
   inkscape:connector-curvature="0" />
</g>
</g>
<g
   transform="translate(150,187)"
   id="g529">
<g
   id="g527"
   style="fill:#000000;fill-opacity:1;fill-rule:nonzero;stroke:none">
  <path
   d="M 0,0 3.2,3 0,6 8,3 Z"
   id="path525"
   inkscape:connector-curvature="0" />
</g>
</g>
<g
   transform="translate(150,187)"
   id="g535">
<g
   id="g533"
   style="fill:none;stroke:#000000;stroke-width:2;stroke-linecap:butt;stroke-linejoin:round;stroke-opacity:1">
  <path
   d="M 0,0 3.2,3 0,6 8,3 Z"
   id="path531"
   inkscape:connector-curvature="0" />
</g>
</g>
<g
   transform="translate(7,99)"
   id="g541">
<g
   id="g539"
   style="fill:#bebebe;fill-opacity:1;fill-rule:nonzero;stroke:none">
  <path
   d="M 0.5,0.5 V 19 L 18,0.5 Z"
   id="path537"
   inkscape:connector-curvature="0" />
</g>
</g>
<g
   transform="translate(10,99)"
   id="g552">
<clipPath
   id="clip23">
  <path
   d="M -10,-99 V 125 H 267 V -99 Z"
   id="path543"
   inkscape:connector-curvature="0" />
</clipPath>
<g
   clip-path="url(#clip23)"
   id="g550">
<text
   font-weight="bold"
   font-size="10.666666984558105px"
   font-style="normal"
   x="0"
   y="0"
   id="text548"
   style="font-style:normal;font-weight:bold;font-size:10.66666698px;font-family:Helvetica;fill:#ffffff;fill-opacity:1;stroke:none"><tspan
     x="0"
     dy="9"
     id="tspan546">-</tspan></text>


</g>
</g>
<g
   transform="translate(21,100)"
   id="g563">
<clipPath
   id="clip24">
  <path
   d="M -21,-100 V 124 H 256 V -100 Z"
   id="path554"
   inkscape:connector-curvature="0" />
</clipPath>
<g
   clip-path="url(#clip24)"
   id="g561">
<text
   font-weight="normal"
   font-size="13.333333969116211px"
   font-style="normal"
   x="0"
   y="0"
   id="text559"
   style="font-style:normal;font-weight:normal;font-size:13.33333397px;font-family:Helvetica;fill:#696969;fill-opacity:1;stroke:none"><tspan
     x="0"
     dy="11"
     id="tspan557">H</tspan></text>


</g>
</g>
<g
   transform="translate(207,99)"
   id="g569">
<g
   id="g567"
   style="fill:#ffffff;fill-opacity:1;fill-rule:nonzero;stroke:none">
  <path
   d="m 0.5,0.5 h 17 v 18 h -17 z"
   id="path565"
   inkscape:connector-curvature="0" />
</g>
</g>
<g
   transform="translate(207,99)"
   id="g575">
<g
   id="g573"
   style="fill:none;stroke:#bebebe;stroke-linecap:butt;stroke-opacity:1">
  <path
   d="m 0.5,0.5 h 17 v 18 h -17 z"
   id="path571"
   inkscape:connector-curvature="0" />
</g>
</g>
<g
   transform="translate(207,99)"
   id="g581">
<g
   id="g579"
   style="fill:#bebebe;fill-opacity:1;fill-rule:nonzero;stroke:none">
  <path
   d="M 0.5,0.5 V 19 L 18,0.5 Z"
   id="path577"
   inkscape:connector-curvature="0" />
</g>
</g>
<g
   transform="translate(209,99)"
   id="g592">
<clipPath
   id="clip25">
  <path
   d="M -209,-99 V 125 H 68 V -99 Z"
   id="path583"
   inkscape:connector-curvature="0" />
</clipPath>
<g
   clip-path="url(#clip25)"
   id="g590">
<text
   font-weight="bold"
   font-size="10.666666984558105px"
   font-style="normal"
   x="0"
   y="0"
   id="text588"
   style="font-style:normal;font-weight:bold;font-size:10.66666698px;font-family:Helvetica;fill:#ffffff;fill-opacity:1;stroke:none"><tspan
     x="0"
     dy="9"
     id="tspan586">+</tspan></text>


</g>
</g>
<g
   transform="translate(221,100)"
   id="g603">
<clipPath
   id="clip26">
  <path
   d="M -221,-100 V 124 H 56 v -224 z"
   id="path594"
   inkscape:connector-curvature="0" />
</clipPath>
<g
   clip-path="url(#clip26)"
   id="g601">
<text
   font-weight="normal"
   font-size="13.333333969116211px"
   font-style="normal"
   x="0"
   y="0"
   id="text599"
   style="font-style:normal;font-weight:normal;font-size:13.33333397px;font-family:Helvetica;fill:#696969;fill-opacity:1;stroke:none"><tspan
     x="0"
     dy="11"
     id="tspan597">I</tspan></text>


</g>
</g>
<g
   transform="translate(230,99)"
   id="g609">
<g
   id="g607"
   style="fill:#ffffff;fill-opacity:1;fill-rule:nonzero;stroke:none">
  <path
   d="m 0.5,0.5 h 20 v 18 h -20 z"
   id="path605"
   inkscape:connector-curvature="0" />
</g>
</g>
<g
   transform="translate(230,99)"
   id="g615">
<g
   id="g613"
   style="fill:none;stroke:#bebebe;stroke-linecap:butt;stroke-opacity:1">
  <path
   d="m 0.5,0.5 h 20 v 18 h -20 z"
   id="path611"
   inkscape:connector-curvature="0" />
</g>
</g>
<g
   transform="translate(230,99)"
   id="g621">
<g
   id="g619"
   style="fill:#bebebe;fill-opacity:1;fill-rule:nonzero;stroke:none">
  <path
   d="M 0.5,0.5 V 19 L 18,0.5 Z"
   id="path617"
   inkscape:connector-curvature="0" />
</g>
</g>
<g
   transform="translate(232,99)"
   id="g632">
<clipPath
   id="clip27">
  <path
   d="M -232,-99 V 125 H 45 V -99 Z"
   id="path623"
   inkscape:connector-curvature="0" />
</clipPath>
<g
   clip-path="url(#clip27)"
   id="g630">
<text
   font-weight="bold"
   font-size="10.666666984558105px"
   font-style="normal"
   x="0"
   y="0"
   id="text628"
   style="font-style:normal;font-weight:bold;font-size:10.66666698px;font-family:Helvetica;fill:#ffffff;fill-opacity:1;stroke:none"><tspan
     x="0"
     dy="9"
     id="tspan626">+</tspan></text>


</g>
</g>
<g
   transform="translate(244,100)"
   id="g643">
<clipPath
   id="clip28">
  <path
   d="M -244,-100 V 124 H 33 v -224 z"
   id="path634"
   inkscape:connector-curvature="0" />
</clipPath>
<g
   clip-path="url(#clip28)"
   id="g641">
<text
   font-weight="normal"
   font-size="13.333333969116211px"
   font-style="normal"
   x="0"
   y="0"
   id="text639"
   style="font-style:normal;font-weight:normal;font-size:13.33333397px;font-family:Helvetica;fill:#696969;fill-opacity:1;stroke:none"><tspan
     x="0"
     dy="11"
     id="tspan637">J</tspan></text>


</g>
</g>
<g
   transform="translate(207,123)"
   id="g649">
<g
   id="g647"
   style="fill:#ffffff;fill-opacity:1;fill-rule:nonzero;stroke:none">
  <path
   d="m 0.5,0.5 h 62 v 34 h -62 z"
   id="path645"
   inkscape:connector-curvature="0" />
</g>
</g>
<g
   transform="translate(207,123)"
   id="g655">
<g
   id="g653"
   style="fill:none;stroke:#bebebe;stroke-linecap:butt;stroke-opacity:1">
  <path
   d="m 0.5,0.5 h 62 v 34 h -62 z"
   id="path651"
   inkscape:connector-curvature="0" />
</g>
</g>
<g
   transform="translate(210,143)"
   id="g666">
<clipPath
   id="clip29">
  <path
   d="M -210,-143 V 81 H 67 v -224 z"
   id="path657"
   inkscape:connector-curvature="0" />
</clipPath>
<g
   clip-path="url(#clip29)"
   id="g664">
<text
   font-weight="bold"
   font-size="13.333333969116211px"
   font-style="normal"
   x="0"
   y="0"
   id="text662"
   style="font-style:normal;font-weight:bold;font-size:13.33333397px;font-family:Helvetica;fill:#730041;fill-opacity:1;stroke:none"><tspan
     x="0"
     dy="11"
     id="tspan660">int </tspan></text>


</g>
</g>
<g
   transform="translate(230,143)"
   id="g677">
<clipPath
   id="clip30">
  <path
   d="M -230,-143 V 81 H 47 v -224 z"
   id="path668"
   inkscape:connector-curvature="0" />
</clipPath>
<g
   clip-path="url(#clip30)"
   id="g675">
<text
   font-weight="normal"
   font-size="13.333333969116211px"
   font-style="normal"
   x="0"
   y="0"
   id="text673"
   style="font-style:normal;font-weight:normal;font-size:13.33333397px;font-family:Helvetica;fill:#000000;fill-opacity:1;stroke:none"><tspan
     x="0"
     dy="11"
     id="tspan671">X = 2</tspan></text>


</g>
</g>
<g
   transform="translate(207,123)"
   id="g683">
<g
   id="g681"
   style="fill:#bebebe;fill-opacity:1;fill-rule:nonzero;stroke:none">
  <path
   d="M 0.5,0.5 V 19 L 18,0.5 Z"
   id="path679"
   inkscape:connector-curvature="0" />
</g>
</g>
<g
   transform="translate(210,123)"
   id="g694">
<clipPath
   id="clip31">
  <path
   d="M -210,-123 V 101 H 67 v -224 z"
   id="path685"
   inkscape:connector-curvature="0" />
</clipPath>
<g
   clip-path="url(#clip31)"
   id="g692">
<text
   font-weight="bold"
   font-size="10.666666984558105px"
   font-style="normal"
   x="0"
   y="0"
   id="text690"
   style="font-style:normal;font-weight:bold;font-size:10.66666698px;font-family:Helvetica;fill:#ffffff;fill-opacity:1;stroke:none"><tspan
     x="0"
     dy="9"
     id="tspan688">-</tspan></text>


</g>
</g>
<g
   transform="translate(221,124)"
   id="g705">
<clipPath
   id="clip32">
  <path
   d="M -221,-124 V 100 H 56 v -224 z"
   id="path696"
   inkscape:connector-curvature="0" />
</clipPath>
<g
   clip-path="url(#clip32)"
   id="g703">
<text
   font-weight="normal"
   font-size="13.333333969116211px"
   font-style="normal"
   x="0"
   y="0"
   id="text701"
   style="font-style:normal;font-weight:normal;font-size:13.33333397px;font-family:Helvetica;fill:#696969;fill-opacity:1;stroke:none"><tspan
     x="0"
     dy="11"
     id="tspan699">K</tspan></text>


</g>
</g>
<g
   transform="translate(207,163)"
   id="g711">
<g
   id="g709"
   style="fill:#ffffff;fill-opacity:1;fill-rule:nonzero;stroke:none">
  <path
   d="m 0.5,0.5 h 20 v 18 h -20 z"
   id="path707"
   inkscape:connector-curvature="0" />
</g>
</g>
<g
   transform="translate(207,163)"
   id="g717">
<g
   id="g715"
   style="fill:none;stroke:#bebebe;stroke-linecap:butt;stroke-opacity:1">
  <path
   d="m 0.5,0.5 h 20 v 18 h -20 z"
   id="path713"
   inkscape:connector-curvature="0" />
</g>
</g>
<g
   transform="translate(207,163)"
   id="g723">
<g
   id="g721"
   style="fill:#bebebe;fill-opacity:1;fill-rule:nonzero;stroke:none">
  <path
   d="M 0.5,0.5 V 19 L 18,0.5 Z"
   id="path719"
   inkscape:connector-curvature="0" />
</g>
</g>
<g
   transform="translate(209,163)"
   id="g734">
<clipPath
   id="clip33">
  <path
   d="M -209,-163 V 61 H 68 v -224 z"
   id="path725"
   inkscape:connector-curvature="0" />
</clipPath>
<g
   clip-path="url(#clip33)"
   id="g732">
<text
   font-weight="bold"
   font-size="10.666666984558105px"
   font-style="normal"
   x="0"
   y="0"
   id="text730"
   style="font-style:normal;font-weight:bold;font-size:10.66666698px;font-family:Helvetica;fill:#ffffff;fill-opacity:1;stroke:none"><tspan
     x="0"
     dy="9"
     id="tspan728">+</tspan></text>


</g>
</g>
<g
   transform="translate(221,164)"
   id="g745">
<clipPath
   id="clip34">
  <path
   d="M -221,-164 V 60 H 56 v -224 z"
   id="path736"
   inkscape:connector-curvature="0" />
</clipPath>
<g
   clip-path="url(#clip34)"
   id="g743">
<text
   font-weight="normal"
   font-size="13.333333969116211px"
   font-style="normal"
   x="0"
   y="0"
   id="text741"
   style="font-style:normal;font-weight:normal;font-size:13.33333397px;font-family:Helvetica;fill:#696969;fill-opacity:1;stroke:none"><tspan
     x="0"
     dy="11"
     id="tspan739">L</tspan></text>


</g>
</g>
</g>
</g>
</g>
</g>
</g>
</g>
</g>
<rect
   style="opacity:1;fill:none;fill-opacity:1;fill-rule:nonzero;stroke:#ffcc00;stroke-width:2;stroke-linecap:round;stroke-linejoin:round;stroke-miterlimit:4;stroke-dasharray:none;stroke-dashoffset:17.20000076;stroke-opacity:0"
   id="rect1593"
   width="79"
   height="18"
   x="7.5"
   y="30.5" /><rect
   style="opacity:1;fill:none;fill-opacity:1;fill-rule:nonzero;stroke:#d40000;stroke-width:2;stroke-linecap:round;stroke-linejoin:round;stroke-miterlimit:4;stroke-dasharray:none;stroke-dashoffset:17.20000076;stroke-opacity:1"
   id="rect1595"
   width="79"
   height="18"
   x="7.5"
   y="30.5" /><rect
   style="opacity:1;fill:none;fill-opacity:1;fill-rule:nonzero;stroke:#d40000;stroke-width:2;stroke-linecap:round;stroke-linejoin:round;stroke-miterlimit:4;stroke-dasharray:none;stroke-dashoffset:17.20000076;stroke-opacity:1"
   id="rect1597"
   width="51"
   height="18"
   x="7.5"
   y="54.5" /><rect
   style="opacity:1;fill:none;fill-opacity:1;fill-rule:nonzero;stroke:#d40000;stroke-width:2;stroke-linecap:round;stroke-linejoin:round;stroke-miterlimit:4;stroke-dasharray:none;stroke-dashoffset:17.20000076;stroke-opacity:1"
   id="rect1599"
   width="53"
   height="63"
   x="92.5"
   y="30.5" /><rect
   style="opacity:1;fill:none;fill-opacity:1;fill-rule:nonzero;stroke:#d40000;stroke-width:2;stroke-linecap:round;stroke-linejoin:round;stroke-miterlimit:4;stroke-dasharray:none;stroke-dashoffset:17.20000076;stroke-opacity:1"
   id="rect1601"
   width="23"
   height="18"
   x="151.5"
   y="30.5" /><rect
   style="opacity:1;fill:none;fill-opacity:1;fill-rule:nonzero;stroke:#d40000;stroke-width:2;stroke-linecap:round;stroke-linejoin:round;stroke-miterlimit:4;stroke-dasharray:none;stroke-dashoffset:17.20000076;stroke-opacity:1"
   id="rect1603"
   width="194"
   height="117"
   x="7.5"
   y="99.5" /><rect
   style="opacity:1;fill:none;fill-opacity:1;fill-rule:nonzero;stroke:#d40000;stroke-width:2;stroke-linecap:round;stroke-linejoin:round;stroke-miterlimit:4;stroke-dasharray:none;stroke-dashoffset:17.20000076;stroke-opacity:1"
   id="rect1605"
   width="43"
   height="18"
   x="207.5"
   y="99.5" /><rect
   style="opacity:1;fill:none;fill-opacity:1;fill-rule:nonzero;stroke:#d40000;stroke-width:2;stroke-linecap:round;stroke-linejoin:round;stroke-miterlimit:4;stroke-dasharray:none;stroke-dashoffset:17.20000076;stroke-opacity:1"
   id="rect1607"
   width="62"
   height="34"
   x="207.5"
   y="123.5" /><rect
   style="opacity:1;fill:none;fill-opacity:1;fill-rule:nonzero;stroke:#d40000;stroke-width:2;stroke-linecap:round;stroke-linejoin:round;stroke-miterlimit:4;stroke-dasharray:none;stroke-dashoffset:17.20000076;stroke-opacity:1"
   id="rect1609"
   width="20"
   height="18"
   x="207.5"
   y="163.5" /><rect
   style="opacity:1;fill:none;fill-opacity:1;fill-rule:nonzero;stroke:#0a093f;stroke-width:2;stroke-linecap:round;stroke-linejoin:round;stroke-miterlimit:4;stroke-dasharray:2, 6;stroke-dashoffset:0;stroke-opacity:0.94117647"
   id="rect1611"
   width="270.66946"
   height="70.076271"
   x="2.8474576"
   y="26.101694" /><rect
   y="96.135521"
   x="2.8474576"
   height="124.17796"
   width="270.66946"
   id="rect1613"
   style="opacity:1;fill:none;fill-opacity:1;fill-rule:nonzero;stroke:#0a093f;stroke-width:2;stroke-linecap:round;stroke-linejoin:round;stroke-miterlimit:4;stroke-dasharray:2,6;stroke-dashoffset:6.2;stroke-opacity:0.94117647" /></svg>