<?xml version="1.0" standalone="no"?>

<svg 
     version="1.1"
     baseProfile="full"
     xmlns="http://www.w3.org/2000/svg"
     xmlns:xlink="http://www.w3.org/1999/xlink"
     xmlns:ev="http://www.w3.org/2001/xml-events"
     xmlns:klighd="http://de.cau.cs.kieler/klighd"
     xml:space="preserve"
     x="0px"
     y="0px"
     width="114px"
     height="130px"
     viewBox="0 0 114 130"
     >
<title></title>
<desc>Creator: FreeHEP Graphics2D Driver Producer: de.cau.cs.kieler.klighd.piccolo.freehep.SemanticSVGGraphics2D Revision Source:  Date: Monday, May 1, 2017 8:05:54 PM CEST</desc>
<g stroke-linejoin="miter" stroke-dashoffset="0" stroke-dasharray="none" stroke-width="1" stroke-miterlimit="10" stroke-linecap="square">
<g fill-opacity="1" fill-rule="nonzero" stroke="none" fill="#ffffff">
  <path d="M 0 0 L 113.92304992675781 0 L 113.92304992675781 130 L 0 130 L 0 0 z"/>
</g>
<defs>
  <linearGradient id="gradient-0" gradientUnits="objectBoundingBox" gradientTransform="rotate(90.0)" >
    <stop offset="0" stop-color="#ebf6fa" opacity-stop="1.0" />
    <stop offset="1" stop-color="#c4e3f3" opacity-stop="1.0" />
  </linearGradient>
</defs>
<g stroke="url(#gradient-0)">
<g transform="matrix(1, 0, 0, 1, 51.961524963378906, 60)">
<g fill-opacity="1" fill-rule="nonzero" stroke="none" fill="url(#gradient-0)">
  <path d="M 0.5 5 L 0.5 5 C 0.5 7.4852813742385695 2.51471862576143 9.5 5 9.5 L 5 9.5 C 7.4852813742385695 9.5 9.5 7.4852813742385695 9.5 5 L 9.5 5 C 9.5 2.51471862576143 7.4852813742385695 0.5 5 0.5 L 5 0.5 C 2.51471862576143 0.5 0.5 2.51471862576143 0.5 5 z"/>
</g>
</g>
<g transform="matrix(1, 0, 0, 1, 51.961524963378906, 60)">
<g stroke-linecap="butt" fill="none" stroke-opacity="1" stroke="#000000">
  <path d="M 0.5 5 L 0.5 5 C 0.5 7.4852813742385695 2.51471862576143 9.5 5 9.5 L 5 9.5 C 7.4852813742385695 9.5 9.5 7.4852813742385695 9.5 5 L 9.5 5 C 9.5 2.51471862576143 7.4852813742385695 0.5 5 0.5 L 5 0.5 C 2.51471862576143 0.5 0.5 2.51471862576143 0.5 5 z"/>
</g>
</g>
<g stroke="url(#gradient-0)">
<g transform="matrix(1, 0, 0, 1, 51.961524963378906, 0)">
<g fill-opacity="1" fill-rule="nonzero" stroke="none" fill="url(#gradient-0)">
  <path d="M 0.5 5 L 0.5 5 C 0.5 7.4852813742385695 2.51471862576143 9.5 5 9.5 L 5 9.5 C 7.4852813742385695 9.5 9.5 7.4852813742385695 9.5 5 L 9.5 5 C 9.5 2.51471862576143 7.4852813742385695 0.5 5 0.5 L 5 0.5 C 2.51471862576143 0.5 0.5 2.51471862576143 0.5 5 z"/>
</g>
</g>
<g transform="matrix(1, 0, 0, 1, 51.961524963378906, 0)">
<g stroke-linecap="butt" fill="none" stroke-opacity="1" stroke="#000000">
  <path d="M 0.5 5 L 0.5 5 C 0.5 7.4852813742385695 2.51471862576143 9.5 5 9.5 L 5 9.5 C 7.4852813742385695 9.5 9.5 7.4852813742385695 9.5 5 L 9.5 5 C 9.5 2.51471862576143 7.4852813742385695 0.5 5 0.5 L 5 0.5 C 2.51471862576143 0.5 0.5 2.51471862576143 0.5 5 z"/>
</g>
</g>
<g stroke="url(#gradient-0)">
<g transform="matrix(1, 0, 0, 1, 103.92304992675781, 30)">
<g fill-opacity="1" fill-rule="nonzero" stroke="none" fill="url(#gradient-0)">
  <path d="M 0.5 5 L 0.5 5 C 0.5 7.4852813742385695 2.51471862576143 9.5 5 9.5 L 5 9.5 C 7.4852813742385695 9.5 9.5 7.4852813742385695 9.5 5 L 9.5 5 C 9.5 2.51471862576143 7.4852813742385695 0.5 5 0.5 L 5 0.5 C 2.51471862576143 0.5 0.5 2.51471862576143 0.5 5 z"/>
</g>
</g>
<g transform="matrix(1, 0, 0, 1, 103.92304992675781, 30)">
<g stroke-linecap="butt" fill="none" stroke-opacity="1" stroke="#000000">
  <path d="M 0.5 5 L 0.5 5 C 0.5 7.4852813742385695 2.51471862576143 9.5 5 9.5 L 5 9.5 C 7.4852813742385695 9.5 9.5 7.4852813742385695 9.5 5 L 9.5 5 C 9.5 2.51471862576143 7.4852813742385695 0.5 5 0.5 L 5 0.5 C 2.51471862576143 0.5 0.5 2.51471862576143 0.5 5 z"/>
</g>
</g>
<g stroke="url(#gradient-0)">
<g transform="matrix(1, 0, 0, 1, 25.980762481689453, 75)">
<g fill-opacity="1" fill-rule="nonzero" stroke="none" fill="url(#gradient-0)">
  <path d="M 0.5 5 L 0.5 5 C 0.5 7.4852813742385695 2.51471862576143 9.5 5 9.5 L 5 9.5 C 7.4852813742385695 9.5 9.5 7.4852813742385695 9.5 5 L 9.5 5 C 9.5 2.51471862576143 7.4852813742385695 0.5 5 0.5 L 5 0.5 C 2.51471862576143 0.5 0.5 2.51471862576143 0.5 5 z"/>
</g>
</g>
<g transform="matrix(1, 0, 0, 1, 25.980762481689453, 75)">
<g stroke-linecap="butt" fill="none" stroke-opacity="1" stroke="#000000">
  <path d="M 0.5 5 L 0.5 5 C 0.5 7.4852813742385695 2.51471862576143 9.5 5 9.5 L 5 9.5 C 7.4852813742385695 9.5 9.5 7.4852813742385695 9.5 5 L 9.5 5 C 9.5 2.51471862576143 7.4852813742385695 0.5 5 0.5 L 5 0.5 C 2.51471862576143 0.5 0.5 2.51471862576143 0.5 5 z"/>
</g>
</g>
<g stroke="url(#gradient-0)">
<g transform="matrix(1, 0, 0, 1, 0, 90)">
<g fill-opacity="1" fill-rule="nonzero" stroke="none" fill="url(#gradient-0)">
  <path d="M 0.5 5 L 0.5 5 C 0.5 7.4852813742385695 2.51471862576143 9.5 5 9.5 L 5 9.5 C 7.4852813742385695 9.5 9.5 7.4852813742385695 9.5 5 L 9.5 5 C 9.5 2.51471862576143 7.4852813742385695 0.5 5 0.5 L 5 0.5 C 2.51471862576143 0.5 0.5 2.51471862576143 0.5 5 z"/>
</g>
</g>
<g transform="matrix(1, 0, 0, 1, 0, 90)">
<g stroke-linecap="butt" fill="none" stroke-opacity="1" stroke="#000000">
  <path d="M 0.5 5 L 0.5 5 C 0.5 7.4852813742385695 2.51471862576143 9.5 5 9.5 L 5 9.5 C 7.4852813742385695 9.5 9.5 7.4852813742385695 9.5 5 L 9.5 5 C 9.5 2.51471862576143 7.4852813742385695 0.5 5 0.5 L 5 0.5 C 2.51471862576143 0.5 0.5 2.51471862576143 0.5 5 z"/>
</g>
</g>
<g stroke="url(#gradient-0)">
<g transform="matrix(1, 0, 0, 1, 103.92304992675781, 90)">
<g fill-opacity="1" fill-rule="nonzero" stroke="none" fill="url(#gradient-0)">
  <path d="M 0.5 5 L 0.5 5 C 0.5 7.4852813742385695 2.51471862576143 9.5 5 9.5 L 5 9.5 C 7.4852813742385695 9.5 9.5 7.4852813742385695 9.5 5 L 9.5 5 C 9.5 2.51471862576143 7.4852813742385695 0.5 5 0.5 L 5 0.5 C 2.51471862576143 0.5 0.5 2.51471862576143 0.5 5 z"/>
</g>
</g>
<g transform="matrix(1, 0, 0, 1, 103.92304992675781, 90)">
<g stroke-linecap="butt" fill="none" stroke-opacity="1" stroke="#000000">
  <path d="M 0.5 5 L 0.5 5 C 0.5 7.4852813742385695 2.51471862576143 9.5 5 9.5 L 5 9.5 C 7.4852813742385695 9.5 9.5 7.4852813742385695 9.5 5 L 9.5 5 C 9.5 2.51471862576143 7.4852813742385695 0.5 5 0.5 L 5 0.5 C 2.51471862576143 0.5 0.5 2.51471862576143 0.5 5 z"/>
</g>
</g>
<g stroke="url(#gradient-0)">
<g transform="matrix(1, 0, 0, 1, 51.961524963378906, 120)">
<g fill-opacity="1" fill-rule="nonzero" stroke="none" fill="url(#gradient-0)">
  <path d="M 0.5 5 L 0.5 5 C 0.5 7.4852813742385695 2.51471862576143 9.5 5 9.5 L 5 9.5 C 7.4852813742385695 9.5 9.5 7.4852813742385695 9.5 5 L 9.5 5 C 9.5 2.51471862576143 7.4852813742385695 0.5 5 0.5 L 5 0.5 C 2.51471862576143 0.5 0.5 2.51471862576143 0.5 5 z"/>
</g>
</g>
<g transform="matrix(1, 0, 0, 1, 51.961524963378906, 120)">
<g stroke-linecap="butt" fill="none" stroke-opacity="1" stroke="#000000">
  <path d="M 0.5 5 L 0.5 5 C 0.5 7.4852813742385695 2.51471862576143 9.5 5 9.5 L 5 9.5 C 7.4852813742385695 9.5 9.5 7.4852813742385695 9.5 5 L 9.5 5 C 9.5 2.51471862576143 7.4852813742385695 0.5 5 0.5 L 5 0.5 C 2.51471862576143 0.5 0.5 2.51471862576143 0.5 5 z"/>
</g>
</g>
<g stroke="url(#gradient-0)">
<g transform="matrix(1, 0, 0, 1, 25.980762481689453, 45)">
<g fill-opacity="1" fill-rule="nonzero" stroke="none" fill="url(#gradient-0)">
  <path d="M 0.5 5 L 0.5 5 C 0.5 7.4852813742385695 2.51471862576143 9.5 5 9.5 L 5 9.5 C 7.4852813742385695 9.5 9.5 7.4852813742385695 9.5 5 L 9.5 5 C 9.5 2.51471862576143 7.4852813742385695 0.5 5 0.5 L 5 0.5 C 2.51471862576143 0.5 0.5 2.51471862576143 0.5 5 z"/>
</g>
</g>
<g transform="matrix(1, 0, 0, 1, 25.980762481689453, 45)">
<g stroke-linecap="butt" fill="none" stroke-opacity="1" stroke="#000000">
  <path d="M 0.5 5 L 0.5 5 C 0.5 7.4852813742385695 2.51471862576143 9.5 5 9.5 L 5 9.5 C 7.4852813742385695 9.5 9.5 7.4852813742385695 9.5 5 L 9.5 5 C 9.5 2.51471862576143 7.4852813742385695 0.5 5 0.5 L 5 0.5 C 2.51471862576143 0.5 0.5 2.51471862576143 0.5 5 z"/>
</g>
</g>
<g stroke="url(#gradient-0)">
<g transform="matrix(1, 0, 0, 1, 0, 30)">
<g fill-opacity="1" fill-rule="nonzero" stroke="none" fill="url(#gradient-0)">
  <path d="M 0.5 5 L 0.5 5 C 0.5 7.4852813742385695 2.51471862576143 9.5 5 9.5 L 5 9.5 C 7.4852813742385695 9.5 9.5 7.4852813742385695 9.5 5 L 9.5 5 C 9.5 2.51471862576143 7.4852813742385695 0.5 5 0.5 L 5 0.5 C 2.51471862576143 0.5 0.5 2.51471862576143 0.5 5 z"/>
</g>
</g>
<g transform="matrix(1, 0, 0, 1, 0, 30)">
<g stroke-linecap="butt" fill="none" stroke-opacity="1" stroke="#000000">
  <path d="M 0.5 5 L 0.5 5 C 0.5 7.4852813742385695 2.51471862576143 9.5 5 9.5 L 5 9.5 C 7.4852813742385695 9.5 9.5 7.4852813742385695 9.5 5 L 9.5 5 C 9.5 2.51471862576143 7.4852813742385695 0.5 5 0.5 L 5 0.5 C 2.51471862576143 0.5 0.5 2.51471862576143 0.5 5 z"/>
</g>
</g>
<g stroke="url(#gradient-0)">
<g transform="matrix(1, 0, 0, 1, 66.9615249633789, 85.98075866699219)">
<g fill-opacity="1" fill-rule="nonzero" stroke="none" fill="url(#gradient-0)">
  <path d="M 0.5 5 L 0.5 5 C 0.5 7.4852813742385695 2.51471862576143 9.5 5 9.5 L 5 9.5 C 7.4852813742385695 9.5 9.5 7.4852813742385695 9.5 5 L 9.5 5 C 9.5 2.51471862576143 7.4852813742385695 0.5 5 0.5 L 5 0.5 C 2.51471862576143 0.5 0.5 2.51471862576143 0.5 5 z"/>
</g>
</g>
<g transform="matrix(1, 0, 0, 1, 66.9615249633789, 85.98075866699219)">
<g stroke-linecap="butt" fill="none" stroke-opacity="1" stroke="#000000">
  <path d="M 0.5 5 L 0.5 5 C 0.5 7.4852813742385695 2.51471862576143 9.5 5 9.5 L 5 9.5 C 7.4852813742385695 9.5 9.5 7.4852813742385695 9.5 5 L 9.5 5 C 9.5 2.51471862576143 7.4852813742385695 0.5 5 0.5 L 5 0.5 C 2.51471862576143 0.5 0.5 2.51471862576143 0.5 5 z"/>
</g>
</g>
<g stroke="url(#gradient-0)">
<g transform="matrix(1, 0, 0, 1, 66.9615249633789, 34.01923751831055)">
<g fill-opacity="1" fill-rule="nonzero" stroke="none" fill="url(#gradient-0)">
  <path d="M 0.5 5 L 0.5 5 C 0.5 7.4852813742385695 2.51471862576143 9.5 5 9.5 L 5 9.5 C 7.4852813742385695 9.5 9.5 7.4852813742385695 9.5 5 L 9.5 5 C 9.5 2.51471862576143 7.4852813742385695 0.5 5 0.5 L 5 0.5 C 2.51471862576143 0.5 0.5 2.51471862576143 0.5 5 z"/>
</g>
</g>
<g transform="matrix(1, 0, 0, 1, 66.9615249633789, 34.01923751831055)">
<g stroke-linecap="butt" fill="none" stroke-opacity="1" stroke="#000000">
  <path d="M 0.5 5 L 0.5 5 C 0.5 7.4852813742385695 2.51471862576143 9.5 5 9.5 L 5 9.5 C 7.4852813742385695 9.5 9.5 7.4852813742385695 9.5 5 L 9.5 5 C 9.5 2.51471862576143 7.4852813742385695 0.5 5 0.5 L 5 0.5 C 2.51471862576143 0.5 0.5 2.51471862576143 0.5 5 z"/>
</g>
</g>
<g transform="matrix(1, 0, 0, 1, -12, -12)">
<g stroke-linecap="butt" fill="none" stroke-opacity="1" stroke="#000000">
  <path d="M 64.63139343261719 79.5 L 47.310890197753906 89.5"/>
</g>
</g>
<g transform="matrix(-0.8660253806059514, 0.5000000401463154, -0.5000000401463154, -0.8660253806059514, 43.739093288376765, 76.09807569132603)">
<g fill-opacity="1" fill-rule="nonzero" stroke="none" fill="#000000">
  <path d="M 0 0 L 3.200000047683716 3 L 0 6 L 8 3 z"/>
</g>
</g>
<g transform="matrix(-0.8660253806059514, 0.5000000401463154, -0.5000000401463154, -0.8660253806059514, 43.739093288376765, 76.09807569132603)">
<g stroke-linejoin="round" stroke-linecap="butt" fill="none" stroke-opacity="1" stroke="#000000">
  <path d="M 0 0 L 3.200000047683716 3 L 0 6 L 8 3 z"/>
</g>
</g>
<g transform="matrix(1, 0, 0, 1, -12, -12)">
<g stroke-linecap="butt" fill="none" stroke-opacity="1" stroke="#000000">
  <path d="M 38.650634765625 94.5 L 21.330127716064453 104.5"/>
</g>
</g>
<g transform="matrix(-0.8660253806059514, 0.5000000401463154, -0.5000000401463154, -0.8660253806059514, 17.75833090205478, 91.09807585650731)">
<g fill-opacity="1" fill-rule="nonzero" stroke="none" fill="#000000">
  <path d="M 0 0 L 3.200000047683716 3 L 0 6 L 8 3 z"/>
</g>
</g>
<g transform="matrix(-0.8660253806059514, 0.5000000401463154, -0.5000000401463154, -0.8660253806059514, 17.75833090205478, 91.09807585650731)">
<g stroke-linejoin="round" stroke-linecap="butt" fill="none" stroke-opacity="1" stroke="#000000">
  <path d="M 0 0 L 3.200000047683716 3 L 0 6 L 8 3 z"/>
</g>
</g>
<g transform="matrix(1, 0, 0, 1, -12, -12)">
<g stroke-linecap="butt" fill="none" stroke-opacity="1" stroke="#000000">
  <path d="M 64.63139343261719 74.5 L 47.310890197753906 64.5"/>
</g>
</g>
<g transform="matrix(-0.8660253806059511, -0.5000000401463158, 0.5000000401463158, -0.8660253806059511, 40.73909304749887, 59.09807659230968)">
<g fill-opacity="1" fill-rule="nonzero" stroke="none" fill="#000000">
  <path d="M 0 0 L 3.200000047683716 3 L 0 6 L 8 3 z"/>
</g>
</g>
<g transform="matrix(-0.8660253806059511, -0.5000000401463158, 0.5000000401463158, -0.8660253806059511, 40.73909304749887, 59.09807659230968)">
<g stroke-linejoin="round" stroke-linecap="butt" fill="none" stroke-opacity="1" stroke="#000000">
  <path d="M 0 0 L 3.200000047683716 3 L 0 6 L 8 3 z"/>
</g>
</g>
<g transform="matrix(1, 0, 0, 1, -12, -12)">
<g stroke-linecap="butt" fill="none" stroke-opacity="1" stroke="#000000">
  <path d="M 38.650634765625 59.5 L 21.330127716064453 49.5"/>
</g>
</g>
<g transform="matrix(-0.8660253806059511, -0.5000000401463158, 0.5000000401463158, -0.8660253806059511, 14.758330661176883, 44.098076427128404)">
<g fill-opacity="1" fill-rule="nonzero" stroke="none" fill="#000000">
  <path d="M 0 0 L 3.200000047683716 3 L 0 6 L 8 3 z"/>
</g>
</g>
<g transform="matrix(-0.8660253806059511, -0.5000000401463158, 0.5000000401463158, -0.8660253806059511, 14.758330661176883, 44.098076427128404)">
<g stroke-linejoin="round" stroke-linecap="butt" fill="none" stroke-opacity="1" stroke="#000000">
  <path d="M 0 0 L 3.200000047683716 3 L 0 6 L 8 3 z"/>
</g>
</g>
<g transform="matrix(1, 0, 0, 1, -12, -12)">
<g stroke-linecap="butt" fill="none" stroke-opacity="1" stroke="#000000">
  <path d="M 71.4615249633789 81.33012390136719 L 81.4615249633789 98.650634765625"/>
</g>
</g>
<g transform="matrix(0.4999999747632168, 0.8660254183549018, -0.8660254183549018, 0.4999999747632168, 68.05960149061288, 78.22243145392285)">
<g fill-opacity="1" fill-rule="nonzero" stroke="none" fill="#000000">
  <path d="M 0 0 L 3.200000047683716 3 L 0 6 L 8 3 z"/>
</g>
</g>
<g transform="matrix(0.4999999747632168, 0.8660254183549018, -0.8660254183549018, 0.4999999747632168, 68.05960149061288, 78.22243145392285)">
<g stroke-linejoin="round" stroke-linecap="butt" fill="none" stroke-opacity="1" stroke="#000000">
  <path d="M 0 0 L 3.200000047683716 3 L 0 6 L 8 3 z"/>
</g>
</g>
<g transform="matrix(1, 0, 0, 1, -12, -12)">
<g stroke-linecap="butt" fill="none" stroke-opacity="1" stroke="#000000">
  <path d="M 88.93222045898438 103.52127838134766 L 115.95234680175781 106.45948028564453"/>
</g>
</g>
<g transform="matrix(0.9941395941742921, 0.1081039652139264, -0.1081039652139264, 0.9941395941742921, 96.32354194440701, 90.61222977771563)">
<g fill-opacity="1" fill-rule="nonzero" stroke="none" fill="#000000">
  <path d="M 0 0 L 3.200000047683716 3 L 0 6 L 8 3 z"/>
</g>
</g>
<g transform="matrix(0.9941395941742921, 0.1081039652139264, -0.1081039652139264, 0.9941395941742921, 96.32354194440701, 90.61222977771563)">
<g stroke-linejoin="round" stroke-linecap="butt" fill="none" stroke-opacity="1" stroke="#000000">
  <path d="M 0 0 L 3.200000047683716 3 L 0 6 L 8 3 z"/>
</g>
</g>
<g transform="matrix(1, 0, 0, 1, -12, -12)">
<g stroke-linecap="butt" fill="none" stroke-opacity="1" stroke="#000000">
  <path d="M 81.94427490234375 107.55577087402344 L 70.97876739501953 132.42498779296875"/>
</g>
</g>
<g transform="matrix(-0.40344911801115385, 0.9150020815145844, -0.9150020815145844, -0.40344911801115385, 64.95136648686413, 114.31531845220891)">
<g fill-opacity="1" fill-rule="nonzero" stroke="none" fill="#000000">
  <path d="M 0 0 L 3.200000047683716 3 L 0 6 L 8 3 z"/>
</g>
</g>
<g transform="matrix(-0.40344911801115385, 0.9150020815145844, -0.9150020815145844, -0.40344911801115385, 64.95136648686413, 114.31531845220891)">
<g stroke-linejoin="round" stroke-linecap="butt" fill="none" stroke-opacity="1" stroke="#000000">
  <path d="M 0 0 L 3.200000047683716 3 L 0 6 L 8 3 z"/>
</g>
</g>
<g transform="matrix(1, 0, 0, 1, -12, -12)">
<g stroke-linecap="butt" fill="none" stroke-opacity="1" stroke="#000000">
  <path d="M 71.4615249633789 72.66987609863281 L 81.4615249633789 55.349365234375"/>
</g>
</g>
<g transform="matrix(0.4999999747632172, -0.8660254183549015, 0.8660254183549015, 0.4999999747632172, 62.86344898048347, 48.77756869749784)">
<g fill-opacity="1" fill-rule="nonzero" stroke="none" fill="#000000">
  <path d="M 0 0 L 3.200000047683716 3 L 0 6 L 8 3 z"/>
</g>
</g>
<g transform="matrix(0.4999999747632172, -0.8660254183549015, 0.8660254183549015, 0.4999999747632172, 62.86344898048347, 48.77756869749784)">
<g stroke-linejoin="round" stroke-linecap="butt" fill="none" stroke-opacity="1" stroke="#000000">
  <path d="M 0 0 L 3.200000047683716 3 L 0 6 L 8 3 z"/>
</g>
</g>
<g transform="matrix(1, 0, 0, 1, -12, -12)">
<g stroke-linecap="butt" fill="none" stroke-opacity="1" stroke="#000000">
  <path d="M 81.94427490234375 46.44422912597656 L 70.97876739501953 21.575010299682617"/>
</g>
</g>
<g transform="matrix(-0.40344900893440244, -0.9150021296094608, 0.9150021296094608, -0.40344900893440244, 59.46135314721942, 18.1053743326937)">
<g fill-opacity="1" fill-rule="nonzero" stroke="none" fill="#000000">
  <path d="M 0 0 L 3.200000047683716 3 L 0 6 L 8 3 z"/>
</g>
</g>
<g transform="matrix(-0.40344900893440244, -0.9150021296094608, 0.9150021296094608, -0.40344900893440244, 59.46135314721942, 18.1053743326937)">
<g stroke-linejoin="round" stroke-linecap="butt" fill="none" stroke-opacity="1" stroke="#000000">
  <path d="M 0 0 L 3.200000047683716 3 L 0 6 L 8 3 z"/>
</g>
</g>
<g transform="matrix(1, 0, 0, 1, -12, -12)">
<g stroke-linecap="butt" fill="none" stroke-opacity="1" stroke="#000000">
  <path d="M 88.93222045898438 50.47871780395508 L 115.95234680175781 47.54051971435547"/>
</g>
</g>
<g transform="matrix(0.9941396086721547, -0.10810383188941587, 0.10810383188941587, 0.9941396086721547, 95.67491843594235, 33.42293153637347)">
<g fill-opacity="1" fill-rule="nonzero" stroke="none" fill="#000000">
  <path d="M 0 0 L 3.200000047683716 3 L 0 6 L 8 3 z"/>
</g>
</g>
<g transform="matrix(0.9941396086721547, -0.10810383188941587, 0.10810383188941587, 0.9941396086721547, 95.67491843594235, 33.42293153637347)">
<g stroke-linejoin="round" stroke-linecap="butt" fill="none" stroke-opacity="1" stroke="#000000">
  <path d="M 0 0 L 3.200000047683716 3 L 0 6 L 8 3 z"/>
</g>
</g>
</g>
</g>
</g>
</g>
</g>
</g>
</g>
</g>
</g>
</g>
</g>
</g>
</svg>
