<?xml version="1.0" encoding="UTF-8" standalone="no"?>
<!-- Created with Inkscape (http://www.inkscape.org/) -->

<svg
   xmlns:dc="http://purl.org/dc/elements/1.1/"
   xmlns:cc="http://creativecommons.org/ns#"
   xmlns:rdf="http://www.w3.org/1999/02/22-rdf-syntax-ns#"
   xmlns:svg="http://www.w3.org/2000/svg"
   xmlns="http://www.w3.org/2000/svg"
   xmlns:sodipodi="http://sodipodi.sourceforge.net/DTD/sodipodi-0.dtd"
   xmlns:inkscape="http://www.inkscape.org/namespaces/inkscape"
   id="svg2"
   version="1.1"
   inkscape:version="0.48.4 r9939"
   width="461.43591"
   height="467.1582"
   viewBox="0 0 461.43591 467.1582"
   sodipodi:docname="fiery_sun.svg">
  <metadata
     id="metadata4534">
    <rdf:RDF>
      <cc:Work
         rdf:about="">
        <dc:format>image/svg+xml</dc:format>
        <dc:type
           rdf:resource="http://purl.org/dc/dcmitype/StillImage" />
        <dc:title></dc:title>
        <cc:license
           rdf:resource="http://creativecommons.org/publicdomain/zero/1.0/" />
        <dc:date>11/21/2016</dc:date>
        <dc:creator>
          <cc:Agent>
            <dc:title>edited by Paul Sherman</dc:title>
          </cc:Agent>
        </dc:creator>
        <dc:rights>
          <cc:Agent>
            <dc:title>pd</dc:title>
          </cc:Agent>
        </dc:rights>
        <dc:publisher>
          <cc:Agent>
            <dc:title>wpclipart</dc:title>
          </cc:Agent>
        </dc:publisher>
      </cc:Work>
      <cc:License
         rdf:about="http://creativecommons.org/publicdomain/zero/1.0/">
        <cc:permits
           rdf:resource="http://creativecommons.org/ns#Reproduction" />
        <cc:permits
           rdf:resource="http://creativecommons.org/ns#Distribution" />
        <cc:permits
           rdf:resource="http://creativecommons.org/ns#DerivativeWorks" />
      </cc:License>
    </rdf:RDF>
  </metadata>
  <defs
     id="defs6" />
  <sodipodi:namedview
     pagecolor="#ffffff"
     bordercolor="#666666"
     borderopacity="1"
     objecttolerance="10"
     gridtolerance="10"
     guidetolerance="10"
     inkscape:pageopacity="0"
     inkscape:pageshadow="2"
     inkscape:window-width="1920"
     inkscape:window-height="1055"
     id="namedview4"
     showgrid="false"
     fit-margin-top="4"
     fit-margin-left="4"
     fit-margin-right="4"
     fit-margin-bottom="4"
     inkscape:zoom="1.3859293"
     inkscape:cx="266.71675"
     inkscape:cy="250.98016"
     inkscape:window-x="0"
     inkscape:window-y="0"
     inkscape:window-maximized="1"
     inkscape:current-layer="svg2" />
  <g
     id="g4158"
     transform="translate(33.519337,3.6409038)">
    <path
       inkscape:connector-curvature="0"
       id="path4138"
       d="m 282.4339,456.5 c 3.88247,-10.66236 4.98586,-32.34578 2.13723,-42 -1.85767,-6.29578 -1.13575,-5.44694 -18.7105,-22 -4.08215,-3.84484 -7.6558,-8.4461 -9.94911,-12.80999 l -3.57878,-6.81 -5.20359,7.52727 c -11.78258,17.04411 -16.80754,34.61105 -13.01353,45.49454 0.61359,1.76015 0.89803,3.41786 0.63208,3.68381 -0.26594,0.26594 -6.04501,-6.95703 -12.84237,-16.05105 -6.79735,-9.09402 -12.59429,-16.50398 -12.88208,-16.46658 -0.28779,0.0374 -2.86015,4.8749 -5.71636,10.75 -12.05859,24.804 -27.10563,41.74171 -39.6308,44.61043 l -2.82391,0.64678 3.14372,-4.56924 c 5.90469,-8.58219 10.96476,-21.96761 10.99223,-29.07783 0.022,-5.70227 -2.93685,-12.12615 -7.53957,-16.36879 -4.87053,-4.4895 -5.96699,-4.78538 -9.23944,-2.49327 -4.02263,2.81756 -8.19794,14.11807 -8.2147,22.23314 -0.0174,8.42856 -4.93396,15.6383 -13.31255,19.52182 -6.87554,3.18684 -12.72429,4.53181 -24.99063,5.74679 C 101.55722,449.0716 76,448.35653 76,447.06921 c 0,-0.37077 2.18957,-1.46148 4.86571,-2.42381 2.67614,-0.96232 8.33943,-3.72926 12.58508,-6.14876 15.8321,-9.0223 24.52089,-19.19041 24.53983,-28.71785 0.0103,-5.18709 -4.39396,-18.37859 -8.4427,-25.28723 -3.17355,-5.41525 -7.69072,-9.24036 -11.82736,-10.01532 -2.14193,-0.40128 -6.05811,0.29333 -11.69287,2.07394 -14.808916,4.67968 -27.563851,2.56633 -42.609162,-7.05987 C 36.643945,365.15584 36.542817,365.28276 49,362.48497 58.272861,360.40236 68.223786,355.80226 70.948128,352.33882 74.22457,348.1735 73.097,340.81517 68.61188,337.09285 66.009894,334.9334 56.951491,338.20441 52.79604,342.804 l -3.451123,3.81998 0.448004,-10.07324 c 1.007417,-22.65145 -6.232177,-34.46148 -21.166272,-34.52878 -5.920587,-0.0267 -23.089559,5.53578 -32.741347,10.60765 -3.758794,1.97519 -8.690415,5.60504 -10.959158,8.06634 -3.486966,3.78291 -4.063333,5.00321 -3.726367,7.88957 0.44618,3.82185 -0.163981,4.24009 -2.428278,1.66448 -5.505449,-6.26239 -7.502396,-15.87256 -5.396729,-25.9714 3.91925,-18.79682 21.061053,-41.48626 50.37523,-66.67826 5.6375,-4.84475 10.25,-9.35833 10.25,-10.03018 0,-1.90506 -4.085402,-5.27939 -9.012457,-7.44382 -9.978551,-4.38351 -24.27662999,-5.05255 -34.077592,-1.59457 -2.322061,0.81927 -4.45256,1.25895 -4.734441,0.97707 -0.811418,-0.81141 15.304207,-16.0742 23.176249,-21.94976 C 20.741837,189.05771 28.825239,185.14859 40.5,182.49583 l 3,-0.68167 -4.830181,-4.39208 c -2.6566,-2.41565 -8.209369,-6.06217 -12.339488,-8.10338 -6.519082,-3.22191 -8.655049,-3.76608 -16.197987,-4.12672 -7.382841,-0.35297 -9.77406599,-0.0379 -15.910513,2.0961 C -9.750176,168.66941 -13,169.47818 -13,169.08535 c 0,-1.7134 12.71833101,-15.59824 19.776775,-21.59067 8.910423,-7.56471 24.231998,-15.73191 32.88148,-17.52753 3.413653,-0.70868 9.878523,-1.01608 15.587291,-0.74119 C 60.610496,129.4843 65,129.38459 65,129.00439 c 0,-0.38021 -0.83226,-3.12424 -1.849467,-6.09784 -3.497857,-10.22529 -4.479539,-18.49228 -3.797092,-31.976267 1.263437,-24.963366 5.751641,-49.55688 9.243611,-50.651191 0.713519,-0.223602 1.310825,2.901343 1.708527,8.938557 1.242087,18.855203 7.773411,33.897867 19.535741,44.993846 9.51714,8.977995 15.58728,12.969775 20.57802,13.532305 7.99304,0.90093 8.745,-3.32624 5.11316,-28.7438 -5.78087,-40.457634 -4.25142,-58.633539 5.93237,-70.5 l 2.5746,-3 -0.76973,4 C 122.84638,11.7 122.5,17.325 122.5,22 c 0,7.368757 0.3901,9.298524 2.93115,14.5 5.60898,11.481455 21.42288,24.174412 35.62575,28.594842 22.73326,7.075386 47.06411,-5.933109 69.77461,-37.305013 3.06981,-4.240593 5.72196,-7.569689 5.89366,-7.397991 0.1717,0.171699 -1.72244,4.136878 -4.20921,8.81151 -8.82177,16.583208 -10.58695,25.887104 -6.50948,34.310048 2.63888,5.45119 7.99257,9.819423 11.89855,9.708367 10.26641,-0.291897 22.46485,-12.678579 22.37646,-22.721763 -0.0194,-2.2 -0.93573,-6.046772 -2.03638,-8.548382 -1.10066,-2.50161 -2.29171,-6.55161 -2.64679,-9 L 254.95272,28.5 l 2.87014,6 c 4.49737,9.401717 20.7855,35.292969 26.9274,42.803185 11.35945,13.89016 19.33998,19.185775 27.84962,18.48009 10.7031,-0.887585 47.04372,-21.50501 62.15012,-35.260143 3.4375,-3.130016 6.25,-5.497705 6.25,-5.26153 0,0.236175 -3.17647,6.011432 -7.05881,12.833904 -10.35428,18.195642 -25.47693,49.211174 -28.47703,58.404494 -2.96733,9.09287 -2.53141,12.10159 2.20193,15.1977 3.562,2.32993 18.57194,2.28545 29.23297,-0.0866 4.06949,-0.90546 7.57952,-1.46583 7.80007,-1.24528 0.22056,0.22056 -3.55902,2.77379 -8.39906,5.67386 -16.00752,9.59144 -25.72576,16.38861 -31.76058,22.21412 -5.53707,5.34502 -5.84339,5.87089 -4.31187,7.40241 2.56865,2.56865 28.86472,3.19147 39.05231,0.92494 12.02044,-2.67429 14.28258,-4.86854 22.80973,-22.12513 4.52532,-9.158 7.49518,-14.13295 7.93662,-13.295 2.52112,4.78565 1.59129,31.03367 -1.53675,43.38096 -2.4505,9.67279 -9.17502,22.27396 -14.98884,28.08778 -5.61992,5.61993 -14.44118,10.59094 -22.13688,12.47474 -2.6751,0.65482 -4.9825,1.28038 -5.12756,1.39013 -0.14506,0.10975 1.72411,3.16396 4.1537,6.78713 2.4296,3.62316 5.36079,9.10885 6.51375,12.19043 2.06076,5.50788 2.8443,14.94751 1.31897,15.89021 -0.42753,0.26423 -3.2309,-1.0666 -6.22971,-2.9574 -5.02014,-3.16529 -10.67169,-5.3857 -13.74296,-5.3994 -2.62,-0.0117 -5.25,3.94849 -5.25,7.90533 0,5.50581 3.31055,15.4964 6.53649,19.72582 6.5644,8.60637 18.70488,8.32007 33.01234,-0.7785 3.88239,-2.46894 6.37772,-3.25202 11.55969,-3.62767 12.43988,-0.90177 17.98246,2.87916 18.69676,12.75419 0.6292,8.69863 -0.36908,10.40405 -2.98966,5.10739 -2.89355,-5.8484 -7.18703,-7.89665 -12.9398,-6.17308 -6.46377,1.93659 -11.20354,5.37576 -23.4103,16.98649 C 369.56566,318.1267 362.57749,322.2 353.79512,322.2 c -5.05411,0 -6.72571,-0.47513 -10.15761,-2.88716 -2.25936,-1.58794 -5.18591,-4.44544 -6.50344,-6.35 l -2.39552,-3.46284 0.67204,3.5 c 2.90568,15.13281 1.15611,32.99424 -4.10021,41.85919 L 328.55869,359.5 327.72044,355 c -2.26481,-12.15818 -4.11595,-17.43202 -7.39123,-21.05736 -2.94166,-3.25607 -7.47387,-5.46464 -8.6993,-4.23922 -0.2294,0.2294 0.2101,2.75248 0.97667,5.60684 4.93727,18.3842 7.52629,46.59736 5.47751,59.68974 -1.52107,9.72009 -3.28311,13.18044 -20.11288,39.49813 -13.76265,21.52146 -17.06536,26.19832 -15.53731,22.00187 z"
       style="fill:#ff9700;fill-opacity:1;stroke:#fe2b00;stroke-width:3;stroke-miterlimit:4;stroke-opacity:1;stroke-dasharray:none"
       sodipodi:nodetypes="sssscssssssscssssssssssssssssssscsssssssssssssscssssssssssssssssscssssssssscsscsssssssssssssssssssssssssssssssssssscsscsssssss" />
    <path
       sodipodi:nodetypes="csssssssscssssscsssscsssssssscsscsssssssscsscssssscssscscsssscsssssssssscsssssssssssssssssscc"
       inkscape:connector-curvature="0"
       id="path4138-3"
       d="m 122.05102,431.95947 c 11.48223,-8.53774 14.53681,-19.5627 9.54454,-34.44927 -4.18438,-12.47753 -15.25538,-28.94529 -22.89255,-34.05197 -3.83381,-2.56351 -5.38341,-3.03178 -8.81065,-2.66245 -2.28727,0.24649 -5.50673,1.40806 -7.15437,2.58129 -4.83543,3.44312 -5.40473,2.50748 -2.26219,-3.71786 7.29919,-14.45962 9.20055,-27.11459 4.7435,-31.57164 -2.88818,-2.88818 -17.74359,-6.57737 -26.485357,-6.57737 -5.13845,0 -6.30831,0.34093 -7.62622,2.22251 l -1.5567,2.2225 0,-2.16349 c 0,-1.18992 0.40834,-2.41586 0.90743,-2.72431 1.31518,-0.81283 6.80681,-14.36479 8.59205,-21.20305 2.09811,-8.03662 1.0333,-10.18429 -8.06705,-16.27098 -15.53117,-10.38788 -34.23671,-14.77449 -43.295334,-10.15312 -2.357575,1.20274 -4.815385,2.00563 -5.461799,1.78418 -0.646415,-0.22144 1.150459,-1.5867 3.993054,-3.0339 8.786803,-4.47349 28.481709,-18.14464 35.760489,-24.82303 7.80426,-7.16052 12.57116,-13.95499 12.57116,-17.91823 0,-6.18795 -7.83901,-11.21264 -24.008635,-15.38917 -5.220252,-1.34837 -9.266368,-2.4817 -8.991368,-2.51851 0.275,-0.0368 4.415398,-0.47898 9.200885,-0.98258 17.499538,-1.8416 27.799118,-7.53757 27.799118,-15.37375 0,-9.99722 -10.72358,-25.68706 -23.48167,-34.35641 -2.16744,-1.47281 -3.405079,-2.85641 -2.750306,-3.07467 0.654776,-0.21826 4.912326,0.54869 9.461236,1.70433 23.616507,5.99971 37.882947,2.51945 44.575807,-10.87414 4.1275,-8.25987 5.70275,-16.00545 4.18831,-20.59423 -1.41859,-4.29839 -3.48728,-5.47995 -9.59431,-5.47995 -2.60282,0 -4.44895,-0.28346 -4.1025,-0.6299 0.78739,-0.78739 35.11152,-6.35525 39.23092,-6.36381 8.86955,-0.0184 14.42881,-13.2004 14.45773,-34.281764 l 0.0148,-10.775479 5.75,5.827191 c 8.3781,8.490577 17.34858,12.164563 29.75,12.184539 13.07194,0.02106 28.68197,-6.022364 38.7623,-15.006816 6.13478,-5.467839 7.99102,-6.36276 4.81028,-2.319098 -1.20939,1.537487 -2.07258,4.107772 -2.07258,6.171417 0,5.071264 6.77879,11.461383 13.99494,13.192509 6.06903,1.455939 13.49095,0.819131 18.2013,-1.561691 6.34057,-3.20481 13.8098,-9.524958 17.19186,-14.547037 l 3.40744,-5.059748 0.68933,4.334846 c 6.44886,40.553221 28.22431,65.010391 46.56536,52.300031 3.60194,-2.49614 9.25443,-9.02159 10.28055,-11.86826 0.21748,-0.60331 0.6227,-0.87193 0.9005,-0.59693 0.2778,0.275 -0.59057,5.675 -1.9297,12 -2.97716,14.06173 -3.592,30.92691 -1.29419,35.5 2.23872,4.4555 5.89816,4.47374 11.91173,0.0594 2.6807,-1.96781 5.14236,-4.2772 5.47037,-5.13198 0.32801,-0.85479 1.07888,-1.25596 1.66859,-0.89149 0.72023,0.44512 0.57718,1.20965 -0.43578,2.32896 -2.7023,2.98601 -7.58573,14.57001 -8.71305,20.66825 -2.1294,11.51896 1.30739,23.40598 7.51734,26.00066 1.93005,0.80643 4.53613,1.45674 5.79129,1.44514 4.91695,-0.0455 16.07557,-4.96602 22.48831,-9.91659 3.62824,-2.80096 6.86613,-4.81044 7.19531,-4.46551 0.32917,0.34494 -1.19912,2.03926 -3.39622,3.76517 -7.38292,5.79959 -27.13922,26.11747 -30.89314,31.77128 -8.08548,12.17761 -11.8279,39.85224 -6.77631,50.10976 3.30344,6.70781 7.00326,9.02361 15.59815,9.76324 l 7.06602,0.60806 -8,3.94284 c -7.7747,3.8318 -8.3037,3.94458 -18.78386,4.00447 -13.30942,0.0761 -14.85464,1.08876 -15.48675,10.14953 -0.49314,7.06866 0.85821,10.99723 3.96673,11.53185 2.10156,0.36144 2.04043,0.46208 -0.69612,1.14594 -5.86888,1.46664 -15.06981,5.72388 -19.69925,9.11478 -3.53488,2.58918 -5.12687,4.64607 -6.42513,8.30139 -1.1234,3.16302 -2.68922,5.41224 -4.48545,6.44313 -1.79654,1.03107 -3.19661,3.04251 -4.01194,5.76384 -2.51707,8.40122 3.03895,27.43029 9.48102,32.47196 l 3.03853,2.37801 -2.69524,0.67646 c -3.42903,0.86063 -13.55025,-0.90081 -18.44231,-3.2096 -2.06813,-0.97605 -6.68523,-4.75988 -10.26023,-8.40851 -3.575,-3.64863 -7.49001,-6.94654 -8.70002,-7.32867 -5.02874,-1.58813 -11.70231,4.71744 -22.18802,20.9645 -3.63658,5.63469 -7.15008,11.07714 -7.80778,12.09433 -0.96092,1.48614 -1.08132,0.34953 -0.61292,-5.78633 0.32059,-4.19967 0.28477,-8.82362 -0.0796,-10.27544 -1.01961,-4.06246 -4.13615,-6.5888 -8.12807,-6.5888 -4.94087,0 -25.07509,5.70611 -30.55416,8.65916 -7.67197,4.13495 -9.79184,10.64569 -6.30423,19.36209 0.89385,2.23395 1.3561,4.33081 1.02722,4.65969 -2.08237,2.08236 -14.24981,-12.00116 -19.72339,-22.82934 -2.63589,-5.21448 -6.92473,-9.85163 -9.11164,-9.85163 -2.08295,0 -5.66355,5.39102 -7.18716,10.8211 -1.87384,6.67834 -2.08928,15.32837 -0.58449,23.46851 2.13393,11.54349 -2.67814,18.97215 -14.6936,22.68334 -3.60955,1.11488 -7.97791,2.01274 -9.70748,1.99525 -3.01484,-0.0305 -3.06209,-0.0932 -1.14466,-1.51893 z"
       style="fill:#fef700;fill-opacity:1;stroke:none" />
    <g
       transform="matrix(1.2008259,0,0,1.2008259,-197.55716,-445.28065)"
       id="layer1">
      <path
         d="m 441.29462,560.70587 c 0.0148,49.72803 -40.29355,90.04842 -90.02158,90.04842 -49.72803,0 -90.0364,-40.32039 -90.02158,-90.04842 -0.0148,-49.72803 40.29355,-90.04842 90.02158,-90.04842 49.72803,0 90.0364,40.32039 90.02158,90.04842 z"
         transform="matrix(1.2167832,0,0,1.2167832,-76.150099,-121.55162)"
         id="path2383"
         style="fill:#784421;fill-opacity:1;fill-rule:nonzero;stroke:#000000;stroke-width:3.28735638;stroke-linecap:round;stroke-linejoin:round;stroke-miterlimit:4;stroke-opacity:1;stroke-dasharray:none"
         inkscape:connector-curvature="0" />
      <path
         d="m 454.1875,523.125 c 0.0768,1.68161 0.125,3.39329 0.125,5.09375 0,60.46428 -49.06696,109.53125 -109.53125,109.53125 -47.26217,0 -87.5912,-29.99927 -102.9375,-71.96875 2.65351,58.11219 50.67363,104.46875 109.4375,104.46875 60.46429,0 109.53125,-49.06697 109.53125,-109.53125 0,-13.20218 -2.33815,-25.87003 -6.625,-37.59375 z"
         id="path3221"
         style="fill:#000000;fill-opacity:0.31372549;fill-rule:nonzero;stroke:none"
         inkscape:connector-curvature="0" />
      <path
         d="m 359.45331,671.27549 c 0,9.09078 14.66533,9.38135 32.73511,9.38135 18.06978,0 32.73512,0.69349 32.73512,-9.38135 0,-17.71594 -14.66534,-32.0941 -32.73512,-32.0941 -18.06978,0 -32.73511,14.37816 -32.73511,32.0941 z"
         id="path3172"
         style="fill:#502d16;fill-opacity:1;fill-rule:nonzero;stroke:#000000;stroke-width:3.99999976;stroke-linecap:round;stroke-linejoin:round;stroke-miterlimit:4;stroke-opacity:1"
         inkscape:connector-curvature="0" />
      <path
         d="m 435.90825,536.8321 c 0,50.59986 -55.12119,91.6664 -81.8378,91.6664 -25.71825,0 -81.8378,-41.06654 -81.8378,-91.6664 0,-50.59985 24.62503,-91.66639 81.8378,-91.66639 57.22259,0 81.8378,41.06654 81.8378,91.66639 z"
         id="path3236"
         style="fill:#000000;fill-opacity:0.31372549;fill-rule:nonzero;stroke:none"
         inkscape:connector-curvature="0" />
      <path
         d="m 404.77885,680.0559 c 0,-16.36756 -9.44283,-26.43991 -9.44283,-26.43991 0,0 3.77713,13.84948 3.14761,26.43991 l 6.29522,0 z"
         id="path3174"
         style="fill:#000000;fill-opacity:0.31372549;fill-rule:evenodd;stroke:#000000;stroke-width:4;stroke-linecap:butt;stroke-linejoin:round;stroke-miterlimit:4;stroke-opacity:1;stroke-dasharray:none"
         inkscape:connector-curvature="0" />
      <path
         d="m 348.61128,430.41056 c -30.12925,0.68392 -50.93167,13.05281 -63.625,32.20283 -24.06444,-2.89858 -44.0625,26.46232 -44.0625,26.46232 0,10e-6 18.89113,10.58081 32.0625,1.71515 -2.39923,9.75799 -3.5625,20.28045 -3.5625,31.25775 0,50.59986 56.1255,91.67305 81.84375,91.67305 26.71661,0 81.84375,-41.07319 81.84375,-91.67305 0,-10.9773 -1.16389,-21.49976 -3.5625,-31.25775 13.17137,8.86566 32.03125,-1.71515 32.03125,-1.71515 0,0 -19.97122,-29.35168 -44.03125,-26.46232 -13.06166,-19.70812 -34.70768,-32.20283 -66.28125,-32.20283 -0.89395,0 -1.77818,-0.0199 -2.65625,0 z"
         id="path3155"
         style="fill:#784421;fill-opacity:1;fill-rule:nonzero;stroke:#000000;stroke-width:4;stroke-linecap:round;stroke-linejoin:round;stroke-miterlimit:4;stroke-opacity:1"
         inkscape:connector-curvature="0" />
      <path
         d="m 382.23628,434.167 c 22.6428,-2.36919 34.04029,-7.44616 39.5,-12 17.75418,-14.80842 11.32535,-28.5499 22,-25.5 10.5,3 10.47672,14.69492 17.5,18 8.5,4 -2.03713,-35.16786 6.5,-32.5 8,2.5 8.97184,22.34507 21,27.5 10.5,4.5 -6.60902,-46.58271 8,-35.5 14.5,11 35,55 1,67 -34,12 -84.44667,15.48686 -101,15 -17,-0.5 -32.65989,-20.09987 -14.5,-22 z"
         id="path2399"
         style="fill:#502d16;fill-opacity:1;fill-rule:evenodd;stroke:#000000;stroke-width:5;stroke-linecap:butt;stroke-linejoin:round;stroke-miterlimit:4;stroke-opacity:1;stroke-dasharray:none"
         inkscape:connector-curvature="0" />
      <path
         d="m 441.29462,560.70587 c 0.0148,49.72803 -40.29355,90.04842 -90.02158,90.04842 -49.72803,0 -90.0364,-40.32039 -90.02158,-90.04842 -0.0148,-49.72803 40.29355,-90.04842 90.02158,-90.04842 49.72803,0 90.0364,40.32039 90.02158,90.04842 z"
         transform="matrix(0.2517482,0,0,0.2517482,236.54837,359.07889)"
         id="path3157"
         style="fill:#ffffff;fill-opacity:1;fill-rule:nonzero;stroke:#000000;stroke-width:15.88889027;stroke-linecap:round;stroke-linejoin:round;stroke-miterlimit:4;stroke-opacity:1;stroke-dasharray:none"
         inkscape:connector-curvature="0" />
      <path
         d="m 441.29462,560.70587 c 0.0148,49.72803 -40.29355,90.04842 -90.02158,90.04842 -49.72803,0 -90.0364,-40.32039 -90.02158,-90.04842 -0.0148,-49.72803 40.29355,-90.04842 90.02158,-90.04842 49.72803,0 90.0364,40.32039 90.02158,90.04842 z"
         transform="matrix(0.2517482,0,0,0.2517482,289.28057,359.07889)"
         id="path3159"
         style="fill:#ffffff;fill-opacity:1;fill-rule:nonzero;stroke:#000000;stroke-width:15.88889027;stroke-linecap:round;stroke-linejoin:round;stroke-miterlimit:4;stroke-opacity:1;stroke-dasharray:none"
         inkscape:connector-curvature="0" />
      <path
         d="m 441.29462,560.70587 c 0.0148,49.72803 -40.29355,90.04842 -90.02158,90.04842 -49.72803,0 -90.0364,-40.32039 -90.02158,-90.04842 -0.0148,-49.72803 40.29355,-90.04842 90.02158,-90.04842 49.72803,0 90.0364,40.32039 90.02158,90.04842 z"
         transform="matrix(0.08391603,0,0,0.08391603,343.19932,457.18337)"
         id="path3161"
         style="fill:#000000;fill-opacity:1;fill-rule:nonzero;stroke:none"
         inkscape:connector-curvature="0" />
      <path
         d="m 441.29462,560.70587 c 0.0148,49.72803 -40.29355,90.04842 -90.02158,90.04842 -49.72803,0 -90.0364,-40.32039 -90.02158,-90.04842 -0.0148,-49.72803 40.29355,-90.04842 90.02158,-90.04842 49.72803,0 90.0364,40.32039 90.02158,90.04842 z"
         transform="matrix(0.08391603,0,0,0.08391603,301.16898,457.18337)"
         id="path3163"
         style="fill:#000000;fill-opacity:1;fill-rule:nonzero;stroke:none"
         inkscape:connector-curvature="0" />
      <path
         d="m 429.83003,492.01597 -1.875,2.97526 c 0.24888,3.44484 0.34375,6.94757 0.34375,10.50093 0,50.59987 -55.12714,91.67305 -81.84375,91.67305 -20.70581,2e-5 -61.09673,-26.60866 -76.0625,-63.39057 7.61581,45.0798 57.1719,79.94704 80.875,79.94703 26.71661,0 81.84375,-41.07323 81.84375,-91.67306 0,-10.51946 -1.07538,-20.6213 -3.28125,-30.03264 z"
         id="path3231"
         style="fill:#000000;fill-opacity:0.31372549;fill-rule:nonzero;stroke:none"
         inkscape:connector-curvature="0" />
      <path
         d="m 344.4555,671.27549 c 0,9.09078 -14.66533,9.38135 -32.73511,9.38135 -18.06978,0 -32.73512,0.69349 -32.73512,-9.38135 0,-17.71594 14.66534,-32.0941 32.73512,-32.0941 18.06978,0 32.73511,14.37816 32.73511,32.0941 z"
         id="path3329"
         style="fill:#502d16;fill-opacity:1;fill-rule:nonzero;stroke:#000000;stroke-width:3.99999976;stroke-linecap:round;stroke-linejoin:round;stroke-miterlimit:4;stroke-opacity:1"
         inkscape:connector-curvature="0" />
      <path
         d="m 299.12996,680.0559 c 0,-16.36756 9.44283,-26.43991 9.44283,-26.43991 0,0 -3.77713,13.84948 -3.14761,26.43991 l -6.29522,0 z"
         id="path3331"
         style="fill:#000000;fill-opacity:0.31372549;fill-rule:evenodd;stroke:#000000;stroke-width:4;stroke-linecap:butt;stroke-linejoin:round;stroke-miterlimit:4;stroke-opacity:1;stroke-dasharray:none"
         inkscape:connector-curvature="0" />
      <path
         d="m 367.86847,576.36692 c -2.29272,3.97309 -6.50025,5.8386 -9.39677,4.16629 -2.89654,-1.67231 -3.38472,-6.2489 -1.09029,-10.22099 2.29273,-3.9731 6.50026,-5.83861 9.39679,-4.1663 2.89653,1.67231 3.38471,6.2489 1.09027,10.221 z"
         id="path2398"
         style="fill:#000000;fill-opacity:1;fill-rule:nonzero;stroke:none"
         inkscape:connector-curvature="0" />
      <path
         d="m 335.13142,576.36692 c 2.29272,3.97309 6.50025,5.8386 9.39677,4.16629 2.89654,-1.67231 3.38472,-6.2489 1.09029,-10.22099 -2.29273,-3.9731 -6.50026,-5.83861 -9.39679,-4.1663 -2.89653,1.67231 -3.38471,6.2489 -1.09027,10.221 z"
         id="path2412"
         style="fill:#000000;fill-opacity:1;fill-rule:nonzero;stroke:none"
         inkscape:connector-curvature="0" />
      <path
         d="m 319.63928,434.167 c -22.6428,-2.36919 -34.04029,-7.44616 -39.5,-12 -17.75418,-14.80842 -11.32535,-28.5499 -22,-25.5 -10.5,3 -10.47672,14.69492 -17.5,18 -8.5,4 2.03713,-35.16786 -6.5,-32.5 -8,2.5 -8.97184,22.34507 -21,27.5 -10.5,4.5 6.60902,-46.58271 -8,-35.5 -14.5,11 -35,55 -1,67 34,12 84.44667,15.48686 101,15 17,-0.5 32.65989,-20.09987 14.5,-22 z"
         id="path3171"
         style="fill:#502d16;fill-opacity:1;fill-rule:evenodd;stroke:#000000;stroke-width:5;stroke-linecap:butt;stroke-linejoin:round;stroke-miterlimit:4;stroke-opacity:1;stroke-dasharray:none"
         inkscape:connector-curvature="0" />
    </g>
  </g>
</svg>
